<svg width="123" height="87" viewBox="0 0 123 87" fill="none" xmlns="http://www.w3.org/2000/svg">
<path d="M104.605 85.9062H19.3711V0.671875H104.605V85.9062Z" fill="#EE3124"/>
<path d="M103.934 1.34375C103.934 2.65625 103.934 83.918 103.934 85.2344C102.617 85.2344 21.3555 85.2344 20.043 85.2344C20.043 83.918 20.043 2.65625 20.043 1.34375C21.3555 1.34375 102.617 1.34375 103.934 1.34375ZM18.6953 -0.00390625V86.5781H105.277V-0.00390625H18.6953Z" fill="#231F20"/>
<path d="M59.3359 7.07812H61.3594V5.12109H62.6211V7.07812H64.6289V8.28516H62.6211V11.2227C63.5508 11.4453 64.5312 12.0156 64.9297 12.9453C65.3281 13.7852 65.2812 15.0664 64.7969 15.8438C64.5977 16.4609 63.4258 16.8164 64.1367 17.543C65.1953 17.5664 66.168 17.1055 67.2695 17.082C68.9766 16.8164 70.7891 17.0352 72.0703 18.1836C75.3867 17.2383 80.4727 15.9102 82.9688 19.1602C83.5 20 83.8789 20.9258 83.9414 21.9648L80.668 35.4688H43.0664L39.8789 21.7891C40.168 20.0195 40.9844 18.2305 42.7344 17.5898C45.5625 16.4414 48.8984 17.3242 51.5977 18.1406C53.7188 16.3516 57.125 17.0117 59.5781 17.5898C59.8672 17.6562 60.0898 17.5 60.1758 17.2812C60.1953 16.5273 59.3594 16.2383 59.1133 15.5977C58.6953 14.6484 58.7617 13.2773 59.4258 12.4375C59.8906 11.7734 60.5859 11.375 61.3594 11.3086V8.28516H59.3359V7.07812Z" fill="#FFC821"/>
<path d="M60.5117 15.3945L60.2773 15.1367C60.1602 14.8711 60.1055 14.5664 60.1055 14.2695C60.1055 13.8555 60.2109 13.4609 60.4102 13.2109C60.6953 12.8047 61.0547 12.5937 61.4648 12.5586C61.4648 12.5586 62.1055 12.5039 62.3906 12.4805C63.043 12.6562 63.5977 13.0156 63.7812 13.4414C63.8906 13.6758 63.9414 13.9805 63.9414 14.2773C63.9414 14.625 63.8711 14.9609 63.7344 15.1758C63.6602 15.3398 63.4766 15.5273 63.4766 15.5273L62.6562 17.0703L63.6172 19.2891L64.1094 18.7969L66.0234 18.5391L67.2969 18.332C68.3789 18.1758 70.0898 18.0937 71.2344 19.1172L71.75 19.5781L72.4141 19.3867C76.3125 18.2734 80.168 17.5664 81.9766 19.9219C82.375 20.5586 82.5977 21.25 82.6602 21.9414C82.543 22.4297 80.0781 32.6016 79.6836 34.2188C78.1367 34.2188 45.9023 34.2188 44.0586 34.2188C43.6797 32.5859 41.3008 22.3594 41.1719 21.8125C41.3555 20.8125 41.8242 19.2578 43.1641 18.7656C45.6055 17.7734 48.6055 18.543 51.2344 19.3398L51.8828 19.5391L52.4023 19.0977C53.957 17.7852 56.6328 18.1836 59.293 18.8086C60.1641 19.0039 61.0234 18.5547 61.3438 17.7344L61.543 17.2305L61.4297 17.3125L60.5117 15.3945ZM60.1094 3.87109C60.1094 3.87109 60.1094 5.5 60.1094 5.82812C59.7422 5.82812 58.0859 5.82812 58.0859 5.82812V9.53516C58.0859 9.53516 59.7422 9.53516 60.1094 9.53516C60.1094 9.96484 60.1094 10.0547 60.1094 10.4258C59.4414 10.707 58.8281 11.1055 58.3984 11.7188C57.8711 12.3867 57.5938 13.3125 57.5938 14.2617C57.5938 14.8437 57.7227 15.4258 57.9414 15.9648C55.9414 15.6133 53.4766 15.5781 51.4844 16.8203C48.5586 15.9531 45.2617 15.2109 42.2617 16.4297C40.3711 17.1211 39.0742 18.9609 38.6445 21.5898L38.6055 21.832L42.0703 36.7227H81.5039L81.8867 35.7656L85.2031 22.0781L85.1914 21.8906C85.1211 20.7305 84.7383 19.6172 84.0273 18.4883C81.0078 14.5469 75.4961 15.9258 72.2227 16.8555C70.8477 15.9453 69.0938 15.5312 67.0781 15.8438C67.0859 15.8438 67.0898 15.8438 67.0898 15.8438C67.0898 15.8516 66.5234 15.9336 66.043 16.0078C66.2852 15.5625 66.4648 14.9883 66.4648 14.3281C66.4648 13.6797 66.3359 12.9922 66.0625 12.4102C65.6953 11.5547 64.8594 10.9102 63.875 10.4531C63.875 10.0977 63.875 9.98438 63.875 9.53516C64.2305 9.53516 65.8828 9.53516 65.8828 9.53516V5.82812C65.8828 5.82812 64.2305 5.82812 63.875 5.82812C63.875 5.5 63.875 3.87109 63.875 3.87109H60.1094Z" fill="#231F20"/>
<path d="M59.1016 6.83984H61.1211V4.88672H62.8555V6.83984H64.8633V8.51953H62.8555V11.2227C63.7812 11.4453 64.5312 12.0156 64.9297 12.9453C65.3281 13.7852 65.2812 15.0664 64.7969 15.8438C64.5977 16.4609 63.4258 16.8164 64.1367 17.543C65.1953 17.5664 66.168 17.1055 67.2695 17.082C68.9766 16.8164 70.7891 17.0352 72.0703 18.1836C75.3867 17.2383 80.4727 15.9102 82.9688 19.1602C83.5 20 83.8789 20.9258 83.9414 21.9648L80.668 35.4688H43.0664L39.8789 21.7891C40.168 20.0195 40.9844 18.2305 42.7344 17.5898C45.5625 16.4414 48.8984 17.3242 51.5977 18.1406C53.7188 16.3516 57.125 17.0117 59.5781 17.5898C59.8672 17.6562 60.0898 17.5 60.1758 17.2812C60.1953 16.5273 59.4258 16.2305 59.0703 15.5977C58.6523 14.6484 58.7617 13.2773 59.4258 12.4375C59.8945 11.7969 60.3516 11.4922 61.1211 11.3437V8.51953H59.1016V6.83984Z" fill="#FFD200"/>
<path d="M80.5625 35.4453H80.5742C80.5742 35.4453 80.6016 35.3437 80.6055 35.3242C80.5937 35.3594 80.5703 35.4297 80.5625 35.4453ZM61.0273 6.83984L59.1016 6.74609H59.0039V8.51953L61.1211 8.61719L61.0273 11.3437C60.3125 11.4023 59.8398 11.7109 59.3477 12.3789C58.6914 13.2148 58.5352 14.6172 58.9844 15.6367C58.9883 15.6445 59.5156 16.2812 59.5156 16.2812L60.0781 17.2773C60.0273 17.3984 59.8633 17.5547 59.5977 17.4961C56.5977 16.793 53.543 16.3711 51.5352 18.0703C48.7773 17.1875 45.5039 16.3594 42.6953 17.5C40.6484 18.2539 39.9922 20.5 39.7852 21.7734C39.7852 21.8125 42.9727 35.4922 42.9727 35.4922L80.5195 35.5664C80.5234 35.5625 80.5508 35.4648 80.5625 35.4453C80.5312 35.4453 43.0664 35.3711 43.0664 35.3711C43.0664 35.3711 43.0664 35.3711 43.0664 35.3672C43.0664 35.0547 39.9727 21.7695 39.9727 21.7695C40.1758 20.5742 40.8047 18.3984 42.7656 17.6797C45.5195 16.5625 48.7539 17.3789 51.5703 18.2344C53.6055 16.5742 56.6055 16.9883 59.5547 17.6836C59.8672 17.7539 60.1523 17.6055 60.2656 17.3125C60.2656 17.2695 59.6523 16.1445 59.6523 16.1445L59.1562 15.5508C58.9961 15.1875 58.918 14.7695 58.918 14.3477C58.918 13.668 59.1172 12.9805 59.5 12.4961C59.9609 11.8672 60.4062 11.582 61.1406 11.4375L61.2188 8.51953L59.1016 8.42187C59.1016 8.42187 59.1797 7.10547 59.1914 6.9375C59.3555 6.9375 61.1211 6.9375 61.1211 6.9375L61.2188 4.88672L62.8555 4.98437L62.7617 6.83984L64.8633 6.9375L64.7656 8.51953L62.8555 8.42187L62.7617 11.2227C63.7734 11.5391 64.4687 12.1172 64.8398 12.9844C65.2305 13.8047 65.1719 15.0625 64.7148 15.7891C64.707 15.8125 64.2773 16.3594 64.2773 16.3594L63.8125 17.0898L64.0664 17.6133C64.1328 17.6406 65.7656 17.4102 65.7656 17.4102L67.2734 17.1797C69.2187 16.875 70.8984 17.2617 72.0078 18.2578C74.9844 17.4531 80.3594 15.9141 82.8906 19.2188C83.4766 20.1406 83.7891 21.043 83.8477 21.9688C83.8438 21.9688 80.7656 34.6641 80.6055 35.3242C81.1094 34.0586 84.0352 21.9883 84.0352 21.9883C83.9766 21 83.6563 20.0664 83.0508 19.1094C80.4297 15.6953 74.9727 17.2539 72.043 18.0938C70.9805 17.0781 69.2461 16.6758 67.2578 16.9844C67.2695 16.9844 65.7227 17.2227 65.7227 17.2227C65.7227 17.2227 64.1602 17.4453 64.1484 17.4492C64.1484 17.4453 64.1523 17.4453 64.1523 17.4375C64.1523 17.375 64.0078 17.0938 64.0078 17.0938L64.4102 16.4961L64.8867 15.8711C65.1562 15.4492 65.2969 14.8594 65.2969 14.2656C65.2969 13.7852 65.2031 13.3008 65.0156 12.9023C64.6211 11.9844 63.8828 11.3711 62.8789 11.1289L62.9531 8.51953L64.8633 8.61719L64.9609 6.83984L62.8555 6.74609L62.9531 4.88672L61.1211 4.79297L61.0273 6.83984Z" fill="#231F20"/>
<path d="M71.6445 21.2148C71.3125 21.1914 71.0742 21.3711 70.8281 21.5469C70.6094 21.8125 70.5859 22.2031 70.6719 22.5391C70.8047 23.1523 71.7539 23.8438 71.4649 24.2109C70.8477 24.832 70.4219 23.918 69.9024 23.7031C69.5586 23.5742 69.3008 23.6055 69.0664 23.75C68.4492 24.3672 68.5781 25.5547 68.8906 26.2617C69.082 26.5078 69.3945 26.6367 69.7031 26.5078C70.3008 26.3945 70.9609 25.3828 71.4649 26.1758C71.7539 27.3398 71.293 28.4883 70.4063 29.2148C68.8906 30.3164 66.5274 30.4258 64.7461 29.7227C63.6875 29.2148 62.8516 28.2031 62.8086 27.0117C62.8281 26.6133 62.6953 26.1094 63.1367 25.9102C63.9766 25.7773 65.2539 27.2891 65.5352 26.0859C65.6953 25.3828 65.8477 24.543 65.4258 23.9258C65.1992 23.6563 64.8789 23.5313 64.5234 23.6602C63.9766 23.8359 63.4453 24.7617 62.8906 24.168C62.6094 23.5625 63.7969 23.25 63.7305 22.2266C63.7539 21.8555 63.5586 21.5898 63.2695 21.3477C63.0703 21.2734 63.0117 21.2148 62.7617 21.2148C62.7188 20.6641 63.0508 20.1133 63.4649 19.7383C65.4024 18.1602 68.5586 18.3281 70.6328 19.3633C71.8008 20.0078 71.6445 21.1094 71.6445 21.1094V21.2148Z" fill="#231F20"/>
<path d="M62.961 24.1016C62.875 23.9063 63.0156 23.7305 63.2656 23.457L63.8281 22.2227C63.8555 21.7813 63.5781 21.4844 63.332 21.2734C63.1836 21.207 62.7617 21.1172 62.7617 21.1172C62.8203 20.7461 63.0703 20.2227 63.5274 19.8086C65.4492 18.2461 68.5977 18.457 70.586 19.4492C71.6797 20.0508 71.5586 21.0547 71.5508 21.0938L71.6524 21.1211L70.7852 21.457C70.5391 21.7461 70.4727 22.1484 70.5781 22.5625C70.582 22.5625 71.0625 23.4023 71.0625 23.4023C71.2891 23.7109 71.5078 24 71.3906 24.1523C71.0547 24.4883 70.8125 24.3047 70.4375 23.9727L69.9375 23.6172C69.582 23.4805 69.293 23.4961 69.0156 23.668C68.3164 24.3672 68.5156 25.6523 68.8008 26.3008C69.0508 26.625 69.4141 26.7305 69.7422 26.5938C69.7422 26.5898 70.3711 26.2734 70.3711 26.2734L71.086 25.9766L71.3867 26.2266C71.6367 27.2734 71.2422 28.4023 70.3477 29.1406C68.9375 30.1641 66.6445 30.3672 64.7813 29.6328C63.6797 29.1055 62.9414 28.0742 62.9024 27.0078C62.9024 26.9258 62.9024 26.8477 62.9024 26.7773C62.9024 26.3008 62.9414 26.1016 63.1719 25.9961C63.1758 26.0117 64.1953 26.3359 64.1953 26.3359C64.6094 26.543 65 26.7422 65.3008 26.6016C65.461 26.5273 65.5703 26.3672 65.6289 26.1055C65.7969 25.3594 65.9375 24.5078 65.5078 23.8711C65.2266 23.5391 64.8594 23.4336 64.4922 23.5742C64.4961 23.5703 63.9219 23.9258 63.9219 23.9258C63.5195 24.2422 63.2578 24.4219 62.961 24.1016ZM63.4063 19.6641C62.9024 20.1211 62.625 20.6992 62.668 21.2227C62.7617 21.3125 63.1055 21.3867 63.1055 21.3867C63.5274 21.6914 63.6524 21.9297 63.6328 22.2227C63.6328 22.2344 63.125 23.3281 63.125 23.3281C62.8789 23.6016 62.6445 23.8633 62.8047 24.207C63.2539 24.6953 63.6875 24.3516 64.043 24.0781L64.5547 23.7539C64.9531 23.6055 65.2188 23.832 65.3516 23.9883C65.7383 24.5508 65.6094 25.3242 65.4414 26.0625C65.3945 26.2578 65.3203 26.3789 65.2149 26.4297C65.0039 26.5273 64.6524 26.3516 64.2774 26.1602L63.1211 25.8125C62.6914 26.0039 62.7031 26.418 62.711 26.75C62.75 28.1523 63.5352 29.25 64.7031 29.8086C66.6328 30.5703 69 30.3555 70.4649 29.293C71.4258 28.5039 71.8399 27.3008 71.5586 26.1523C71.5469 26.125 71.125 25.7891 71.125 25.7891L70.2656 26.1133L69.6875 26.4141C69.3711 26.543 69.1094 26.3867 68.9649 26.2031C68.711 25.6211 68.5156 24.4336 69.1328 23.8164C69.3399 23.6953 69.5742 23.6836 69.8711 23.793C69.8711 23.7969 70.3125 24.1172 70.3125 24.1172C70.6406 24.4063 71.0469 24.7695 71.5352 24.2813C71.5899 24.207 71.6133 24.1328 71.6133 24.0508C71.6133 23.8242 71.418 23.5625 71.2149 23.2891L70.7656 22.5195C70.7344 22.4023 70.7227 22.2852 70.7227 22.1797C70.7227 21.9531 70.7813 21.75 70.9063 21.6055C70.9063 21.6094 71.6406 21.3125 71.6406 21.3125L71.6914 21.2891L71.7383 21.1211C71.7422 21.1094 71.8906 19.9492 70.6797 19.2773C68.6328 18.2578 65.3906 18.0469 63.4063 19.6641Z" fill="#231F20"/>
<path d="M61.1172 21.2149C60.875 21.2149 60.6523 21.3242 60.4531 21.4805C60.1211 21.7227 60.1914 22.2031 60.2344 22.5625C60.2266 23.2109 61.5117 23.8359 60.7422 24.3867C60.1836 24.6016 59.2695 22.9297 58.4258 23.8828C58.0508 24.5195 58.0078 25.668 58.4727 26.2852C58.6445 26.5469 59 26.5274 59.2656 26.4609C59.8164 26.3516 60.2773 25.5117 60.875 25.9961C61.3789 26.9453 60.8945 28.0234 60.3242 28.7969C58.7578 30.2734 56.1992 30.4922 54.2383 29.6797C53.1172 29.1484 52.2539 28.0469 52.2305 26.7695C52.2773 26.3945 52.2773 25.9531 52.6992 25.8203C53.5117 25.8438 54.3945 27.2109 55.0742 26.043C55.2969 25.4024 55.2539 24.543 54.9453 23.9688C54.7031 23.6602 54.3281 23.5508 53.9766 23.6602C53.4453 23.8594 52.7695 24.8555 52.3672 24.1484C52.3711 23.293 53.5781 22.6016 53.1367 21.6367C52.9258 21.3359 52.5859 21.1914 52.2305 21.1719C52.3008 20.5078 52.5664 19.918 53.0469 19.4727C54.8594 18.3945 57.8125 18.4375 59.7266 19.2774C60.3906 19.4727 60.918 20.1797 61.1602 20.7969C61.2227 20.9414 61.2461 21.2031 61.2461 21.2031L61.1172 21.2149Z" fill="#231F20"/>
<path d="M52.875 23.1836C53.1836 22.7031 53.5039 22.207 53.2266 21.5938C53 21.2773 52.6523 21.0977 52.2383 21.0781C52.3945 20.5195 52.668 19.9531 53.1133 19.543C54.9609 18.4453 57.9102 18.5898 59.6875 19.3633C60.3242 19.5547 60.8359 20.2383 61.0703 20.832C61.0703 20.8359 61.1523 21.2109 61.1523 21.2109L61.1172 21.1172L60.3945 21.4023C60.0273 21.6719 60.0898 22.1797 60.1367 22.5469C60.1367 22.5586 60.5508 23.3789 60.5508 23.3789L60.8906 24.0352L60.6836 24.3086C60.543 24.3633 60.2852 24.1758 60.0195 23.9766C59.5586 23.6367 58.9297 23.168 58.3555 23.8203C57.9648 24.4805 57.8906 25.6719 58.3945 26.3438C58.5547 26.582 58.875 26.6602 59.2891 26.5547C59.2852 26.5547 59.8906 26.2344 59.8906 26.2344C60.2109 26.0039 60.4883 25.8047 60.8125 26.0703C61.3164 27.0352 60.6758 28.1602 60.2461 28.7422C58.8047 30.0938 56.3477 30.4531 54.2773 29.5898C53.1133 29.043 52.3477 27.9336 52.3281 26.7656C52.3789 26.3281 52.4102 26.0156 52.7266 25.9141C52.7266 25.9297 53.5195 26.2578 53.5195 26.2578L54.5938 26.5898L55.1562 26.0898C55.4023 25.3984 55.3437 24.5117 55.0273 23.9258C54.7578 23.5742 54.3437 23.4453 53.9453 23.5703C53.9414 23.5742 53.3867 23.9297 53.3867 23.9297L52.6719 24.2969C52.4648 24.1484 52.8828 23.1797 52.875 23.1836ZM53 19.3906C52.5 19.8438 52.207 20.4531 52.1367 21.1641C52.582 21.2891 52.8789 21.4375 53.0586 21.6914C53.2852 22.1914 53.0117 22.6172 52.7148 23.082L52.2695 24.1484C52.2813 24.1953 52.6367 24.4883 52.6367 24.4883L53.5039 24.082L54.0078 23.7539C54.3242 23.6523 54.6523 23.7578 54.8672 24.0273C55.0352 24.3398 55.1211 24.7461 55.1211 25.1563C55.1211 25.4492 55.0742 25.7461 54.9844 26.0117C54.9805 26.0039 54.5469 26.4023 54.5469 26.4023L53.6172 26.0898L52.6992 25.7266C52.2344 25.8672 52.1875 26.2969 52.1484 26.6406C52.1562 28.0117 52.9687 29.1875 54.1992 29.7656C56.3398 30.6563 58.8867 30.2852 60.3906 28.8672C60.8555 28.2383 61.5391 27.0391 60.957 25.9531C60.4961 25.5625 60.1133 25.8359 59.7773 26.0781L59.2461 26.3672C59.0508 26.418 58.707 26.4648 58.5508 26.2305C58.1055 25.6328 58.1602 24.5234 58.5078 23.9297C58.957 23.4258 59.4375 23.7852 59.9023 24.1289C60.2187 24.3594 60.5117 24.582 60.7773 24.4766C60.7969 24.4687 61.0781 24.0625 61.0781 24.0625L60.6992 23.2617L60.3281 22.5625C60.2852 22.1836 60.2344 21.7617 60.5117 21.5586C60.5117 21.5547 61.1914 21.2813 61.1914 21.2813L61.3438 21.1953L61.2461 20.7578C61.0156 20.168 60.4844 19.4023 59.7539 19.1836C57.9414 18.3906 54.9141 18.25 53 19.3906Z" fill="#231F20"/>
<path d="M60.2344 20.7539C59.8594 20.9297 59.4219 21.1719 59.3516 21.6367C59.2188 22.1172 59.4219 22.582 59.5938 23.0039C59.1094 22.8008 58.3399 22.7578 57.9414 23.1992C57.1485 24.0156 57.1485 25.5117 57.6094 26.5469C57.8985 26.9922 58.2735 27.3008 58.8008 27.3203C59.3516 27.3203 59.75 27.0117 60.1914 26.7695C60.2344 27.6758 59.6172 28.3359 58.8907 28.8398C57.4141 29.4336 55.4063 29.5469 54.0625 28.5781C53.5117 28.1133 53.0469 27.5195 53.0938 26.7695C53.6875 27.1016 54.3946 27.543 55.1211 27.1875C56.0938 26.5469 56.1563 25.2695 55.9571 24.168C55.8711 23.7031 55.5196 23.3086 55.1211 23.0039C54.7657 22.8008 54.1758 22.8008 53.8008 23.0039C54.0821 22.4922 54.2852 21.7227 53.8867 21.2148C53.6875 20.9961 53.4688 20.7734 53.1797 20.7539C53.2266 20.3984 53.5352 20.0664 53.8867 19.918C55.6524 19.3203 58.2969 19.1211 59.8594 20.2891L60.2344 20.7539Z" fill="#EE2037"/>
<path d="M54.3008 21.9219C54.3008 21.625 54.2266 21.3399 54.0352 21.0977C54.0274 21.0899 53.1953 20.5625 53.1953 20.5625C53.4024 20.5078 53.6485 20.2266 53.961 20.0938C55.7149 19.5 58.2813 19.3516 59.7461 20.4414C59.7461 20.4492 59.8516 20.5781 59.9492 20.6992C59.6328 20.8672 59.2344 21.1133 59.1641 21.6094C59.168 21.5899 59.3008 22.3945 59.3633 22.7656C58.8086 22.6289 58.1719 22.6602 57.8008 23.0703C56.9336 23.9649 56.9649 25.5703 57.4375 26.625C57.8125 27.207 58.25 27.4883 58.793 27.5117C58.8008 27.5117 60.043 27.0742 60.043 27.0742C60.0313 27.4688 59.6328 28.0938 58.7813 28.6836C57.4414 29.2188 55.4766 29.3594 54.1758 28.4258C53.543 27.8945 53.25 27.3555 53.2852 26.7774C53.6875 27.3203 54.4258 27.7383 55.2031 27.3594C56.332 26.6172 56.336 25.1953 56.1445 24.1367C56.1445 24.1328 55.2344 22.8516 55.2344 22.8516C54.9063 22.6602 54.457 22.6563 54.0625 22.7539C54.1758 22.4805 54.3008 22.2109 54.3008 21.9219ZM53.8242 19.7344C53.3711 19.9297 53.043 20.3242 52.9922 20.7266C53.1641 20.9414 53.7461 21.3438 53.7461 21.3438C54.0703 21.7617 53.8906 22.4492 53.6328 22.9102L53.8906 23.1719C54.207 23 54.7266 22.9961 55.0235 23.168C55.0235 23.1836 55.7695 24.2031 55.7695 24.2031C55.8242 24.4922 55.8594 24.8086 55.8594 25.125C55.8594 25.8594 55.6641 26.6016 55.0156 27.0313C54.4375 27.3086 53.8516 26.9766 53.2813 26.6563L53.0156 26.5039L52.9024 26.7578C52.8594 27.4609 53.1992 28.1016 53.9414 28.7227C55.4649 29.8242 57.5977 29.5664 58.961 29.0156C59.9688 28.3242 60.4219 27.5938 60.3789 26.7617L60.3672 26.5L59.8516 26.7461L58.8008 27.1289C58.3985 27.1133 58.0586 26.8906 57.7695 26.4453C57.3633 25.5274 57.3242 24.1094 58.0781 23.332C58.4024 22.9727 59.0625 22.9883 59.5235 23.1797L59.8477 23.3125L59.7617 22.9024L59.5352 21.6875C59.5938 21.2969 59.9688 21.0899 60.3164 20.9258L60.5313 20.8203L60.0117 20.168C58.3945 18.957 55.7461 19.0859 53.8242 19.7344Z" fill="#231F20"/>
<path d="M70.7188 20.7539C70.3438 20.9297 69.9492 21.1719 69.8164 21.5898C69.7031 22.1172 69.836 22.6484 70.0781 23.0898C69.6836 22.8008 69.1524 22.8711 68.7149 23.043C67.7891 23.5742 67.6758 24.7422 67.832 25.7773C67.961 26.3516 68.2266 26.9453 68.7578 27.2305C69.418 27.5195 70.125 27.168 70.6719 26.7891C70.7813 27.4102 70.3906 28.0234 69.9492 28.4453C68.7578 29.5703 66.5938 29.5469 65.1602 28.9492C64.3516 28.5781 63.6211 27.7617 63.5977 26.7891C64.1953 27.1445 64.9649 27.6055 65.6719 27.1875C66.3516 26.8125 66.461 25.9531 66.5742 25.2266C66.5274 24.4102 66.3985 23.4648 65.582 23.0039C65.2305 22.8477 64.6836 22.7773 64.3281 23.0039C64.6367 22.4492 64.6836 21.6562 64.2813 21.1289C64.082 20.9727 63.8867 20.7969 63.6445 20.7539C64.9336 18.7578 69.7695 19.0547 70.6641 20.6328L70.7188 20.7539Z" fill="#EE2037"/>
<path d="M64.7617 22.0469C64.7617 21.6875 64.668 21.3203 64.4336 21.0117C64.3242 20.918 63.6797 20.5664 63.6797 20.5664C64.4649 19.832 66.0977 19.5078 67.4024 19.543C68.8711 19.5859 70.1094 20.0586 70.4922 20.7187C70.2774 20.9219 69.6328 21.5352 69.6328 21.5352C69.6328 21.5703 69.7774 22.4023 69.8516 22.832C69.3985 22.6836 68.9258 22.7539 68.6445 22.8672C67.7813 23.3594 67.4336 24.3984 67.6445 25.8047C67.8242 26.6016 68.168 27.1289 68.6641 27.3984C69.4219 27.7305 70.0781 27.3125 70.4844 27.0586C70.4531 27.6172 70.0235 28.1055 69.8164 28.3086C68.6836 29.375 66.6133 29.3477 65.2344 28.7734C64.6289 28.4961 64.086 27.8672 63.9141 27.1133C64.4766 27.4219 65.1172 27.7383 65.7695 27.3516C66.5078 26.9453 66.6406 26.043 66.7539 25.3203C66.7149 24.3164 66.5469 23.3281 65.6758 22.8359C65.3633 22.6953 64.9531 22.668 64.582 22.75C64.6641 22.5234 64.7617 22.3047 64.7617 22.0469ZM63.4844 20.6484C63.6133 20.9414 64.0899 21.2187 64.0899 21.2187C64.4922 21.7187 64.418 22.4414 64.1641 22.9102L64.4297 23.1641C64.711 22.9844 65.1875 23.0352 65.5078 23.1758C66.1992 23.5703 66.3399 24.3984 66.3828 25.2383C66.2735 25.9375 66.1563 26.7031 65.582 27.0234C64.9727 27.3828 64.2695 26.9648 63.707 26.6328L63.4102 26.457L63.4063 26.7969C63.4336 27.8867 64.2695 28.75 65.082 29.125C66.5742 29.7422 68.8281 29.7617 70.0781 28.582C70.3633 28.3086 71.0078 27.5898 70.8594 26.7578L70.8086 26.4648L70.5664 26.6328C69.8477 27.125 69.2969 27.2578 68.832 27.0547C68.4492 26.8477 68.168 26.4023 68.0156 25.7344C67.9141 25.0312 67.875 23.7461 68.8086 23.2109C69.0625 23.1094 69.582 22.9648 69.9649 23.2422L70.2461 22.9961L70.0039 21.6289C70.0039 21.6406 70.8008 20.9258 70.8008 20.9258L70.9141 20.8242L70.8281 20.5352C70.3828 19.75 69.043 19.2109 67.4141 19.1641C66.0039 19.1211 64.2305 19.4922 63.4844 20.6484Z" fill="#231F20"/>
<path d="M82.5391 20.9961L82.6055 21.3477C81.9883 21.4805 81.1289 21.3477 80.9297 22.0938C80.6602 23.2188 82.0664 24.0195 81.6797 24.4336C80.9531 25.0078 80.5313 23.7031 79.7852 23.75C79.4102 23.7031 79.0781 23.9922 78.9219 24.3008C78.7695 24.918 78.6836 25.8203 79.0117 26.3711C79.2344 26.6367 79.543 26.75 79.8711 26.6367C80.3594 26.4844 80.7735 25.9961 81.3477 26.1289C81.832 26.4844 81.6602 27.2109 81.5469 27.7383C81.1289 29.2617 79.4766 30.0977 77.9531 30.2305C76.211 30.3398 74.5781 29.9219 73.5664 28.5781C73.1055 27.8945 72.8203 26.9688 73.125 26.1289C73.6992 25.082 75.1328 27.6523 75.8399 25.9961C75.9688 25.3359 76.0156 24.4766 75.6367 23.9258C75.3945 23.7266 75.0664 23.5938 74.7383 23.7031C74.168 23.8789 73.6328 24.918 73.086 24.1484C72.8789 23.7109 74.5508 22.5742 73.6797 21.4805C73.4805 21.3242 73.2578 21.2383 73.0156 21.2148C72.9961 20.6641 72.9063 20.1367 72.711 19.6523C74.9531 18.8281 77.0977 18.7695 79.3203 18.9688C80.5313 19.2773 81.875 19.7617 82.5391 20.9961Z" fill="#231F20"/>
<path d="M73.043 21.082C73.043 20.8438 72.7969 19.6133 72.7969 19.6133C74.6836 19.0273 76.6484 18.8281 79.3125 19.0625C80.4922 19.3633 81.8008 19.8398 82.4492 21.0352C82.457 21.0703 82.4961 21.2969 82.5078 21.3398C82.4766 21.2734 82.1328 21.3164 82.1328 21.3164C81.6055 21.3711 81.0078 21.4336 80.8359 22.0703C80.6758 22.7383 81.0703 23.3047 81.3594 23.7148C81.5859 24.043 81.7188 24.2461 81.6094 24.3672C81.2891 24.6211 81.0508 24.4336 80.6875 24.1172L79.7774 23.6562C79.3711 23.6055 79.0078 23.9219 78.8359 24.2578C78.75 24.6055 78.5156 25.7344 78.9297 26.4219C79.1953 26.7422 79.543 26.8477 79.9024 26.7305L80.4063 26.4844L81.3242 26.2227C81.7109 26.5117 81.5742 27.1562 81.4609 27.6719C81.043 29.2109 79.3945 30.0078 77.9453 30.1328C76.0195 30.2578 74.5313 29.6953 73.6445 28.5195C73.1211 27.7461 72.9609 26.8633 73.2188 26.1641C73.4297 25.9766 74.2266 26.2852 74.2305 26.2812L75.3828 26.6328L75.9258 26.0352C76.0586 25.3672 76.125 24.4687 75.7188 23.8711C75.3828 23.5937 75.0234 23.5078 74.707 23.6133L74.1211 23.9883L73.4805 24.332L73.1641 24.0938C73.1602 24.0859 73.1563 24.0703 73.1563 24.0586C73.1563 23.9492 73.3125 23.7187 73.4609 23.4961C73.7149 23.125 74.0313 22.6602 74.0313 22.168C74.0313 21.9219 73.9531 21.6719 73.7539 21.4219C73.7344 21.4023 73.043 21.1289 73.0313 21.1211C73.0391 21.1211 73.043 21.1094 73.043 21.082ZM72.6758 19.5625C72.6211 19.6875 72.918 21.2188 72.918 21.2188C73.0078 21.3086 73.6211 21.5547 73.6211 21.5547C74.1172 22.1875 73.668 22.8555 73.3047 23.3906C73.0781 23.7227 72.9024 23.9844 72.9961 24.1914C73.0078 24.2031 73.4531 24.5195 73.4531 24.5195L74.2461 24.1367L74.7656 23.7969C75.1133 23.6797 75.4219 23.875 75.5781 24C75.7774 24.2969 75.8399 24.6953 75.8399 25.082C75.8399 25.4219 75.7891 25.7461 75.7461 25.9766C75.7461 25.9687 75.3242 26.4492 75.3242 26.4492L73.3789 25.7891L73.043 26.0859C72.7617 26.8516 72.9297 27.8008 73.4883 28.6328C74.418 29.8672 75.9649 30.4531 77.9609 30.3242C79.4805 30.1953 81.2031 29.3516 81.6406 27.7617C81.7656 27.1719 81.9258 26.4336 81.4024 26.0547C81.3711 26.0352 80.3086 26.3164 80.3086 26.3164L79.8399 26.5469C79.5586 26.6406 79.293 26.5586 79.0859 26.3125C78.7188 25.6953 78.9375 24.6328 79.0156 24.3242C79.1445 24.0742 79.4414 23.8047 79.7734 23.8438C79.7891 23.8438 80.5586 24.2578 80.5586 24.2578C80.8906 24.5508 81.2656 24.8828 81.7383 24.5078C81.9727 24.2578 81.7617 23.957 81.5156 23.6055C81.2305 23.2031 80.8828 22.7031 81.0234 22.1172C81.1563 21.6094 81.6406 21.5625 82.1524 21.5078L82.625 21.4414C82.6992 21.3281 82.6328 20.9766 82.6328 20.9766L82.625 20.9492C81.9414 19.6836 80.5859 19.1914 79.3477 18.875C76.6367 18.6328 74.6484 18.8398 72.6758 19.5625Z" fill="#231F20"/>
<path d="M81.082 20.5312L81.3906 20.8437C80.9297 20.8828 80.5117 21.082 80.2461 21.5039C79.918 22.0312 80.1367 22.7148 80.3789 23.1992C79.961 23.0039 79.3008 22.8711 78.8789 23.1523C77.8672 23.8164 77.8672 25.1367 78.043 26.2617C78.2617 26.7891 78.5508 27.3398 79.1875 27.4297C79.7617 27.543 80.293 27.2539 80.7539 26.9687C80.9727 27.8476 80.1367 28.4687 79.4766 28.9492C77.9531 29.5469 75.8594 29.5703 74.5781 28.4453C74.207 28.0469 73.7422 27.4726 73.8555 26.8359C74.4063 27.3398 75.2852 27.5195 75.9688 27.1875C76.7227 26.6562 76.7656 25.7773 76.8086 24.9414C76.7852 24.168 76.4531 23.3516 75.75 23.0039C75.3945 22.8906 74.8672 22.8242 74.5391 23.043C74.7383 22.6016 74.8672 22.0742 74.7383 21.5469C74.6914 20.7734 73.2578 21.0156 73.7695 20.1133C76.0781 19.6953 79.0117 19.3867 81.082 20.5312Z" fill="#EE2037"/>
<path d="M74.9219 21.5C74.8985 21.0781 74.5117 20.8906 74.2227 20.7539L73.8555 20.4961C75.8945 19.9258 78.9063 19.5586 80.9805 20.6953C80.9961 20.7148 81.0352 20.7539 81.0977 20.8125C80.6953 20.9258 80.3047 21.0586 80.0899 21.3984C79.957 21.6094 79.8906 21.8516 79.8906 22.1211C79.8906 22.3672 80.0117 22.6602 80.1172 22.9453C79.6758 22.8086 79.1641 22.7305 78.7735 22.9961C77.8945 23.5664 77.5938 24.6445 77.8555 26.2891C78.0352 26.7461 78.3555 27.5078 79.1602 27.6211C79.1524 27.6172 80.8516 27.1289 80.8516 27.1289C80.7461 27.7227 80.125 28.2383 79.3633 28.7969C78.0156 29.3164 75.957 29.4023 74.707 28.3008C74.4102 27.9844 74.1133 27.5586 74.0703 27.1094C74.6797 27.4961 75.4297 27.6641 76.0508 27.3594C76.9102 26.7617 76.957 25.8008 76.9961 24.9492C76.9766 24.1875 76.6602 23.2383 75.832 22.832C75.6524 22.7695 75.1797 22.6914 74.7539 22.8008C74.8047 22.3867 74.9219 21.5 74.9219 21.5ZM73.7344 19.9258C73.6016 20.0195 73.4922 20.6094 73.4922 20.6094L74.0625 21.0977C74.3516 21.2383 74.5352 21.3398 74.5469 21.5547C74.5508 21.5898 74.3633 22.9648 74.3633 22.9648L74.6445 23.2031C74.9102 23.0273 75.375 23.082 75.6914 23.1836C76.3399 23.5078 76.5977 24.3086 76.6172 24.9453C76.5781 25.7305 76.5352 26.5547 75.8594 27.0313C75.2969 27.3008 74.4961 27.168 73.9844 26.6953L73.7266 26.4609L73.668 26.8047C73.543 27.5117 74.0156 28.1211 74.4414 28.5742C75.832 29.7969 78.0039 29.7305 79.543 29.1289C80.2656 28.6094 81.1914 27.9336 80.9375 26.9219C80.6524 26.8086 79.2266 27.2422 79.2266 27.2422C78.7227 27.1719 78.4688 26.7891 78.2188 26.1875C78 24.75 78.2422 23.793 78.9844 23.3125C79.3203 23.0859 79.9024 23.1836 80.3008 23.3711L80.5508 23.1133C80.332 22.6758 80.125 22.0547 80.4102 21.6016C80.6211 21.2656 80.961 21.0742 81.4102 21.0313L81.5274 20.707L81.1992 20.3789L81.1758 20.3633C79 19.1602 75.8867 19.5391 73.7344 19.9258Z" fill="#231F20"/>
<path d="M50.8164 21.1172C50.793 20.6406 50.9102 20.2109 51.0742 19.6055C49.1758 18.9688 47.1523 18.7227 44.9453 18.8594C43.4687 19.0781 41.7266 19.6289 41.2695 21.2578L42.1875 21.3477C42.6094 21.5469 42.9648 21.8984 42.918 22.4063C42.832 23.0898 42.1875 23.5938 42.1484 24.2578C42.6758 24.8516 43.207 23.8164 43.8008 23.7031C44.1289 23.6172 44.4648 23.6836 44.6797 23.9688C45.0117 24.6328 45.1641 25.668 44.7266 26.3281C43.9766 27.0313 43.3359 25.9531 42.5664 25.9531C42.3672 26.043 42.1875 26.1953 42.1484 26.418C42.1016 27.8711 42.832 29.1055 44.1289 29.6797C45.957 30.4063 48.4961 30.2969 49.9297 28.7969C50.543 28.0703 50.8516 27.0781 50.6523 26.1758C49.9297 25.2031 49.3086 26.7031 48.4062 26.4609C48.1641 26.3945 47.9922 26.1328 47.8984 25.9102C47.6836 25.2305 47.7227 24.3672 48.1172 23.7969C48.2969 23.6406 48.4922 23.5625 48.7617 23.5938C49.4648 23.5742 49.9805 24.793 50.6133 24.2109C50.875 23.5195 49.75 22.957 49.8164 22.0938C49.8672 21.8164 49.9492 21.5469 50.1914 21.3477C50.4063 21.1094 50.8164 21.1172 50.8164 21.1172Z" fill="#231F20"/>
<path d="M42.5938 21.7539C42.5898 21.7461 42.5859 21.7383 42.5781 21.7344C42.5859 21.7383 42.5898 21.7461 42.5938 21.7539ZM44.9414 18.7617C42.7813 19.082 41.5547 19.8906 41.1758 21.2344C41.2578 21.3555 42.1797 21.4414 42.1797 21.4414C42.293 21.4961 42.4492 21.5937 42.5781 21.7344C42.4492 21.5781 42.4531 21.3672 42.2305 21.2617C42.1992 21.2539 41.2773 21.1641 41.2773 21.1641C41.7148 20.0234 42.8945 19.2617 44.9609 18.9531C47.1641 18.8203 49.1563 19.0625 51.0352 19.6953C50.9609 19.6992 50.7539 20.9219 50.7305 21.0508C50.6094 21.0547 50.3203 21.0625 50.1172 21.2852C50.1172 21.293 49.7227 22.0781 49.7227 22.0781C49.7227 22.0898 50.1914 23.25 50.1914 23.25C50.3867 23.5156 50.5547 23.7578 50.5547 24C50.5547 24.0586 50.5469 24.1172 50.5234 24.1797C50.2578 24.4062 50.0117 24.2344 49.6367 23.9297L48.7578 23.4961C48.7695 23.5 48.0547 23.7227 48.0547 23.7227C47.6562 24.293 47.5625 25.1758 47.8086 25.9375C47.875 26.1016 48.0586 26.4687 48.3828 26.5547L49.5 26.2187C49.9609 25.9219 50.2344 25.7734 50.5781 26.2344C50.7422 27.0312 50.4727 28.0039 49.8555 28.7344C48.4375 30.2187 45.918 30.2891 44.1641 29.5898C42.9531 29.0547 42.2422 27.9219 42.2422 26.5469C42.2422 26.5039 42.2422 26.4648 42.2461 26.4219C42.2812 26.2187 42.4844 26.0977 42.6016 26.043C42.6055 26.0664 43.3633 26.3516 43.3633 26.3516C43.793 26.6016 44.2773 26.8789 44.7891 26.3984C45.2734 25.6797 45.1133 24.6172 44.7656 23.9258C44.5273 23.6133 44.1719 23.5078 43.7734 23.6133C43.7773 23.6133 43.0977 24.0117 43.0977 24.0117C42.7109 24.3164 42.4805 24.4766 42.2227 24.1953C42.2734 24.1953 42.6094 23.3672 42.6094 23.3672L43.0156 22.418C43.0156 22.3867 43.0195 22.3555 43.0195 22.3242C43.0195 22.0859 42.75 21.9453 42.5938 21.7539C42.7227 21.8945 42.8281 22.082 42.8281 22.3203C42.8281 22.3437 42.8242 22.3711 42.8242 22.3984C42.8203 22.3984 42.4453 23.2695 42.4453 23.2695L42.0508 24.2539C42.4688 24.7617 42.8633 24.4414 43.2188 24.1602L43.8164 23.8008C44.1445 23.7148 44.4258 23.7969 44.6055 24.0273C44.9258 24.6758 45.0508 25.6641 44.6445 26.2734C44.25 26.6406 43.8828 26.4336 43.4609 26.1875L42.5664 25.8594C42.2656 25.9844 42.0977 26.1758 42.0547 26.3984C42.0039 27.9297 42.7656 29.1836 44.0898 29.7656C45.9062 30.4883 48.5195 30.4102 49.9961 28.8633C50.6562 28.082 50.9414 27.0469 50.7461 26.1562C50.2656 25.4922 49.8047 25.7969 49.3945 26.0586L48.4336 26.3672C48.2656 26.3242 48.0977 26.1367 47.9844 25.8711C47.9023 25.6094 47.8633 25.3359 47.8633 25.0625C47.8633 24.6094 47.9766 24.168 48.1953 23.8516C48.1992 23.8633 48.75 23.6914 48.75 23.6914C48.7617 23.6914 49.5156 24.0781 49.5156 24.0781C49.8594 24.3555 50.25 24.6719 50.6758 24.2812C50.7188 24.1836 50.7344 24.0859 50.7344 23.9883C50.7344 23.6797 50.5391 23.4023 50.3477 23.1367L49.9141 22.1016C49.918 22.1016 50.25 21.4219 50.25 21.4219C50.4453 21.207 50.8086 21.2148 50.8125 21.2148L50.8945 21.2187L51.1562 19.668C49.1953 18.8711 47.1797 18.625 44.9414 18.7617Z" fill="#231F20"/>
<path d="M50.0156 20.1133V20.6641C49.4414 20.7539 49.0898 21.2383 48.957 21.7656C48.8711 22.25 49.0898 22.6016 49.2656 23.0039C48.7383 22.8477 48.0742 22.6914 47.6562 23.1133C46.9531 23.8359 46.8633 24.9844 47.0625 25.9961C47.1914 26.4375 47.4805 26.9258 47.8984 27.1445C48.582 27.4531 49.332 27.168 49.8398 26.7266C49.9727 27.7383 49.0898 28.4883 48.3164 28.8867C47.3477 29.3711 45.918 29.3711 44.8594 29.043C43.9531 28.7305 43.0508 27.9375 42.9414 26.9258V26.8359C43.4922 27.1445 44.043 27.4961 44.7266 27.3203C45.3437 27.1016 45.6289 26.4609 45.7852 25.8633C45.9375 24.832 45.7852 23.7734 44.9922 23.1133C44.5742 22.8711 43.8672 22.8008 43.4688 23.0898C43.7109 22.6914 43.8203 22.2031 43.7109 21.7227C43.5352 21.1719 43.0273 20.7539 42.4336 20.7109C44.4648 19.1641 47.5469 19.7148 49.9727 20.0664L50.0156 20.1133Z" fill="#EE2037"/>
<path d="M49.582 20.2031C49.582 20.2031 49.7187 20.2227 49.8242 20.2383C49.8242 20.3906 49.8242 20.6641 49.8242 20.6641C49.4023 20.5664 48.9453 21.0312 48.7734 21.7187C48.7695 21.7344 49.0117 22.9023 49.0117 22.9023C48.8789 22.6875 48.0508 22.4453 47.5195 22.9766C46.8594 23.6562 46.6289 24.7734 46.875 26.0352C46.8789 26.0508 47.8086 27.3125 47.8086 27.3125C48.4805 27.6172 49.1133 27.3437 49.625 27.0078C49.5664 27.8945 48.6602 28.4922 48.2305 28.7148C47.3789 29.1406 46.0156 29.1992 44.9141 28.8594C44.1289 28.5898 43.2344 27.8594 43.1289 26.9023C43.4766 27.3555 44.0625 27.6875 44.7695 27.5039C45.3555 27.3008 45.7422 26.7773 45.9688 25.9141C46.1055 24.9961 46.0664 23.7617 45.1133 22.9648C44.7148 22.7344 44.1523 22.6914 43.6953 22.8398C43.7656 22.4297 43.8984 21.6797 43.8984 21.6797C43.7344 21.1641 43.2383 20.9336 42.7539 20.7656C44.6211 19.5078 47.3555 19.875 49.582 20.2031ZM42.3164 20.5586L42.418 20.8984C42.9258 20.9336 43.375 21.2891 43.5312 21.7812C43.5234 21.7812 43.3047 22.9922 43.3047 22.9922L43.582 23.2461C43.9102 23.0039 44.5352 23.0703 44.8945 23.2773C45.6836 23.9375 45.7148 25.0352 45.5938 25.8359C45.4102 26.5508 45.1016 26.9844 44.6602 27.1406C44.1172 27.2812 43.6484 27.0156 43.1484 26.7344L42.8242 26.5508L42.7539 26.9453C42.875 28.0742 43.8672 28.9023 44.7969 29.2227C45.8047 29.5352 47.3086 29.6055 48.4023 29.0547C48.9492 28.7734 50.1953 27.9844 50.0273 26.6992L49.9805 26.3477L49.7109 26.582C49.2852 26.957 48.6016 27.2539 47.9766 26.9687C47.9844 26.9766 47.2461 25.9453 47.2461 25.9453C47.1445 25.4219 46.9844 24.0781 47.793 23.2461C48.1328 22.9023 48.7031 23.0352 49.2109 23.1836L49.5234 23.2773L49.3555 22.7422L49.1445 21.7969C49.2773 21.2773 49.6133 20.918 50.043 20.8516L50.207 20.1133V19.9492L50 19.8789L49.6367 19.8281C47.2656 19.4766 44.3125 19.043 42.3164 20.5586Z" fill="#231F20"/>
<path d="M61.9922 11.0586C63.7617 11.0586 65.1875 12.4922 65.1875 14.2578C65.1875 16.0234 63.7617 17.4609 61.9922 17.4609C60.2227 17.4609 58.7891 16.0234 58.7891 14.2578C58.7891 12.4922 60.2227 11.0586 61.9922 11.0586Z" fill="#FFD200"/>
<path d="M81.336 43.7031C81.6992 43.1406 81.9258 42.4414 81.6992 41.7422C81.5391 41.4258 81.0782 40.9766 80.4961 40.9766H43.1172C42.5352 40.9766 42.0703 41.4258 41.9141 41.7422C41.6914 42.4414 41.9141 43.1406 42.2735 43.7031L59.4141 74.7617C60.0235 75.5937 60.4532 77.0586 61.8047 77.0859C63.1602 77.0586 63.586 75.5937 64.1953 74.7617L81.336 43.7031Z" fill="#FFC821"/>
<path d="M43.4532 43.0547C43.2891 42.793 43.1055 42.4414 43.1993 42.1523L60.9297 42.3242H80.4961C80.5078 42.4375 80.3243 42.793 80.2032 42.9766L63.0157 74.1094C63.1055 73.9688 62.6094 74.7617 62.6094 74.7617C62.2188 75.4453 62.0118 75.7344 61.7813 75.7344C61.5977 75.7344 61.3946 75.4453 61 74.7617L60.5039 73.9648C60.5938 74.1094 43.4532 43.0547 43.4532 43.0547ZM43.1172 39.6289C41.9766 39.6289 41.0664 40.4141 40.7071 41.1445C40.3125 42.3242 40.4922 43.4258 41.1407 44.4336C41.0977 44.3633 58.2344 75.4102 58.2344 75.4102C58.3282 75.5586 58.6641 76.1055 58.6641 76.1055C59.1602 76.9609 59.9844 78.3984 61.7813 78.4336C63.6289 78.3984 64.4571 76.9609 64.9493 76.1016L65.2852 75.5547C65.375 75.4102 82.5157 44.3555 82.5157 44.3555L82.4688 44.4336C83.1211 43.4219 83.3047 42.3203 82.9805 41.3281C82.543 40.4141 81.6368 39.6289 80.4961 39.6289H43.1172Z" fill="#231F20"/>
<path d="M81.336 43.7031C81.6992 43.1406 81.9258 42.4414 81.6992 41.7422C81.5391 41.4258 81.0782 40.9766 80.4961 40.9766H43.1172C42.5352 40.9766 42.0703 41.4258 41.9141 41.7422C41.6914 42.4414 41.9141 43.1406 42.2735 43.7031L59.4141 74.7617C60.0235 75.5937 60.4532 77.0586 61.8047 77.0859C63.1602 77.0586 63.586 75.5937 64.1953 74.7617L81.336 43.7031Z" fill="#FFD200"/>
<path d="M69.9766 49.5391C70.1328 49.3047 70.2305 49.0117 70.1328 48.7188C70.0664 48.5859 69.8711 48.3984 69.6289 48.3984H53.9375C53.6953 48.3984 53.5 48.5859 53.4375 48.7188C53.3399 49.0117 53.4375 49.3047 53.586 49.5391L60.7813 62.5742C61.0352 62.9258 61.2149 63.5391 61.7813 63.5508C62.3477 63.5391 62.5313 62.9258 62.7852 62.5742L69.9766 49.5391Z" fill="#EE2F37"/>
<path d="M68.3242 49.7461C67.5195 51.2031 62.0859 61.0547 61.7774 61.6094C61.3516 60.8242 56.7149 52.4219 55.2383 49.7461C57.0156 49.7461 66.5469 49.7461 68.3242 49.7461ZM53.9375 47.0508C53.1172 47.0508 52.4883 47.5898 52.2266 48.125C51.9414 48.9414 52.0508 49.6445 52.457 50.2734C52.4102 50.1953 59.6016 63.2266 59.6016 63.2266C59.6914 63.3711 59.7852 63.5273 59.7852 63.5273C60.0195 63.9336 60.5625 64.875 61.7539 64.8984C63.0039 64.875 63.5469 63.9297 63.7813 63.5234L63.9649 63.2266L71.1563 50.1914L71.1016 50.2812C71.5156 49.6523 71.625 48.9492 71.4141 48.2969C71.0742 47.5859 70.4414 47.0508 69.6289 47.0508H53.9375Z" fill="#231F20"/>
<path d="M69.9766 49.5391C70.1328 49.3047 70.2305 49.0117 70.1328 48.7188C70.0664 48.5859 69.8711 48.3984 69.6289 48.3984H53.9375C53.6953 48.3984 53.5 48.5859 53.4375 48.7188C53.3399 49.0117 53.4375 49.3047 53.586 49.5391L60.7813 62.5742C61.0352 62.9258 61.2149 63.5391 61.7813 63.5508C62.3477 63.5391 62.5313 62.9258 62.7852 62.5742L69.9766 49.5391Z" fill="#EE2037"/>
<path d="M39.8633 60.9922C41.8047 61.0703 45.0703 60.9922 45.0703 60.9922C46 60.9922 46.3555 61.1563 46.7539 61.9102C47.1524 62.6602 51.1328 69.6914 51.1328 69.6914C52.8242 72.1289 51.7657 74.1992 48.9063 74.0859C45.3047 73.9375 45.8164 70.4414 45.7617 69.6055C45.7617 69.6055 44.6875 67.9922 43.6289 66.4531H30.25C24.9532 66.4531 26.7461 63.1758 27.6524 61.0117C28.1289 59.8555 27.3633 57.8594 24.0391 57.8594H14.2891C13.4727 57.8594 12.9922 57.2305 12.9922 57.2305L2.46097 45.3633C2.14065 44.9961 2.22659 44.6562 2.74612 44.6562H35C35.6875 44.7461 35.7383 44.8398 36.2188 45.6562C36.6992 46.4766 37.9024 48.5938 38.2383 49.2695C38.5782 49.9414 38.7696 50.4219 38.0938 51.5781C37.4219 52.7344 34.6797 57.4961 34.1953 58.3164C33.7149 59.1367 33.0899 60.9922 35.1563 60.9922H39.8633Z" fill="#FFC821"/>
<path d="M35 46.0039L35.0547 46.3398L37.0352 49.875C37.2578 50.3203 37.2617 50.3281 36.9297 50.8984L33.0352 57.6328C32.7578 58.1055 31.9102 59.75 32.6875 61.1094C33.0078 61.668 33.6953 62.3398 35.1563 62.3398H39.8633H39.8086H45.1055C45.0703 62.3398 45.5039 62.3711 45.5039 62.3711C45.5625 62.543 49.961 70.3555 49.961 70.3555C50.5235 71.1797 50.7188 71.8828 50.5156 72.25C50.336 72.582 49.7383 72.7695 48.961 72.7344C47.5235 72.6797 47.0938 72.043 47.1133 70.0078L47.1016 69.1133L46.8828 68.8555L44.3399 65.0938L43.6289 65.1016H30.25C28.3985 65.1016 28.0586 64.668 28.0235 64.6172C27.7461 64.1992 28.3633 62.7695 28.6953 62L28.8945 61.5312C29.3047 60.543 29.1758 59.3984 28.5508 58.4648C28.0625 57.7344 26.832 56.5117 24.0391 56.5117H14.2891L14 56.3359C14 56.3359 6.90236 48.332 4.83595 46.0039C8.48439 46.0039 35 46.0039 35 46.0039ZM1.07033 44.2969C0.781267 44.9258 0.925798 45.6562 1.44924 46.25C1.45314 46.2578 11.9844 58.125 11.9844 58.125C12.0117 58.168 12.8477 59.207 14.2891 59.207H24.0391C25.6328 59.207 26.1563 59.7344 26.3086 59.9609C26.4531 60.1797 26.4531 60.3867 26.4063 60.4961L26.2188 60.9336C25.5781 62.4258 24.6992 64.4687 25.7735 66.1016C26.5274 67.2461 27.9883 67.8008 30.25 67.8008C30.25 67.8008 41.6328 67.8008 42.9141 67.8008C43.3711 68.4727 44.1328 69.6055 44.4141 70.0195C44.4141 70.0469 44.4141 70.0742 44.4141 70.1016C44.4141 74.3555 46.8203 75.3516 48.8516 75.4336C50.711 75.5078 52.1797 74.8203 52.8789 73.5508C53.6016 72.2344 53.3711 70.5469 52.2422 68.9219C52.3008 69.0156 47.9453 61.2773 47.9453 61.2773C47.2227 59.9219 46.2735 59.6445 45.0703 59.6445C45.0391 59.6445 35.1563 59.6445 35.1563 59.6445C35.0664 59.8672 35.3594 59 35.3594 59L39.2578 52.2578C40.2461 50.5664 39.9102 49.5937 39.4453 48.6641C39.4453 48.6602 37.3828 44.9766 37.3828 44.9766C36.8008 43.9883 36.4453 43.4844 35.1719 43.3203L2.74611 43.3086C1.97658 43.3086 1.34767 43.6758 1.07033 44.2969Z" fill="#231F20"/>
<path d="M39.8633 60.9922C41.8047 61.0703 45.0703 60.9922 45.0703 60.9922C46 60.9922 46.3555 61.1563 46.7539 61.9102C47.1524 62.6602 51.1328 69.6914 51.1328 69.6914C52.8242 72.1289 51.7657 74.1992 48.9063 74.0859C45.3047 73.9375 45.8164 70.4414 45.7617 69.6055C45.7617 69.6055 44.6875 67.9922 43.6289 66.4531H30.25C24.9532 66.4531 26.7461 63.1758 27.6524 61.0117C28.1289 59.8555 27.3633 57.8594 24.0391 57.8594H14.2891C13.4727 57.8594 12.9922 57.2305 12.9922 57.2305L2.46097 45.3633C2.14065 44.9961 2.22659 44.6562 2.74612 44.6562H35C35.6875 44.7461 35.7383 44.8398 36.2188 45.6562C36.6992 46.4766 37.9024 48.5938 38.2383 49.2695C38.5782 49.9414 38.7696 50.4219 38.0938 51.5781C37.4219 52.7344 34.6797 57.4961 34.1953 58.3164C33.7149 59.1367 33.0899 60.9922 35.1563 60.9922H39.8633Z" fill="#FFD200"/>
<path d="M4.92578 48.2812H30.2578C31.1406 48.3867 30.9609 49.4961 30.2578 49.5742H6.06641" fill="#231F20"/>
<path d="M8.97266 52.8281H27.8672C28.6758 52.8281 28.5898 54.1055 27.918 54.1055H10.1133" fill="#231F20"/>
<path d="M83.7266 60.9922C81.7852 61.0703 78.5156 60.9922 78.5156 60.9922C77.5899 60.9922 77.2383 61.1563 76.8399 61.9102C76.4414 62.6602 72.4531 69.6914 72.4531 69.6914C70.7656 72.1289 71.8242 74.1992 74.6836 74.0859C78.2891 73.9375 77.7774 70.4414 77.8281 69.6055C77.8281 69.6055 78.8984 67.9922 79.9609 66.4531H93.3399C98.6367 66.4531 96.8438 63.1758 95.9414 61.0117C95.457 59.8555 96.2305 57.8594 99.5547 57.8594H109.301C110.121 57.8594 110.602 57.2305 110.602 57.2305L121.129 45.3633C121.449 44.9961 121.363 44.6562 120.844 44.6562H88.5938C87.9024 44.7461 87.8555 44.8398 87.3711 45.6562C86.8906 46.4766 85.6875 48.5938 85.3516 49.2695C85.0156 49.9414 84.8203 50.4219 85.4961 51.5781C86.1719 52.7344 88.9141 57.4961 89.3945 58.3164C89.8789 59.1367 90.5 60.9922 88.4297 60.9922H83.7266Z" fill="#FFC821"/>
<path d="M88.4297 62.3398C89.8945 62.3398 90.586 61.668 90.9063 61.1055C91.6797 59.7422 90.832 58.1016 90.5547 57.6289L86.6563 50.8984C86.3281 50.3281 86.332 50.3203 86.5547 49.8711L88.5352 46.3398C88.5469 46.3164 88.832 45.8594 88.832 45.8594C88.832 45.8594 115.129 45.9766 118.766 45.9961C115.953 49.1602 109.59 56.3359 109.59 56.3359C109.555 56.3789 109.301 56.5117 109.301 56.5117H99.5547C96.7578 56.5117 95.5235 57.7383 95.0352 58.4688C94.6563 59.0391 94.461 59.6914 94.461 60.3359C94.461 60.7461 94.5391 61.1523 94.6992 61.5312L94.8945 62C95.168 62.6367 95.6367 63.7188 95.6367 64.3164C95.6367 64.4414 95.6172 64.5469 95.5664 64.6172C95.5313 64.668 95.1953 65.1016 93.3399 65.1016H79.2461L76.4805 69.1953L76.4844 69.5195C76.4844 69.5195 76.4805 70.1055 76.4805 70.1523C76.4805 72.0703 76.0352 72.6797 74.6289 72.7344C73.8516 72.7695 73.2578 72.582 73.0742 72.25C72.8711 71.8828 73.0586 71.1758 73.5625 70.457C73.625 70.3555 78.0274 62.543 78.0274 62.543C78.0899 62.3711 78.5156 62.3398 78.5156 62.3398C78.4844 62.3398 83.7813 62.3398 83.7813 62.3398H83.7266H88.4297ZM88.5938 43.3086C87.1445 43.4844 86.7891 43.9883 86.2266 44.9492C86.207 44.9766 84.1445 48.6641 84.1445 48.6641C83.9024 49.1523 83.6953 49.6523 83.6953 50.2617C83.6953 50.8164 83.8633 51.457 84.3281 52.2578C84.332 52.2578 88.2305 58.9961 88.2305 58.9961C88.2305 59 88.3555 59.3633 88.4375 59.6133C87.9375 59.6172 83.6719 59.6445 83.6719 59.6445H78.5508C77.3125 59.6445 76.3672 59.9219 75.6485 61.2773L71.2813 69.0234C70.2188 70.5508 69.9883 72.2383 70.711 73.5508C71.4102 74.8203 72.8789 75.5078 74.7383 75.4336C76.7695 75.3516 79.1758 74.3555 79.1758 70.1016C79.1758 70.0742 79.1758 70.0469 79.1758 70.0195C79.457 69.6055 80.2227 68.4727 80.6797 67.8008C81.961 67.8008 93.3399 67.8008 93.3399 67.8008C95.6016 67.8008 97.0664 67.2461 97.8203 66.1016C98.1836 65.5469 98.3242 64.9453 98.3242 64.332C98.3242 63.1445 97.7969 61.9219 97.375 60.9375L97.1836 60.4961C97.168 60.4531 97.1563 60.4023 97.1563 60.3359C97.1563 60.2305 97.1914 60.0977 97.2813 59.9648C97.4336 59.7383 97.957 59.207 99.5547 59.207H109.301C110.746 59.207 111.582 58.168 111.672 58.0469C111.613 58.1211 122.137 46.2578 122.137 46.2578C122.664 45.6523 122.805 44.9219 122.523 44.293C122.242 43.6758 121.613 43.3086 120.844 43.3086H88.5938Z" fill="#231F20"/>
<path d="M83.7266 60.9922C81.7852 61.0703 78.5156 60.9922 78.5156 60.9922C77.5899 60.9922 77.2383 61.1563 76.8399 61.9102C76.4414 62.6602 72.4531 69.6914 72.4531 69.6914C70.7656 72.1289 71.8242 74.1992 74.6836 74.0859C78.2891 73.9375 77.7774 70.4414 77.8281 69.6055C77.8281 69.6055 78.8984 67.9922 79.9609 66.4531H93.3399C98.6367 66.4531 96.8438 63.1758 95.9414 61.0117C95.457 59.8555 96.2305 57.8594 99.5547 57.8594H109.301C110.121 57.8594 110.602 57.2305 110.602 57.2305L121.129 45.3633C121.449 44.9961 121.363 44.6562 120.844 44.6562H88.5938C87.9024 44.7461 87.8555 44.8398 87.3711 45.6562C86.8906 46.4766 85.6875 48.5938 85.3516 49.2695C85.0156 49.9414 84.8203 50.4219 85.4961 51.5781C86.1719 52.7344 88.9141 57.4961 89.3945 58.3164C89.8789 59.1367 90.5 60.9922 88.4297 60.9922H83.7266Z" fill="#FFD200"/>
<path d="M118.664 48.2812H93.3359C92.4492 48.3867 92.6289 49.4961 93.3359 49.5742H117.527" fill="#231F20"/>
<path d="M114.621 52.8281H95.7188C94.9141 52.8281 95 54.1055 95.6719 54.1055H113.477" fill="#231F20"/>
</svg>
