<svg id="svv-logo-graa-topp" data-name="svv-logo-graa-topp" xmlns="http://www.w3.org/2000/svg" viewBox="0 0 453.18 237.24"><defs><style>.cls-1{fill:#ffd520;}.cls-2{fill:#46515a;}.cls-3{fill:#ed1b2e;}.cls-4{fill:#fff;}</style></defs><title>svv-logo-graa-topp</title><path class="cls-1" d="M259.65,62.41l5.74-23.76a9.51,9.51,0,0,0-1.7-4.94c-4.42-5.7-13.37-3.36-19.18-1.71-3.73-3.15-9.22-2.08-13.42-1a1,1,0,0,1-1.2-.4.9.9,0,0,1,.27-1,5.62,5.62,0,0,0-1.89-9.9V14.51h3.56v-3h-3.56V8.13h-3v3.42h-3.55v3h3.55v5.2a5.62,5.62,0,0,0-1.79,9.95.89.89,0,0,1,.19.89.87.87,0,0,1-1.11.42c-4.16-1.12-9.83-2.14-13.56,1-5.81-1.64-14.76-4-19.18,1.71a9.54,9.54,0,0,0-1.69,4.94l5.74,23.78ZM248,35.61l.4-.06c3.82-.56,8.47-1.26,11.75.76A2.78,2.78,0,0,0,258.36,38a2.47,2.47,0,0,0-.08.72,4.09,4.09,0,0,0,.19,1.22,3.22,3.22,0,0,0-2.22.44c-1.21.85-1.83,2.89-1.5,5.19a3.69,3.69,0,0,0,2.1,2.82,3.88,3.88,0,0,0,2.81-.6,5.27,5.27,0,0,1-3.06,3,8.49,8.49,0,0,1-5.85-.25c-.57-.29-2.3-1.32-2.5-2.87a3.41,3.41,0,0,0,3.24.4,3.65,3.65,0,0,0,1.65-2.25A6.09,6.09,0,0,0,252,40.44a2.43,2.43,0,0,0-2.45-.48,2.68,2.68,0,0,0,.27-1.22,2.59,2.59,0,0,0,0-.49A2.63,2.63,0,0,0,248,36.11ZM233.23,48.16c1.88-1,2-3.77,1.63-5.63a3.48,3.48,0,0,0-1.3-2.22,3,3,0,0,0-2.23-.3,3.83,3.83,0,0,0,.3-1.36,2.26,2.26,0,0,0-.46-1.43,2.72,2.72,0,0,0-1.09-.85,2.15,2.15,0,0,1,1.06-1,13.75,13.75,0,0,1,4.72-.81,13.09,13.09,0,0,1,4.72.81,2.15,2.15,0,0,1,1.06,1,2.7,2.7,0,0,0-1.09.85,2.26,2.26,0,0,0-.46,1.43,3.85,3.85,0,0,0,.3,1.36,3,3,0,0,0-2.23.3,3.46,3.46,0,0,0-1.3,2.22c-.33,1.86-.25,4.6,1.63,5.63a3.56,3.56,0,0,0,3.34-.44A4.37,4.37,0,0,1,240.33,50a8.89,8.89,0,0,1-8.93,0,4.36,4.36,0,0,1-1.51-2.31A3.56,3.56,0,0,0,233.23,48.16Zm-16.65-5.64a3.47,3.47,0,0,0-1.3-2.22,3,3,0,0,0-2.23-.3,3.8,3.8,0,0,0,.3-1.36,2.27,2.27,0,0,0-.46-1.43,2.72,2.72,0,0,0-1.09-.85,2.15,2.15,0,0,1,1.06-1,13.73,13.73,0,0,1,4.72-.81,13.06,13.06,0,0,1,4.72.81,2.15,2.15,0,0,1,1.06,1,2.74,2.74,0,0,0-1.09.85,2.26,2.26,0,0,0-.46,1.43,3.8,3.8,0,0,0,.3,1.36,3,3,0,0,0-2.23.3,3.47,3.47,0,0,0-1.3,2.22c-.33,1.86-.25,4.6,1.63,5.64a3.56,3.56,0,0,0,3.34-.44A4.36,4.36,0,0,1,222,50a8.88,8.88,0,0,1-8.93,0,4.35,4.35,0,0,1-1.51-2.31,3.56,3.56,0,0,0,3.34.44C216.83,47.12,216.92,44.39,216.58,42.52Zm-19.38-2.1A3.22,3.22,0,0,0,195,40a4.14,4.14,0,0,0,.19-1.22,2.49,2.49,0,0,0-.09-.72,2.78,2.78,0,0,0-1.75-1.73c3.27-2,7.92-1.32,11.75-.76l.41.06v.5a2.63,2.63,0,0,0-1.81,2.14,2.59,2.59,0,0,0,0,.49,2.69,2.69,0,0,0,.27,1.22,2.43,2.43,0,0,0-2.45.48,6.08,6.08,0,0,0-1.13,5.38A3.65,3.65,0,0,0,202,48.07a3.41,3.41,0,0,0,3.24-.4c-.19,1.55-1.92,2.58-2.5,2.87a8.49,8.49,0,0,1-5.85.25,5.26,5.26,0,0,1-3.06-3,3.87,3.87,0,0,0,2.81.6,3.69,3.69,0,0,0,2.1-2.82C199,43.31,198.41,41.27,197.2,40.42Zm64.54,33a2.5,2.5,0,0,0-2.11-1.35H193.85a2.56,2.56,0,0,0-2.12,1.35,4,4,0,0,0,.65,3.46l30.13,54.64c1,1.5,2.28,4.08,4.21,4.08s3.25-2.56,4.23-4.08L261.09,76.9A4.07,4.07,0,0,0,261.74,73.44Zm-18.67,15-12.85,23.29a3.78,3.78,0,0,1-7.06-.07L210.26,88.43a4.08,4.08,0,0,1-.54-3.39l.08-.27.14-.24a3.53,3.53,0,0,1,2.95-1.77h27.6a3.42,3.42,0,0,1,3.08,2l0,.1,0,.11A4,4,0,0,1,243.07,88.48Zm-35.15,34.13c3,4.3,1.11,7.93-3.91,7.72-6.34-.24-5.43-6.39-5.53-7.87,0,0-1.88-2.84-3.74-5.55H171.2c-9.34,0-6.19-5.77-4.59-9.57.84-2-.52-5.56-6.35-5.56H143.09a3.11,3.11,0,0,1-2.28-1.11l-4.88-5.5h31.13c1.19,0,1.33-2.25-.06-2.25H133.94l-5.08-5.73H171.2a1.14,1.14,0,0,0,0-2.27H126.85l-4.54-5.12c-.59-.66-.42-1.26.49-1.26h56.75c1.11.07,1.28.32,2.14,1.76s3,5.18,3.55,6.34.93,2.05-.27,4.08-6,10.41-6.85,11.86-2,4.69,1.71,4.69h17.45c1.63,0,2.25.31,2.92,1.61S207.92,122.61,207.92,122.61ZM331.07,79.82l-4.54,5.12H282.17a1.14,1.14,0,0,0,0,2.27h42.35l-5.08,5.73H286.36c-1.39,0-1.25,2.25-.06,2.25h31.13l-4.88,5.5a3.11,3.11,0,0,1-2.28,1.11H293.11c-5.83,0-7.2,3.52-6.35,5.56,1.59,3.8,4.74,9.57-4.59,9.57H258.64c-1.86,2.7-3.74,5.55-3.74,5.55-.1,1.48.8,7.62-5.53,7.87-5,.21-6.89-3.42-3.91-7.72,0,0,7-12.38,7.72-13.7s1.29-1.61,2.92-1.61h17.45c3.67,0,2.56-3.26,1.71-4.69s-5.67-9.83-6.85-11.86-.86-2.88-.27-4.08,2.7-4.89,3.55-6.34,1-1.68,2.14-1.76h56.75C331.49,78.56,331.65,79.16,331.07,79.82Z"/><path class="cls-2" d="M261.35,64.61l6.25-25.76a10.71,10.71,0,0,0-2-6.28c-5.34-6.92-15-4.52-20.79-2.9a12.5,12.5,0,0,0-9.07-1.76h0l-1.82.28a7.77,7.77,0,0,0-3.84-10.1V16.3h3.53V9.78h-3.53V6.33h-6.6V9.78H219.9V16.3h3.56v1.78a7.77,7.77,0,0,0-3.86,10.11l-1.84-.31a12.5,12.5,0,0,0-9.07,1.76c-5.76-1.61-15.45-4-20.79,2.9a10.72,10.72,0,0,0-2,6.28l6.26,25.78ZM189.79,33.69C194.21,28,203.15,30.34,209,32c3.73-3.15,9.4-2.14,13.56-1a.87.87,0,0,0,1.11-.42.89.89,0,0,0-.19-.89,5.62,5.62,0,0,1,1.79-9.95v-5.2h-3.55v-3h3.55V8.13h3v3.42h3.56v3h-3.56V19.7a5.62,5.62,0,0,1,1.89,9.9.9.9,0,0,0-.27,1,1,1,0,0,0,1.2.4c4.2-1,9.69-2.12,13.42,1,5.81-1.65,14.76-4,19.18,1.71a9.51,9.51,0,0,1,1.7,4.94l-5.74,23.76H193.83l-5.74-23.78A9.54,9.54,0,0,1,189.79,33.69Zm39.67,4.55a2.46,2.46,0,0,1-.52,2.45c-.38.58-1.06,1.29-.84,1.93a.78.78,0,0,0,.62.51c.49.1,1-.31,1.52-.7a4,4,0,0,1,.9-.58,1.29,1.29,0,0,1,1.52.49,4.57,4.57,0,0,1,.21,3.48c-.6,1.12-1.5.68-2.59.1a3.39,3.39,0,0,0-1.45-.61c-.74,0-1,1.19-1,1.81a5.8,5.8,0,0,0,3.56,5.25,11,11,0,0,0,4.47.85,11.26,11.26,0,0,0,4.47-.85,5.8,5.8,0,0,0,3.56-5.25c0-.62-.25-1.83-1-1.81a3.38,3.38,0,0,0-1.45.61c-1.09.58-2,1-2.59-.1a4.57,4.57,0,0,1,.21-3.48,1.3,1.3,0,0,1,1.52-.49,4,4,0,0,1,.9.58c.51.39,1,.8,1.52.7a.78.78,0,0,0,.62-.51c.22-.64-.46-1.34-.84-1.93a2.46,2.46,0,0,1-.52-2.45,1.85,1.85,0,0,1,1.46-.73l.31,0a4.74,4.74,0,0,0-4.12-4.38,17.55,17.55,0,0,0-8.14,0,4.74,4.74,0,0,0-4.12,4.38l.31,0A1.85,1.85,0,0,1,229.45,38.24Zm1.69-2.87a13.75,13.75,0,0,1,4.72-.81,13.09,13.09,0,0,1,4.72.81,2.15,2.15,0,0,1,1.06,1,2.7,2.7,0,0,0-1.09.85,2.26,2.26,0,0,0-.46,1.43,3.85,3.85,0,0,0,.3,1.36,3,3,0,0,0-2.23.3,3.46,3.46,0,0,0-1.3,2.22c-.33,1.86-.25,4.6,1.63,5.63a3.56,3.56,0,0,0,3.34-.44A4.37,4.37,0,0,1,240.33,50a8.89,8.89,0,0,1-8.93,0,4.36,4.36,0,0,1-1.51-2.31,3.56,3.56,0,0,0,3.34.44c1.88-1,2-3.77,1.63-5.63a3.48,3.48,0,0,0-1.3-2.22,3,3,0,0,0-2.23-.3,3.83,3.83,0,0,0,.3-1.36,2.26,2.26,0,0,0-.46-1.43,2.72,2.72,0,0,0-1.09-.85A2.15,2.15,0,0,1,231.14,35.37ZM264,72.69l0-.12-.05-.12a4.83,4.83,0,0,0-4.26-2.73H193.85a4.94,4.94,0,0,0-4.24,2.66l-.08.15-.05.16a6.22,6.22,0,0,0,.83,5.37l30.92,55.89c.87,1.49,2.33,4,5.43,4h.11c3.15-.07,4.6-2.57,5.47-4.06L263.17,78A6.25,6.25,0,0,0,264,72.69Zm-2.89,4.2L231,131.54c-1,1.52-2.35,4.08-4.23,4.08s-3.26-2.58-4.21-4.08L192.38,76.9a4,4,0,0,1-.65-3.46,2.56,2.56,0,0,1,2.12-1.35h65.77a2.5,2.5,0,0,1,2.11,1.35A4.07,4.07,0,0,1,261.09,76.9Zm-17.48,8,0-.1a3.42,3.42,0,0,0-3.08-2h-27.6a3.53,3.53,0,0,0-2.95,1.77l-.14.24-.08.27a4.08,4.08,0,0,0,.54,3.39l12.89,23.27a3.78,3.78,0,0,0,7.06.07l12.85-23.29a4,4,0,0,0,.58-3.47Zm-2.51,2.26-12.62,22.92c-.42.64-.86,1.73-1.78,1.73s-1.38-1.08-1.76-1.73L212.26,87.16a1.73,1.73,0,0,1-.27-1.44,1.17,1.17,0,0,1,.9-.59h27.6a1,1,0,0,1,.89.59A1.66,1.66,0,0,1,241.1,87.16Zm92.43-9.22a3.1,3.1,0,0,0-3-1.75H302.94V0H150.59V76.19H122.8a3.1,3.1,0,0,0-3,1.75,2.83,2.83,0,0,0-.25,1.16,3.47,3.47,0,0,0,.95,2.29L139,102.25a5.46,5.46,0,0,0,4.05,1.91h7.49v48.15H302.94V104.16h7.34a5.47,5.47,0,0,0,4.05-1.91l18.5-20.85a3.47,3.47,0,0,0,.95-2.29A2.81,2.81,0,0,0,333.53,77.94ZM143.09,101.79a3.11,3.11,0,0,1-2.28-1.11l-4.88-5.5h31.13c1.19,0,1.33-2.25-.06-2.25H133.94l-5.08-5.73H171.2a1.14,1.14,0,0,0,0-2.27H126.85l-4.54-5.12c-.59-.66-.42-1.26.49-1.26h56.75c1.11.07,1.28.32,2.14,1.76s3,5.18,3.55,6.34.93,2.05-.27,4.08-6,10.41-6.85,11.86-2,4.69,1.71,4.69h17.45c1.63,0,2.25.31,2.92,1.61s7.72,13.7,7.72,13.7c3,4.3,1.11,7.93-3.91,7.72-6.34-.24-5.43-6.39-5.53-7.87,0,0-1.88-2.84-3.74-5.55H171.2c-9.34,0-6.19-5.77-4.59-9.57.84-2-.52-5.56-6.35-5.56Zm157.47,48.15H153V104.16h7.3c2.8,0,3.66.79,3.92,1.33a2,2,0,0,1-.07,1.69,15.93,15.93,0,0,0-1.68,6,5.53,5.53,0,0,0,.89,3.11c1.33,2,3.91,3,7.9,3h22.27l2.64,3.91s0,.09,0,.13c0,6,2.63,9.17,7.81,9.37,3.26.14,5.84-1.07,7.07-3.3s.86-5.28-1.13-8.14l-7.56-13.43c-1.24-2.41-2.9-2.9-5-2.9H179.7a4.31,4.31,0,0,1,.46-1.1l4.5-7.78,2.37-4.1a6.91,6.91,0,0,0,1.13-3.51,6.18,6.18,0,0,0-.79-2.81c-.64-1.28-2.83-5.13-3.62-6.49l0-.06c-1-1.67-2-2.78-3.86-2.87H153V2.37h147.6V76.19h-27c-1.87.1-2.86,1.2-3.86,2.87l0,.06c-.79,1.36-3,5.2-3.62,6.49a6.17,6.17,0,0,0-.79,2.81,6.9,6.9,0,0,0,1.13,3.51l2.37,4.1,4.5,7.78a4.26,4.26,0,0,1,.46,1.1H256.1c-2.12,0-3.79.49-5,2.9l-7.56,13.43c-2,2.86-2.4,5.83-1.13,8.14s3.81,3.44,7.07,3.3c5.18-.2,7.8-3.35,7.8-9.37,0,0,0-.09,0-.13l2.64-3.91h22.27c4,0,6.57-1,7.9-3a5.53,5.53,0,0,0,.89-3.11,15.93,15.93,0,0,0-1.68-6,2,2,0,0,1-.08-1.69c.26-.54,1.12-1.33,3.92-1.33h7.45Zm30.5-70.12-4.54,5.12H282.17a1.14,1.14,0,0,0,0,2.27h42.35l-5.08,5.73H286.36c-1.39,0-1.25,2.25-.06,2.25h31.13l-4.88,5.5a3.11,3.11,0,0,1-2.28,1.11H293.11c-5.83,0-7.2,3.52-6.35,5.56,1.59,3.8,4.74,9.57-4.59,9.57H258.64c-1.86,2.7-3.74,5.55-3.74,5.55-.1,1.48.8,7.62-5.53,7.87-5,.21-6.89-3.42-3.91-7.72,0,0,7-12.38,7.72-13.7s1.29-1.61,2.92-1.61h17.45c3.67,0,2.56-3.26,1.71-4.69s-5.67-9.83-6.85-11.86-.86-2.88-.27-4.08,2.7-4.89,3.55-6.34,1-1.68,2.14-1.76h56.75C331.49,78.56,331.65,79.16,331.07,79.82ZM211.17,38.24a2.46,2.46,0,0,1-.52,2.45c-.38.58-1.06,1.29-.84,1.93a.78.78,0,0,0,.62.51c.49.1,1-.31,1.52-.7a4,4,0,0,1,.9-.58,1.29,1.29,0,0,1,1.52.49,4.56,4.56,0,0,1,.21,3.48c-.6,1.12-1.5.68-2.59.1a3.37,3.37,0,0,0-1.45-.6c-.74,0-1,1.19-1,1.81a5.79,5.79,0,0,0,3.56,5.25,11,11,0,0,0,4.47.85,11.23,11.23,0,0,0,4.47-.85,5.79,5.79,0,0,0,3.56-5.25c0-.62-.25-1.83-1-1.81a3.38,3.38,0,0,0-1.45.6c-1.09.58-2,1-2.59-.1a4.58,4.58,0,0,1,.21-3.48,1.29,1.29,0,0,1,1.52-.49,3.93,3.93,0,0,1,.9.58c.51.39,1,.8,1.52.7a.78.78,0,0,0,.62-.51c.22-.64-.47-1.34-.84-1.93a2.46,2.46,0,0,1-.52-2.45,1.85,1.85,0,0,1,1.46-.73l.32,0a4.74,4.74,0,0,0-4.11-4.38,17.56,17.56,0,0,0-8.15,0,4.74,4.74,0,0,0-4.11,4.38l.31,0A1.85,1.85,0,0,1,211.17,38.24Zm1.69-2.87a13.73,13.73,0,0,1,4.72-.81,13.06,13.06,0,0,1,4.72.81,2.15,2.15,0,0,1,1.06,1,2.74,2.74,0,0,0-1.09.85,2.26,2.26,0,0,0-.46,1.43,3.8,3.8,0,0,0,.3,1.36,3,3,0,0,0-2.23.3,3.47,3.47,0,0,0-1.3,2.22c-.33,1.86-.25,4.6,1.63,5.64a3.56,3.56,0,0,0,3.34-.44A4.36,4.36,0,0,1,222,50a8.88,8.88,0,0,1-8.93,0,4.35,4.35,0,0,1-1.51-2.31,3.56,3.56,0,0,0,3.34.44c1.88-1,2-3.77,1.63-5.64a3.47,3.47,0,0,0-1.3-2.22,3,3,0,0,0-2.23-.3,3.8,3.8,0,0,0,.3-1.36,2.27,2.27,0,0,0-.46-1.43,2.72,2.72,0,0,0-1.09-.85A2.15,2.15,0,0,1,212.86,35.37Zm-7.1,15.41A5.54,5.54,0,0,0,207.05,46c-.25-1.07-1.6-.58-2.35-.14a2.2,2.2,0,0,1-1.69.51c-.42-.1-.71-.64-.78-.85a4.45,4.45,0,0,1,.35-3.58,1.12,1.12,0,0,1,1-.3,2.63,2.63,0,0,1,1.39.72c.6.48,1.46,1,2,.35s-.12-1.41-.56-2a2.86,2.86,0,0,1-.77-1.8,1.61,1.61,0,0,1,1.59-1.58h.18v-.18a10.24,10.24,0,0,1,.48-2.76,28,28,0,0,0-10.68-1.26c-3.75.38-6.06,1.86-7,4.21a8.3,8.3,0,0,1,1.79.39,1.77,1.77,0,0,1,1.14,1.68,4.35,4.35,0,0,1-.65,1.49c-.33.55-1,1.38-.66,1.9.53.86,1.37.21,2-.28a4.25,4.25,0,0,1,1.08-.63,1.25,1.25,0,0,1,1.37.39,4.28,4.28,0,0,1,.07,4c-.69.64-1.27.16-2.06-.16a8.06,8.06,0,0,0-1.58-.59c-.3-.08-.88,0-.91.95.1,2.63,1.18,4.75,3.6,5.83C198.53,53.66,203.14,53.51,205.76,50.77Zm-12-2.94a3.87,3.87,0,0,0,2.81.6,3.69,3.69,0,0,0,2.1-2.82c.34-2.3-.28-4.34-1.5-5.19A3.22,3.22,0,0,0,195,40a4.14,4.14,0,0,0,.19-1.22,2.49,2.49,0,0,0-.09-.72,2.78,2.78,0,0,0-1.75-1.73c3.27-2,7.92-1.32,11.75-.76l.41.06v.5a2.63,2.63,0,0,0-1.81,2.14,2.59,2.59,0,0,0,0,.49,2.69,2.69,0,0,0,.27,1.22,2.43,2.43,0,0,0-2.45.48,6.08,6.08,0,0,0-1.13,5.38A3.65,3.65,0,0,0,202,48.07a3.41,3.41,0,0,0,3.24-.4c-.19,1.55-1.92,2.58-2.5,2.87a8.49,8.49,0,0,1-5.85.25A5.26,5.26,0,0,1,193.79,47.83Zm52.27-10.5h.18a1.62,1.62,0,0,1,1.59,1.58,2.86,2.86,0,0,1-.77,1.8c-.44.61-1.07,1.39-.56,2s1.42.13,2-.35a2.62,2.62,0,0,1,1.39-.72,1.12,1.12,0,0,1,1,.3,4.45,4.45,0,0,1,.35,3.58c-.07.21-.37.75-.78.85a2.2,2.2,0,0,1-1.7-.51c-.75-.44-2.09-.94-2.34.14a5.54,5.54,0,0,0,1.29,4.77c2.62,2.73,7.23,2.89,10.37,1.49,2.42-1.08,3.5-3.2,3.6-5.83,0-.91-.61-1-.91-.95a8.14,8.14,0,0,0-1.58.59c-.79.33-1.37.8-2.06.16a4.28,4.28,0,0,1,.07-4,1.26,1.26,0,0,1,1.37-.39,4.25,4.25,0,0,1,1.08.63c.62.49,1.46,1.14,2,.28.32-.51-.33-1.34-.66-1.9a4.39,4.39,0,0,1-.65-1.49,1.77,1.77,0,0,1,1.14-1.68,8.31,8.31,0,0,1,1.8-.39c-.9-2.35-3.22-3.83-7-4.21a27.94,27.94,0,0,0-10.68,1.26,10.19,10.19,0,0,1,.48,2.76Zm1.9-1.72.4-.06c3.82-.56,8.47-1.26,11.75.76A2.78,2.78,0,0,0,258.36,38a2.47,2.47,0,0,0-.08.72,4.09,4.09,0,0,0,.19,1.22,3.22,3.22,0,0,0-2.22.44c-1.21.85-1.83,2.89-1.5,5.19a3.69,3.69,0,0,0,2.1,2.82,3.88,3.88,0,0,0,2.81-.6,5.27,5.27,0,0,1-3.06,3,8.49,8.49,0,0,1-5.85-.25c-.57-.29-2.3-1.32-2.5-2.87a3.41,3.41,0,0,0,3.24.4,3.65,3.65,0,0,0,1.65-2.25A6.09,6.09,0,0,0,252,40.44a2.43,2.43,0,0,0-2.45-.48,2.68,2.68,0,0,0,.27-1.22,2.59,2.59,0,0,0,0-.49A2.63,2.63,0,0,0,248,36.11Z"/><path class="cls-3" d="M241.38,85.72a1.66,1.66,0,0,1-.28,1.44l-12.62,22.92c-.42.64-.86,1.73-1.78,1.73s-1.38-1.08-1.76-1.73L212.26,87.16a1.73,1.73,0,0,1-.27-1.44,1.17,1.17,0,0,1,.9-.59h27.6A1,1,0,0,1,241.38,85.72ZM266,85.61a6.17,6.17,0,0,0-.79,2.81,6.9,6.9,0,0,0,1.13,3.51l2.37,4.1,4.5,7.78a4.26,4.26,0,0,1,.46,1.1H256.1c-2.12,0-3.79.49-5,2.9l-7.56,13.43c-2,2.86-2.4,5.83-1.13,8.14s3.81,3.44,7.07,3.3c5.18-.2,7.8-3.35,7.8-9.37,0,0,0-.09,0-.13l2.64-3.91h22.27c4,0,6.57-1,7.9-3a5.53,5.53,0,0,0,.89-3.11,15.93,15.93,0,0,0-1.68-6,2,2,0,0,1-.08-1.69c.26-.54,1.12-1.33,3.92-1.33h7.45v45.78H153V104.16h7.3c2.8,0,3.66.79,3.92,1.33a2,2,0,0,1-.07,1.69,15.93,15.93,0,0,0-1.68,6,5.53,5.53,0,0,0,.89,3.11c1.33,2,3.91,3,7.9,3h22.27l2.64,3.91s0,.09,0,.13c0,6,2.63,9.17,7.81,9.37,3.26.14,5.84-1.07,7.07-3.3s.86-5.28-1.13-8.14l-7.56-13.43c-1.24-2.41-2.9-2.9-5-2.9H179.7a4.31,4.31,0,0,1,.46-1.1l4.5-7.78,2.37-4.1a6.91,6.91,0,0,0,1.13-3.51,6.18,6.18,0,0,0-.79-2.81c-.64-1.28-2.83-5.13-3.62-6.49l0-.06c-1-1.67-2-2.78-3.86-2.87H153V2.37h147.6V76.19h-27c-1.87.1-2.86,1.2-3.86,2.87l0,.06C268.84,80.48,266.65,84.32,266,85.61Zm-2-12.92,0-.12-.05-.12a4.83,4.83,0,0,0-4.26-2.73H193.85a4.94,4.94,0,0,0-4.24,2.66l-.08.15-.05.16a6.22,6.22,0,0,0,.83,5.37l30.92,55.89c.87,1.49,2.33,4,5.43,4h.11c3.15-.07,4.6-2.57,5.47-4.06L263.17,78A6.25,6.25,0,0,0,264,72.69Zm3.62-33.84a10.71,10.71,0,0,0-2-6.28c-5.34-6.92-15-4.52-20.79-2.9a12.5,12.5,0,0,0-9.07-1.76h0l-1.82.28a7.77,7.77,0,0,0-3.84-10.1V16.3h3.53V9.78h-3.53V6.33h-6.6V9.78H219.9V16.3h3.56v1.78a7.77,7.77,0,0,0-3.86,10.11l-1.84-.31a12.5,12.5,0,0,0-9.07,1.76c-5.76-1.61-15.45-4-20.79,2.9a10.72,10.72,0,0,0-2,6.28l6.26,25.78h69.22Zm-74.28-2.54A2.78,2.78,0,0,1,195.08,38a2.49,2.49,0,0,1,.09.72A4.14,4.14,0,0,1,195,40a3.22,3.22,0,0,1,2.22.44c1.21.85,1.83,2.89,1.5,5.19a3.69,3.69,0,0,1-2.1,2.82,3.87,3.87,0,0,1-2.81-.6,5.26,5.26,0,0,0,3.06,3,8.49,8.49,0,0,0,5.85-.25c.58-.29,2.31-1.32,2.5-2.87a3.41,3.41,0,0,1-3.24.4,3.65,3.65,0,0,1-1.65-2.25,6.08,6.08,0,0,1,1.13-5.38,2.43,2.43,0,0,1,2.45-.48,2.69,2.69,0,0,1-.27-1.22,2.59,2.59,0,0,1,0-.49,2.63,2.63,0,0,1,1.81-2.14v-.5l-.41-.06C201.25,35,196.6,34.29,193.33,36.31Zm66.79,0c-3.27-2-7.92-1.32-11.75-.76l-.4.06v.5a2.63,2.63,0,0,1,1.81,2.14,2.59,2.59,0,0,1,0,.49,2.68,2.68,0,0,1-.27,1.22,2.43,2.43,0,0,1,2.45.48,6.09,6.09,0,0,1,1.13,5.38,3.65,3.65,0,0,1-1.65,2.25,3.41,3.41,0,0,1-3.24-.4c.19,1.55,1.92,2.58,2.5,2.87a8.49,8.49,0,0,0,5.85.25,5.27,5.27,0,0,0,3.06-3,3.88,3.88,0,0,1-2.81.6,3.69,3.69,0,0,1-2.1-2.82c-.34-2.3.29-4.34,1.5-5.19a3.22,3.22,0,0,1,2.22-.44,4.09,4.09,0,0,1-.19-1.22,2.47,2.47,0,0,1,.08-.72A2.78,2.78,0,0,1,260.11,36.31Zm-39.9,11.84c-1.88-1-2-3.77-1.63-5.64a3.47,3.47,0,0,1,1.3-2.22,3,3,0,0,1,2.23-.3,3.8,3.8,0,0,1-.3-1.36,2.26,2.26,0,0,1,.46-1.43,2.74,2.74,0,0,1,1.09-.85,2.15,2.15,0,0,0-1.06-1,13.06,13.06,0,0,0-4.72-.81,13.73,13.73,0,0,0-4.72.81,2.15,2.15,0,0,0-1.06,1,2.72,2.72,0,0,1,1.09.85,2.27,2.27,0,0,1,.46,1.43,3.8,3.8,0,0,1-.3,1.36,3,3,0,0,1,2.23.3,3.47,3.47,0,0,1,1.3,2.22c.33,1.86.25,4.6-1.63,5.64a3.56,3.56,0,0,1-3.34-.44A4.35,4.35,0,0,0,213.12,50,8.88,8.88,0,0,0,222,50a4.36,4.36,0,0,0,1.51-2.31A3.56,3.56,0,0,1,220.21,48.16Zm18.28,0c-1.88-1-2-3.77-1.63-5.63a3.46,3.46,0,0,1,1.3-2.22,3,3,0,0,1,2.23-.3,3.85,3.85,0,0,1-.3-1.36,2.26,2.26,0,0,1,.46-1.43,2.7,2.7,0,0,1,1.09-.85,2.15,2.15,0,0,0-1.06-1,13.09,13.09,0,0,0-4.72-.81,13.75,13.75,0,0,0-4.72.81,2.15,2.15,0,0,0-1.06,1,2.72,2.72,0,0,1,1.09.85,2.26,2.26,0,0,1,.46,1.43,3.83,3.83,0,0,1-.3,1.36,3,3,0,0,1,2.23.3,3.48,3.48,0,0,1,1.3,2.22c.33,1.86.25,4.6-1.63,5.63a3.56,3.56,0,0,1-3.34-.44A4.36,4.36,0,0,0,231.4,50a8.89,8.89,0,0,0,8.93,0,4.37,4.37,0,0,0,1.51-2.31A3.56,3.56,0,0,1,238.49,48.16Z"/><path class="cls-4" d="M1.15,217.37a20.68,20.68,0,0,0,9.7,2.31c3,0,5.79-.61,5.79-3.42C16.63,209.72,0,213.83,0,201c0-8.48,8.28-10.79,15.35-10.79a29.81,29.81,0,0,1,9.05,1.3l-.61,7.28A18.44,18.44,0,0,0,16,197.19c-2.36,0-6.31.19-6.31,3.29,0,5.69,16.66,1.85,16.66,14.57,0,9.13-7.65,11.6-15.48,11.6a37.55,37.55,0,0,1-10.49-1.5l.8-7.78"/><path class="cls-4" d="M29.11,199.77h5.33v-5.9l8.93-2.77v8.67h6.38v6.36H43.37v9.67c0,3.2.79,4.8,3.64,4.8a16.7,16.7,0,0,0,2.77-.34l.31,5.89a40.6,40.6,0,0,1-5.69.51c-8.12,0-10.09-3.58-10.09-9.81V206.12h-5.2v-6.36"/><path class="cls-4" d="M71,226c-.06-1.4-.2-2.76-.2-4.12h-.09c-2.08,3.27-4.59,4.73-8.32,4.73-5.2,0-9.83-2.57-9.83-8.27,0-8,8.73-9,13.56-9a27.75,27.75,0,0,1,4.26.37c-.08-3.59-2.74-4.55-6-4.55a16.92,16.92,0,0,0-8.34,2L55.84,201a27.19,27.19,0,0,1,10.5-1.87c6.7,0,12.48,2.87,12.48,10.9v9.78a32.55,32.55,0,0,0,.52,6.2H71m-6.25-5.45c3.42,0,5.62-3.12,5.62-6.2-1.17-.07-2.5-.15-3.84-.15-3.1,0-5.51.95-5.51,3.47C61,219.53,62.66,220.59,64.77,220.59Z"/><path class="cls-4" d="M82.31,199.77h5.34v-5.9l9-2.77v8.67h6.34v6.36H96.61v9.67c0,3.2.74,4.8,3.62,4.8a16.73,16.73,0,0,0,2.77-.34l.3,5.89a40.22,40.22,0,0,1-5.66.51c-8.14,0-10.09-3.58-10.09-9.81V206.12H82.31v-6.36"/><path class="cls-4" d="M115,215.56c.48,3.63,3.27,5,7.72,5a17,17,0,0,0,8-2V225a26.58,26.58,0,0,1-9.64,1.66c-8.66,0-15.29-5.1-15.29-13.78s5.91-13.71,14.09-13.71c9.73,0,13.27,6.91,13.27,14.73v1.67H115m10-5.15c0-3-1.39-5.5-5-5.5-3.28,0-4.85,2.46-5,5.5Z"/><path class="cls-4" d="M137.85,199.77h8.28v4.84h.1c1.83-3.79,5.45-5.45,9.58-5.45,7.18,0,10.05,5.05,10.05,10.49V226h-9.09V213.33c0-4.94-1.71-6.61-4.19-6.61-3.73,0-5.64,2.59-5.64,8.24V226h-9.09V199.77"/><path class="cls-4" d="M171,218.79a22.88,22.88,0,0,0,8.52,1.8c1.87,0,3.7-.3,3.7-2.12,0-4.42-12.94-1.3-12.94-10.8,0-6,6-8.52,11.2-8.52a24.76,24.76,0,0,1,9.24,1.52L190,207A14.65,14.65,0,0,0,183,205.2c-2,0-4.18.36-4.18,1.82,0,4.07,13.52.87,13.52,10.85,0,7-6.31,8.77-12.27,8.77a29.79,29.79,0,0,1-9.55-1.27l.52-6.59"/><polyline class="cls-4" points="209.85 199.77 219.58 199.77 225.04 218.47 225.13 218.47 230.63 199.77 239.66 199.77 229.92 226.04 219.58 226.04 209.85 199.77"/><path class="cls-4" d="M250.9,215.56c.51,3.63,3.3,5,7.72,5a17,17,0,0,0,8-2V225a26.52,26.52,0,0,1-9.62,1.66c-8.7,0-15.28-5.1-15.28-13.78s5.87-13.71,14.05-13.71c9.74,0,13.28,6.91,13.28,14.73v1.67H250.9m10-5.15c0-3-1.42-5.5-5-5.5-3.28,0-4.84,2.46-5,5.5Z"/><path class="cls-4" d="M301.66,223c0,10.81-5.22,14.29-15.82,14.29a31.5,31.5,0,0,1-10.06-1.65l.48-7.17a17.77,17.77,0,0,0,8.87,2.16c5.23,0,8-2.47,8-7.63v-1.41h-.06a10.31,10.31,0,0,1-8.84,4.49c-7.23,0-11.7-5.45-11.7-13.2s3.7-13.68,11.85-13.68a10.22,10.22,0,0,1,8.92,5.35h.11v-4.74h8.21V223m-14.57-3.88c3.23,0,5.79-2.71,5.79-6.73,0-2.94-1.7-6.21-5.79-6.21-3.38,0-5.15,3-5.15,6.56C281.94,216.76,284.34,219.07,287.09,219.07Z"/><polyline class="cls-4" points="305.19 199.77 314.91 199.77 320.38 218.47 320.49 218.47 326 199.77 335 199.77 325.28 226.04 314.91 226.04 305.19 199.77"/><path class="cls-4" d="M346.23,215.56c.52,3.63,3.3,5,7.76,5a16.88,16.88,0,0,0,8-2V225a26.36,26.36,0,0,1-9.62,1.66c-8.66,0-15.3-5.1-15.3-13.78s5.93-13.71,14.1-13.71c9.72,0,13.26,6.91,13.26,14.73v1.67H346.23m10-5.15c0-3-1.42-5.5-5.07-5.5-3.3,0-4.82,2.46-5.06,5.5Z"/><path class="cls-4" d="M368.67,218.79a22.58,22.58,0,0,0,8.52,1.8c1.86,0,3.67-.3,3.67-2.12,0-4.42-12.91-1.3-12.91-10.8,0-6,5.93-8.52,11.2-8.52a24.81,24.81,0,0,1,9.23,1.52l-.74,6.3a14.53,14.53,0,0,0-7-1.77c-2,0-4.21.36-4.21,1.82,0,4.07,13.53.87,13.53,10.85,0,7-6.29,8.77-12.25,8.77a29.62,29.62,0,0,1-9.53-1.27l.52-6.59"/><path class="cls-4" d="M402.3,215.56c.51,3.63,3.28,5,7.69,5a17,17,0,0,0,8-2V225a26.31,26.31,0,0,1-9.62,1.66c-8.64,0-15.28-5.1-15.28-13.78s5.91-13.71,14.06-13.71c9.76,0,13.29,6.91,13.29,14.73v1.67H402.3m10-5.15c0-3-1.42-5.5-5-5.5-3.3,0-4.87,2.46-5.07,5.5Z"/><path class="cls-4" d="M425.19,199.77h8.29v4.84h.1c1.81-3.79,5.44-5.45,9.59-5.45,7.16,0,10,5.05,10,10.49V226h-9.07V213.33c0-4.94-1.7-6.61-4.17-6.61-3.75,0-5.63,2.59-5.63,8.24V226h-9.12V199.77"/></svg>
