<svg width="1206" height="1206" viewBox="0 0 1206 1206" fill="none" xmlns="http://www.w3.org/2000/svg">
<path d="M594.52 0H612.48C623.29 1.03 634.2 0.21 645.01 1.49C655.21 2.9 665.54 3.1 675.74 4.52C693.64 7.14 711.6 9.48 729.24 13.59C734.52 14.87 739.96 15.45 745.2 16.97C757.3 20.63 769.7 23.26 781.7 27.28C795.58 31.98 809.69 36.06 823.16 41.88C831.61 45.37 840.39 48.08 848.48 52.4C865.33 59.79 881.71 68.17 897.78 77.11C908.4 82.57 918.21 89.41 928.47 95.5C941.12 103.32 952.97 112.32 965.14 120.86C977.2 130.43 989.6 139.63 1000.87 150.15C1012.29 160.03 1023.2 170.45 1033.72 181.28C1042.16 189.22 1049.42 198.26 1057.2 206.82C1066.14 216.62 1074.14 227.23 1082.38 237.62C1089.1 245.73 1094.67 254.68 1100.87 263.17C1108.91 274.08 1115.48 285.94 1122.57 297.46C1127 304.17 1130.37 311.49 1134.43 318.42C1137.18 324.85 1141.36 330.53 1143.98 337.01C1146.11 341.84 1148.64 346.48 1150.63 351.38C1152.88 357.05 1156.21 362.25 1158.07 368.09C1163.57 382.03 1169.78 395.7 1174 410.11C1175.91 416.14 1177.82 422.16 1179.99 428.11C1186.23 449.79 1191.47 471.75 1195.97 493.86C1205.31 547.14 1208.1 601.63 1203.39 655.54C1202.52 663.58 1202.45 671.7 1200.83 679.65C1195.29 724.47 1184.08 768.48 1168.92 810.99C1155.65 845.53 1140.25 879.34 1121.07 911.02C1110.42 929.05 1098.85 946.5 1086.28 963.26C1076.21 976.15 1066.42 989.3 1055.28 1001.31C1048.05 1009.4 1041.24 1017.89 1033.04 1025.04C1020.25 1039.3 1005.51 1051.54 991.2 1064.21C974.96 1077.46 958.42 1090.42 940.92 1101.99C934.69 1106.9 927.88 1110.97 921.11 1115.08C912.98 1119.56 905.63 1125.36 897.15 1129.24C869.24 1144.75 840.07 1157.87 810.23 1169.22C801.56 1172.25 792.78 1174.98 784.08 1177.94C772.62 1181.85 760.77 1184.42 749.19 1187.93C741.19 1190.41 732.85 1191.46 724.74 1193.45C710.36 1196.61 695.79 1198.62 681.22 1200.6C670.1 1202.65 658.73 1202.6 647.55 1204.26C635.91 1205.8 624.14 1204.96 612.48 1206H596.51C586.36 1205.03 576.13 1205.85 565.98 1204.88C552.95 1203.84 539.96 1202.52 526.98 1200.98C513.57 1198.82 499.99 1197.6 486.75 1194.48C476.36 1192.12 465.76 1190.65 455.56 1187.51C445.57 1184.75 435.47 1182.37 425.59 1179.21C414.71 1175.41 403.67 1172.08 392.85 1168.11C384.87 1164.8 376.78 1161.74 368.83 1158.34C361.95 1156.16 355.81 1152.29 349.09 1149.72C340.83 1145.65 332.19 1142.33 324.23 1137.67C314.57 1131.95 304.15 1127.55 294.87 1121.18C286.76 1116.25 278.79 1111.09 270.6 1106.29C262.81 1100.39 254.76 1094.83 246.68 1089.34C235.57 1081.16 225.05 1072.23 214.1 1063.85C206.02 1056.27 197.57 1049.1 189.33 1041.69C175.69 1028.31 162.12 1014.85 149.68 1000.33C139.45 989.47 130.73 977.33 121.24 965.85C111.41 951.62 100.88 937.84 92.09 922.91C81.4 906.78 72.58 889.55 63.56 872.47C59.76 864.21 55.7 856.09 52.1 847.75C47.45 838.96 44.64 829.4 40.74 820.29C34.67 805.55 30.09 790.26 24.93 775.2C23.62 770.92 22.74 766.54 21.62 762.22C14.43 737.34 9.7 711.82 5.86 686.24C3.78 674.48 3.13 662.55 2.12 650.67C0.11 637.69 1.06 624.51 0 611.47V594.52C1.05 585.43 0.08 576.24 1.12 567.16C2.05 555.65 3 544.14 3.85 532.63C5.68 523.28 6.75 513.8 8.22 504.39C10.11 491.45 13.49 478.81 15.8 465.95C17.73 457.32 20.41 448.87 22.45 440.26C25.87 426.08 31.27 412.51 35.72 398.65C39.51 388.23 43.98 378.06 47.74 367.62C56.37 348.93 64.54 329.97 75.1 312.24C81.51 298.74 90.24 286.57 97.8 273.72C103.91 264.26 110.94 255.42 116.98 245.91C125.47 234.5 134.53 223.53 143.53 212.52C150.49 204.82 157.36 197.03 164.33 189.34C172.85 180.85 181.32 172.31 189.86 163.85C198.68 156.01 207.34 147.98 216.31 140.31C228.24 131.22 239.31 120.96 252.07 113C260.66 106.87 269.06 100.44 278.19 95.11C291.2 86.99 304.08 78.57 317.91 71.85C325.88 67.23 334.13 63.1 342.58 59.43C354.1 53.74 365.73 48.19 377.85 43.85C385.8 40.78 393.57 37.23 401.73 34.73C418.02 29.42 434.22 23.77 450.88 19.77C487.66 9.7 525.57 4.31 563.55 1.39C573.83 0.03 584.23 1.08 594.52 0ZM576.45 151.61C564.51 153 552.4 152.87 540.58 155.33C529.18 156.95 517.74 158.42 506.58 161.36C484.04 166.05 461.98 172.95 440.54 181.29C433.04 183.48 426.13 187.17 418.89 190.04C410.13 194.13 401.2 197.86 392.87 202.81C377.79 210.31 363.67 219.5 349.42 228.42C344.2 232.57 338.53 236.1 333.38 240.34C322.59 247.71 312.98 256.61 302.84 264.83C292.82 274.47 282.19 283.52 273.01 294C269.56 297.88 265.91 301.57 262.42 305.42C255.72 312.77 249.99 320.94 243.52 328.48C240.55 331.97 237.96 335.76 235.56 339.65C230.43 347.18 224.47 354.19 220.28 362.32C212.64 374.33 205.5 386.67 199.45 399.57C192.5 412.66 186.71 426.33 180.99 439.99C177.46 451.29 172.61 462.17 169.74 473.67C167.71 481.27 165.37 488.78 163.36 496.37C161.15 508.27 158.28 520.05 156.41 532.02C155.48 539.81 154.41 547.59 153.21 555.35C151.98 561.12 152.75 567.08 151.81 572.89C150.79 585.57 151.16 598.29 151.09 611C150.95 620.34 151.61 629.66 152.47 638.96C152.4 647.03 154 654.98 154.95 662.97C155.99 671.91 157.33 680.83 159.29 689.63C161.74 700.15 163.06 710.96 166.69 721.17C169.46 731.5 172.35 741.82 176.11 751.84C178.94 759.11 180.86 766.72 184.28 773.76C189.55 786.47 195.45 798.88 201.8 811.08C207.92 824.75 216.55 837.05 224.03 849.97C231.58 860.11 238.01 871.1 246.31 880.68C252.99 889.27 259.64 897.93 267.25 905.74C273.24 912.08 278.82 918.83 285.33 924.68C294.73 933.29 303.55 942.59 313.9 950.12C325.12 960.41 337.86 968.8 349.97 977.98C358.39 983.21 366.92 988.27 375.2 993.73C382.78 997.97 390.52 1001.91 398.2 1005.96C403.61 1009.56 409.91 1011.35 415.61 1014.41C424.75 1018.45 433.78 1022.81 443.35 1025.78C455.24 1030.34 467.2 1034.73 479.59 1037.72C490.1 1041.52 501.18 1043.27 512.01 1045.9C524.34 1048.93 537.07 1049.69 549.49 1052.26C556.68 1052.48 563.8 1053.58 571 1053.79C580.27 1055.12 589.66 1054.45 598.99 1054.8C613.33 1055.27 627.64 1054.13 641.95 1053.53C655.64 1051.56 669.54 1050.99 683.06 1047.92C744.65 1036.9 803.84 1012.76 855.69 977.75C862.69 973.16 869.68 968.49 876.1 963.09C884.45 956.83 892.77 950.52 900.39 943.39C907.16 937.15 914.36 931.4 920.66 924.67C926.98 917.98 934.03 911.96 939.67 904.66C950.3 892.17 961.22 879.86 970.28 866.14C976.76 857.81 982.08 848.66 987.97 839.91C992.04 834.39 994.63 827.98 998.33 822.22C1004.61 810.9 1010.26 799.23 1015.57 787.43C1019.47 779.99 1021.8 771.87 1025.15 764.19C1029.97 753 1033.03 741.2 1036.85 729.66C1039.83 722.14 1040.72 714.02 1043.06 706.31C1048.31 683.58 1052.08 660.51 1053.58 637.23C1054.99 626.21 1054.04 615.06 1054.94 604.01C1054.19 591.33 1054.8 578.59 1053.53 565.94C1052.22 555.48 1051.94 544.88 1049.68 534.56C1047.87 523.86 1046.39 513.09 1043.58 502.58C1041.2 494.14 1040.29 485.31 1037.12 477.09C1033.56 466.86 1031.24 456.19 1026.87 446.25C1023.09 436.49 1019.83 426.49 1014.87 417.24C1008.95 403.31 1001.96 389.88 994.31 376.83C992.05 372.48 989.76 368.13 986.79 364.21C979.72 353.37 972.75 342.45 964.76 332.25C957.73 322.09 949.49 312.89 941.6 303.41C933.3 293.41 923.71 284.61 914.66 275.32C906.92 268.4 899.22 261.43 891.37 254.63C881.72 247.32 872.34 239.65 862.45 232.66C853.98 227.47 846.15 221.27 837.34 216.63C830.5 212.41 823.52 208.44 816.58 204.41C807.08 199.99 797.88 194.95 788.35 190.59C767.84 181.72 746.88 173.83 725.38 167.71C719.29 166.22 713.16 164.92 707.19 163.02C695.65 160.07 683.82 158.48 672.18 155.95C662.8 154.7 653.3 154.19 643.97 152.57C632.97 151.97 621.97 151.45 610.99 150.71C599.47 150.84 587.96 151.34 576.45 151.61Z" fill="#DD1800"/>
<path d="M576.45 151.61C587.96 151.34 599.47 150.84 610.99 150.71C621.97 151.45 632.97 151.97 643.97 152.57C653.3 154.19 662.8 154.7 672.18 155.95C683.82 158.48 695.65 160.07 707.19 163.02C713.16 164.92 719.29 166.22 725.38 167.71C746.88 173.83 767.84 181.72 788.35 190.59C797.88 194.95 807.08 199.99 816.58 204.41C823.52 208.44 830.5 212.41 837.34 216.63C846.15 221.27 853.98 227.47 862.45 232.66C872.34 239.65 881.72 247.32 891.37 254.63C899.22 261.43 906.92 268.4 914.66 275.32C923.71 284.61 933.3 293.41 941.6 303.41C949.49 312.89 957.73 322.09 964.76 332.25C972.75 342.45 979.72 353.37 986.79 364.21C989.76 368.13 992.05 372.48 994.31 376.83C1001.96 389.88 1008.95 403.31 1014.87 417.24C1019.83 426.49 1023.09 436.49 1026.87 446.25C1031.24 456.19 1033.56 466.86 1037.12 477.09C1040.29 485.31 1041.2 494.14 1043.58 502.58C1046.39 513.09 1047.87 523.86 1049.68 534.56C1051.94 544.88 1052.22 555.48 1053.53 565.94C1054.8 578.59 1054.19 591.33 1054.94 604.01C1054.04 615.06 1054.99 626.21 1053.58 637.23C1052.08 660.51 1048.31 683.58 1043.06 706.31C1040.72 714.02 1039.83 722.14 1036.85 729.66C1033.03 741.2 1029.97 753 1025.15 764.19C1021.8 771.87 1019.47 779.99 1015.57 787.43C1010.26 799.23 1004.61 810.9 998.33 822.22C994.63 827.98 992.04 834.39 987.97 839.91C982.08 848.66 976.76 857.81 970.28 866.14C961.22 879.86 950.3 892.17 939.67 904.66C934.03 911.96 926.98 917.98 920.66 924.67C914.36 931.4 907.16 937.15 900.39 943.39C892.77 950.52 884.45 956.83 876.1 963.09C869.68 968.49 862.69 973.16 855.69 977.75C803.84 1012.76 744.65 1036.9 683.06 1047.92C669.54 1050.99 655.64 1051.56 641.95 1053.53C627.64 1054.13 613.33 1055.27 598.99 1054.8C589.66 1054.45 580.27 1055.12 571 1053.79C563.8 1053.58 556.68 1052.48 549.49 1052.26C537.07 1049.69 524.34 1048.93 512.01 1045.9C501.18 1043.27 490.1 1041.52 479.59 1037.72C467.2 1034.73 455.24 1030.34 443.35 1025.78C433.78 1022.81 424.75 1018.45 415.61 1014.41C409.91 1011.35 403.61 1009.56 398.2 1005.96C390.52 1001.91 382.78 997.97 375.2 993.73C366.92 988.27 358.39 983.21 349.97 977.98C337.86 968.8 325.12 960.41 313.9 950.12C303.55 942.59 294.73 933.29 285.33 924.68C278.82 918.83 273.24 912.08 267.25 905.74C259.64 897.93 252.99 889.27 246.31 880.68C238.01 871.1 231.58 860.11 224.03 849.97C216.55 837.05 207.92 824.75 201.8 811.08C195.45 798.88 189.55 786.47 184.28 773.76C180.86 766.72 178.94 759.11 176.11 751.84C172.35 741.82 169.46 731.5 166.69 721.17C163.06 710.96 161.74 700.15 159.29 689.63C157.33 680.83 155.99 671.91 154.95 662.97C154 654.98 152.4 647.03 152.47 638.96C151.61 629.66 150.95 620.34 151.09 611C151.16 598.29 150.79 585.57 151.81 572.89C152.75 567.08 151.98 561.12 153.21 555.35C154.41 547.59 155.48 539.81 156.41 532.02C158.28 520.05 161.15 508.27 163.36 496.37C165.37 488.78 167.71 481.27 169.74 473.67C172.61 462.17 177.46 451.29 180.99 439.99C186.71 426.33 192.5 412.66 199.45 399.57C205.5 386.67 212.64 374.33 220.28 362.32C224.47 354.19 230.43 347.18 235.56 339.65C237.96 335.76 240.55 331.97 243.52 328.48C249.99 320.94 255.72 312.77 262.42 305.42C265.91 301.57 269.56 297.88 273.01 294C282.19 283.52 292.82 274.47 302.84 264.83C312.98 256.61 322.59 247.71 333.38 240.34C338.53 236.1 344.2 232.57 349.42 228.42C363.67 219.5 377.79 210.31 392.87 202.81C401.2 197.86 410.13 194.13 418.89 190.04C426.13 187.17 433.04 183.48 440.54 181.29C461.98 172.95 484.04 166.05 506.58 161.36C517.74 158.42 529.18 156.95 540.58 155.33C552.4 152.87 564.51 153 576.45 151.61ZM794.5 320.7C788.84 321.51 783.04 321.58 777.57 323.38C769.88 325.65 761.89 327.09 754.67 330.67C749.06 333.41 742.93 335.17 737.79 338.79C731.25 343.27 724.53 347.5 718.09 352.11C711.28 358.3 704.49 364.51 697.86 370.89C692.13 377.5 686.6 384.29 680.99 391C671.64 404.41 663.39 418.58 656.3 433.31C653.06 441.06 648.98 448.49 646.8 456.64C644.17 466.07 640.73 475.29 638.78 484.91C636.51 495.76 633.36 506.45 632.33 517.53C628.88 538.9 627.8 560.53 625.69 582.05C625.68 598.02 625.03 614.01 625.4 629.98C627.15 648.3 627.34 666.81 630.69 684.95C632.1 694.01 633.44 703.09 634.9 712.16C637.59 729.25 642.95 745.86 650.62 761.38C657.44 776.88 665.61 791.8 675.31 805.7C680.16 813.91 687.53 820.14 693.67 827.34C698.8 832.89 704.99 837.32 710.64 842.33C717.19 848.35 725.13 852.52 732.41 857.56C738.91 862.21 746.57 864.76 753.65 868.35C759.29 871.4 765.74 872.26 771.83 874.06C782.23 877.3 793.24 877.23 804 878.25C813.81 877.03 823.92 877.57 833.42 874.52C838.68 873.16 844 871.99 849.17 870.31C853.82 868.31 858.39 866.1 862.99 863.98C872.68 859.94 880.84 853.17 889.72 847.7C896.84 842.21 903.54 836.19 910.4 830.39C916.25 824.23 921.98 817.95 927.67 811.65C937.87 797.08 947.41 781.94 954.66 765.66C958.82 756.88 962.73 747.95 965.77 738.71C969.87 727.74 971.38 716.05 973.36 704.57C975.01 693.69 976.92 682.85 978.58 671.98C979.59 657.6 980.62 643.23 981.65 628.86C981.95 614.57 981.51 600.28 981.65 585.99C981.79 579.99 980.62 574.07 980.34 568.09C978.8 552.39 978 536.6 975.26 521.05C973.69 507.32 970.27 493.93 967.47 480.42C965.26 472.1 962.53 463.93 960.17 455.66C958.34 448.76 954.83 442.49 952.12 435.93C949.52 429.46 945.87 423.5 942.65 417.34C938.29 408.68 932.5 400.88 927.29 392.73C921.81 385.59 915.9 378.78 910.22 371.8C905.16 366.52 899.55 361.79 894.26 356.75C887.69 350.04 879.22 345.76 871.62 340.38C865.44 335.65 857.92 333.35 850.96 330.07C844.75 327.01 837.85 325.87 831.29 323.82C824.46 321.49 817.18 321.4 810.1 320.4C804.91 319.4 799.67 319.95 794.5 320.7ZM381.57 324.36C374.62 325.09 368.13 327.83 361.43 329.61C351.32 332.12 342.43 337.77 333.07 342.14C326.05 346.64 319.42 351.77 312.67 356.67C305.49 363.49 298.78 370.79 291.81 377.82C287.06 383.76 282.62 389.95 277.99 395.99C271.81 403.56 267.84 412.58 262.86 420.92C257.89 428.9 255.05 437.91 251.35 446.49C246.25 457.45 244.26 469.46 240.81 480.98C235.08 506.72 230.73 532.76 227.38 558.92C226.47 577.27 223.93 595.58 224.65 613.99C224.93 625.02 224.83 636.07 225.42 647.08C227.63 665.2 228.43 683.53 232.36 701.39C233.74 708.69 234.95 716.04 236.65 723.27C239.89 733.72 243.19 744.15 246.47 754.59C250.43 763.82 254.86 772.85 258.99 782.01C262.23 789.66 267.31 796.32 271.5 803.45C274.21 808.27 278.21 812.13 281.65 816.4C285.24 820.43 288.39 824.9 292.56 828.4C297.57 832.74 302.32 837.39 307.41 841.65C313.22 845.84 319.19 849.81 325.05 853.92C329.89 856.95 335.23 859.08 340.3 861.7C349.73 866.8 360.23 869.33 370.29 872.84C380.5 874.4 390.8 875.39 401.06 876.61C411.7 876.68 422.33 875.91 432.97 875.59C442.05 874.12 450.97 871.74 460.02 870.09C466.33 869.11 472.06 866.16 478.07 864.15C487.86 861.01 496.62 855.45 505.65 850.66C513.62 844.67 522.27 839.44 529.14 832.15C533.79 827.47 538.96 823.26 542.86 817.89C547.59 811.57 553.1 805.77 556.71 798.68C559.94 792.59 564.24 786.98 566.27 780.31C569.93 770.06 573.64 759.83 577.28 749.58C579.87 737.42 582.39 725.24 584.9 713.06C585.9 701.71 586.35 690.3 587.3 678.94C588 673.07 585.99 667.39 585.19 661.65C583.1 652.47 582.48 642.92 579.1 634.07C577.02 627.75 574.78 621.48 572.68 615.17C569.12 603.14 562.22 592.51 556.8 581.28C553.12 572.83 546.47 566.27 541.17 558.87C536.27 553.12 530.62 548.05 525.33 542.67C519.36 537.94 513.11 533.55 506.93 529.11C499.77 525.44 492.44 522.1 485.16 518.69C477.29 516.12 469.24 514.09 461.29 511.8C448.6 510.18 435.83 508.7 423.02 509.64C414.85 509.31 406.93 511.35 398.99 512.91C390.22 514.08 382.31 518.29 373.98 520.99C364.29 525.04 355.34 530.66 346.9 536.87C343.74 539.3 340.95 542.19 337.58 544.33C339.1 528.37 343.26 512.81 347.61 497.42C351.83 484.48 356.12 471.49 362.35 459.37C366.72 453.12 370.21 446.12 376.09 441.09C381.08 435.65 386.65 430.86 392.87 426.9C398.5 422.15 405.71 420.26 412.3 417.3C417.8 414.53 424.11 414.7 430 413.3C437.29 411.53 444.73 413.29 452.09 413.48C456.99 413.51 461.5 415.7 466.24 416.69C476.39 419.56 486.1 423.76 495.83 427.81C510.1 402.79 524.53 377.87 538.75 352.83C530.51 348.08 522.05 343.71 513.62 339.31C504.7 335.81 495.67 332.57 486.68 329.28C477.51 327.01 468.27 325.07 459.05 323.03C449.37 322.16 439.69 321.1 429.99 320.54C420.74 320.69 411.5 321.34 402.25 321.61C395.36 322.52 388.45 323.37 381.57 324.36Z" fill="#FBFBFB"/>
<path d="M800.29 417.28C811.13 415.99 821.52 421.56 829.22 428.78C841.88 441.45 850.1 457.71 856.79 474.14C866.39 498.37 871.66 524.07 874.59 549.9C878.03 582.8 879.21 616.09 875.77 649.04C874.47 675.91 869.17 702.61 859.87 727.86C856.14 737.81 851.73 747.69 844.98 756C838.05 765.04 829.69 773.54 819.06 778.08C811.75 781.47 803.24 783.62 795.37 780.86C781.2 777.37 769.8 767.11 761.4 755.59C751.76 743.48 746.72 728.58 742.1 714.02C735.03 690.74 731.38 666.55 730.33 642.27C727.78 617.55 728.87 592.67 730.36 567.93C732.99 532.69 738.98 497.09 753.77 464.74C760.51 450.67 768.36 436.64 780.21 426.21C786.07 421.74 792.8 417.91 800.29 417.28Z" fill="#FBFBFB"/>
<path d="M405.43 601.65C412.1 601.38 419.18 599.89 425.57 602.52C430.59 604.36 436.08 605.24 440.46 608.5C445.13 611.8 450.68 614.09 454.29 618.7C457.86 623.12 462.52 626.76 464.93 632.03C468.01 638.37 472.31 644.18 474.14 651.07C476.02 657.54 479.06 663.74 479.67 670.53C480.39 677.33 482.12 684.08 481.55 690.96C481.05 698.12 481.57 705.44 479.57 712.41C478.11 718.04 477.3 723.87 475.39 729.38C472.18 735.85 469.4 742.56 465.84 748.84C461.46 754.45 457.22 760.19 452.61 765.6C448.59 768.94 444.49 772.21 440.23 775.22C435.42 777.41 430.51 779.48 425.55 781.31C418.76 781.72 411.85 783.67 405.1 781.95C399.74 780.66 393.94 780.74 389.06 777.89C384.14 775.22 378.47 773.68 374.46 769.58C370.54 765.83 365.65 762.95 362.86 758.17C359.91 753.33 355.76 749.07 354.35 743.44C351.9 734.99 348.03 726.87 347.17 718.03C346.17 710.05 344.16 702.11 344.82 694.02C345.24 686.53 344.43 678.91 346.33 671.57C347.79 665.1 348.09 658.24 351.23 652.27C354.3 646.04 356.12 639.08 360.73 633.73C364.87 628.54 368.19 622.63 373.32 618.31C376.54 615.5 379.34 612.1 383.27 610.22C387.46 608.1 391.33 605.18 395.99 604.17C399.16 603.39 402.27 602.44 405.43 601.65Z" fill="#FBFBFB"/>
<path d="M794.5 320.7C799.67 319.95 804.91 319.4 810.1 320.4C817.18 321.4 824.46 321.49 831.29 323.82C837.85 325.87 844.75 327.01 850.96 330.07C857.92 333.35 865.44 335.65 871.62 340.38C879.22 345.76 887.69 350.04 894.26 356.75C899.55 361.79 905.16 366.52 910.22 371.8C915.9 378.78 921.81 385.59 927.29 392.73C932.5 400.88 938.29 408.68 942.65 417.34C945.87 423.5 949.52 429.46 952.12 435.93C954.83 442.49 958.34 448.76 960.17 455.66C962.53 463.93 965.26 472.1 967.47 480.42C970.27 493.93 973.69 507.32 975.26 521.05C978 536.6 978.8 552.39 980.34 568.09C980.62 574.07 981.79 579.99 981.65 585.99C981.51 600.28 981.95 614.57 981.65 628.86C980.62 643.23 979.59 657.6 978.58 671.98C976.92 682.85 975.01 693.69 973.36 704.57C971.38 716.05 969.87 727.74 965.77 738.71C962.73 747.95 958.82 756.88 954.66 765.66C947.41 781.94 937.87 797.08 927.67 811.65C921.98 817.95 916.25 824.23 910.4 830.39C903.54 836.19 896.84 842.21 889.72 847.7C880.84 853.17 872.68 859.94 862.99 863.98C858.39 866.1 853.82 868.31 849.17 870.31C844 871.99 838.68 873.16 833.42 874.52C823.92 877.57 813.81 877.03 804 878.25C793.24 877.23 782.23 877.3 771.83 874.06C765.74 872.26 759.29 871.4 753.65 868.35C746.57 864.76 738.91 862.21 732.41 857.56C725.13 852.52 717.19 848.35 710.64 842.33C704.99 837.32 698.8 832.89 693.67 827.34C687.53 820.14 680.16 813.91 675.31 805.7C665.61 791.8 657.44 776.88 650.62 761.38C642.95 745.86 637.59 729.25 634.9 712.16C633.44 703.09 632.1 694.01 630.69 684.95C627.34 666.81 627.15 648.3 625.4 629.98C625.03 614.01 625.68 598.02 625.69 582.05C627.8 560.53 628.88 538.9 632.33 517.53C633.36 506.45 636.51 495.76 638.78 484.91C640.73 475.29 644.17 466.07 646.8 456.64C648.98 448.49 653.06 441.06 656.3 433.31C663.39 418.58 671.64 404.41 680.99 391C686.6 384.29 692.13 377.5 697.86 370.89C704.49 364.51 711.28 358.3 718.09 352.11C724.53 347.5 731.25 343.27 737.79 338.79C742.93 335.17 749.06 333.41 754.67 330.67C761.89 327.09 769.88 325.65 777.57 323.38C783.04 321.58 788.84 321.51 794.5 320.7ZM800.29 417.28C792.8 417.91 786.07 421.74 780.21 426.21C768.36 436.64 760.51 450.67 753.77 464.74C738.98 497.09 732.99 532.69 730.36 567.93C728.87 592.67 727.78 617.55 730.33 642.27C731.38 666.55 735.03 690.74 742.1 714.02C746.72 728.58 751.76 743.48 761.4 755.59C769.8 767.11 781.2 777.37 795.37 780.86C803.24 783.62 811.75 781.47 819.06 778.08C829.69 773.54 838.05 765.04 844.98 756C851.73 747.69 856.14 737.81 859.87 727.86C869.17 702.61 874.47 675.91 875.77 649.04C879.21 616.09 878.03 582.8 874.59 549.9C871.66 524.07 866.39 498.37 856.79 474.14C850.1 457.71 841.88 441.45 829.22 428.78C821.52 421.56 811.13 415.99 800.29 417.28Z" fill="#010101"/>
<path d="M381.57 324.36C388.45 323.37 395.36 322.52 402.25 321.61C411.5 321.34 420.74 320.69 429.99 320.54C439.69 321.1 449.37 322.16 459.05 323.03C468.27 325.07 477.51 327.01 486.68 329.28C495.67 332.57 504.7 335.81 513.62 339.31C522.05 343.71 530.51 348.08 538.75 352.83C524.53 377.87 510.1 402.79 495.83 427.81C486.1 423.76 476.39 419.56 466.24 416.69C461.5 415.7 456.99 413.51 452.09 413.48C444.73 413.29 437.29 411.53 430 413.3C424.11 414.7 417.8 414.53 412.3 417.3C405.71 420.26 398.5 422.15 392.87 426.9C386.65 430.86 381.08 435.65 376.09 441.09C370.21 446.12 366.72 453.12 362.35 459.37C356.12 471.49 351.83 484.48 347.61 497.42C343.26 512.81 339.1 528.37 337.58 544.33C340.95 542.19 343.74 539.3 346.9 536.87C355.34 530.66 364.29 525.04 373.98 520.99C382.31 518.29 390.22 514.08 398.99 512.91C406.93 511.35 414.85 509.31 423.02 509.64C435.83 508.7 448.6 510.18 461.29 511.8C469.24 514.09 477.29 516.12 485.16 518.69C492.44 522.1 499.77 525.44 506.93 529.11C513.11 533.55 519.36 537.94 525.33 542.67C530.62 548.05 536.27 553.12 541.17 558.87C546.47 566.27 553.12 572.83 556.8 581.28C562.22 592.51 569.12 603.14 572.68 615.17C574.78 621.48 577.02 627.75 579.1 634.07C582.48 642.92 583.1 652.47 585.19 661.65C585.99 667.39 588 673.07 587.3 678.94C586.35 690.3 585.9 701.71 584.9 713.06C582.39 725.24 579.87 737.42 577.28 749.58C573.64 759.83 569.93 770.06 566.27 780.31C564.24 786.98 559.94 792.59 556.71 798.68C553.1 805.77 547.59 811.57 542.86 817.89C538.96 823.26 533.79 827.47 529.14 832.15C522.27 839.44 513.62 844.67 505.65 850.66C496.62 855.45 487.86 861.01 478.07 864.15C472.06 866.16 466.33 869.11 460.02 870.09C450.97 871.74 442.05 874.12 432.97 875.59C422.33 875.91 411.7 876.68 401.06 876.61C390.8 875.39 380.5 874.4 370.29 872.84C360.23 869.33 349.73 866.8 340.3 861.7C335.23 859.08 329.89 856.95 325.05 853.92C319.19 849.81 313.22 845.84 307.41 841.65C302.32 837.39 297.57 832.74 292.56 828.4C288.39 824.9 285.24 820.43 281.65 816.4C278.21 812.13 274.21 808.27 271.5 803.45C267.31 796.32 262.23 789.66 258.99 782.01C254.86 772.85 250.43 763.82 246.47 754.59C243.19 744.15 239.89 733.72 236.65 723.27C234.95 716.04 233.74 708.69 232.36 701.39C228.43 683.53 227.63 665.2 225.42 647.08C224.83 636.07 224.93 625.02 224.65 613.99C223.93 595.58 226.47 577.27 227.38 558.92C230.73 532.76 235.08 506.72 240.81 480.98C244.26 469.46 246.25 457.45 251.35 446.49C255.05 437.91 257.89 428.9 262.86 420.92C267.84 412.58 271.81 403.56 277.99 395.99C282.62 389.95 287.06 383.76 291.81 377.82C298.78 370.79 305.49 363.49 312.67 356.67C319.42 351.77 326.05 346.64 333.07 342.14C342.43 337.77 351.32 332.12 361.43 329.61C368.13 327.83 374.62 325.09 381.57 324.36ZM405.43 601.65C402.27 602.44 399.16 603.39 395.99 604.17C391.33 605.18 387.46 608.1 383.27 610.22C379.34 612.1 376.54 615.5 373.32 618.31C368.19 622.63 364.87 628.54 360.73 633.73C356.12 639.08 354.3 646.04 351.23 652.27C348.09 658.24 347.79 665.1 346.33 671.57C344.43 678.91 345.24 686.53 344.82 694.02C344.16 702.11 346.17 710.05 347.17 718.03C348.03 726.87 351.9 734.99 354.35 743.44C355.76 749.07 359.91 753.33 362.86 758.17C365.65 762.95 370.54 765.83 374.46 769.58C378.47 773.68 384.14 775.22 389.06 777.89C393.94 780.74 399.74 780.66 405.1 781.95C411.85 783.67 418.76 781.72 425.55 781.31C430.51 779.48 435.42 777.41 440.23 775.22C444.49 772.21 448.59 768.94 452.61 765.6C457.22 760.19 461.46 754.45 465.84 748.84C469.4 742.56 472.18 735.85 475.39 729.38C477.3 723.87 478.11 718.04 479.57 712.41C481.57 705.44 481.05 698.12 481.55 690.96C482.12 684.08 480.39 677.33 479.67 670.53C479.06 663.74 476.02 657.54 474.14 651.07C472.31 644.18 468.01 638.37 464.93 632.03C462.52 626.76 457.86 623.12 454.29 618.7C450.68 614.09 445.13 611.8 440.46 608.5C436.08 605.24 430.59 604.36 425.57 602.52C419.18 599.89 412.1 601.38 405.43 601.65Z" fill="#010101"/>
</svg>
