<svg width="1206" height="1206" viewBox="0 0 1206 1206" fill="none" xmlns="http://www.w3.org/2000/svg">
<path d="M594.58 0H612.42C620.57 0.59 628.77 0.41 636.93 0.89C646.11 1.59 655.27 2.4 664.44 3.2C675.75 3.96 686.92 6.04 698.15 7.53C710.05 9.02 721.69 11.98 733.43 14.36C744.29 16.45 754.86 19.74 765.58 22.43C777.27 25.31 788.58 29.5 800.06 33.12C811.39 36.6 822.23 41.44 833.27 45.72C839.68 48.18 845.95 51 852.14 53.98C862.31 58.72 872.62 63.19 882.41 68.69C892.67 74.39 903.23 79.58 913.13 85.93C921.7 91.34 930.59 96.27 938.88 102.12C949.31 109.69 960.17 116.67 970.2 124.79C978.81 131.85 987.88 138.35 996.12 145.86C1007.25 155.72 1018.62 165.34 1028.87 176.13C1039.66 186.38 1049.35 197.67 1059.18 208.82C1066.72 217.02 1073.24 226.07 1080.27 234.69C1088.3 244.48 1095.17 255.12 1102.57 265.38C1107.15 271.62 1111.03 278.32 1115.09 284.9C1119.76 292.64 1124.71 300.21 1128.88 308.24C1134.61 319.14 1140.92 329.76 1145.95 341.02C1150.6 351.38 1155.81 361.51 1159.87 372.13C1163.21 380.8 1166.92 389.32 1170.09 398.06C1173.45 408.54 1177.07 418.95 1180.4 429.45C1182.89 438.46 1185.23 447.52 1187.67 456.55C1190.51 466.74 1192.3 477.18 1194.62 487.5C1197.76 501.16 1199.13 515.14 1201.29 528.97C1205.76 567.76 1207.07 606.98 1204.14 645.94C1202.93 657.72 1202.52 669.59 1200.6 681.29C1198.76 692.86 1197.69 704.56 1195.04 715.99C1192.58 726.98 1190.67 738.09 1187.69 748.96C1185.06 758.62 1182.69 768.37 1179.86 777.98C1176.37 788.46 1173.01 798.99 1169.39 809.43C1162.58 826.76 1155.83 844.12 1147.66 860.86C1143.07 871.77 1137.24 882.06 1131.55 892.41C1124.19 906.47 1115.53 919.78 1107.23 933.3C1102.09 941.05 1096.55 948.53 1091.25 956.18C1084.66 965.8 1077.05 974.66 1069.92 983.88C1063.73 991.97 1056.72 999.37 1050 1007.02C1039.94 1018.9 1028.48 1029.49 1017.54 1040.55C1011.37 1046.39 1004.89 1051.9 998.6 1057.62C989.45 1066.23 979.26 1073.64 969.47 1081.5C962.26 1087.4 954.45 1092.48 946.86 1097.87C933.54 1107.5 919.34 1115.81 905.42 1124.51C896.42 1129.55 887.23 1134.23 878.17 1139.14C868.93 1144.05 859.33 1148.21 849.91 1152.75C839.35 1157.99 828.16 1161.77 817.26 1166.21C808.99 1169.67 800.39 1172.21 791.93 1175.15C783.68 1177.95 775.45 1180.82 766.99 1182.94C755.58 1185.85 744.3 1189.37 732.71 1191.49C721.4 1193.65 710.22 1196.43 698.8 1197.94C686.54 1199.62 674.38 1202.09 662.01 1202.76C622.92 1206.67 583.44 1206.71 544.35 1202.77C532.12 1202.14 520.09 1199.76 507.99 1198.04C495.77 1196.41 483.79 1193.5 471.71 1191.15C460.16 1188.96 448.93 1185.45 437.55 1182.58C431.76 1181.17 426.08 1179.38 420.47 1177.39C409.15 1173.4 397.62 1169.96 386.53 1165.35C376.66 1161.27 366.48 1157.94 356.92 1153.14C346.11 1147.91 335.04 1143.19 324.53 1137.37C317 1133.29 309.36 1129.4 301.88 1125.25C293.74 1120.35 285.7 1115.31 277.64 1110.29C268.23 1104.53 259.41 1097.9 250.3 1091.69C240.6 1085.21 231.74 1077.6 222.54 1070.46C213.14 1063.28 204.68 1055 195.78 1047.22C187.02 1039.68 179.19 1031.15 170.92 1023.08C162.61 1015.03 155.2 1006.13 147.44 997.56C139.27 988.94 132.38 979.23 124.89 970.04C118.23 961.95 112.51 953.16 106.49 944.6C98.13 933.07 91.04 920.71 83.39 908.72C77.94 899.88 73.42 890.52 68.4 881.44C62.79 871.43 58.34 860.85 53.36 850.53C48 839.51 43.92 827.93 39.38 816.57C35.21 806.43 32.16 795.89 28.62 785.53C24.49 773.75 21.66 761.57 18.3 749.57C15.09 738.56 13.34 727.21 10.91 716.02C8.58 705.69 7.51 695.15 5.86 684.7C3.66 670.91 2.81 656.96 1.42 643.08C0.27 632.89 0.74 622.62 0 612.41V594.57C0.56 586.04 0.4 577.49 0.88 568.96C1.88 557.08 2.98 545.21 4.17 533.35C5.85 520.98 7.52 508.59 9.55 496.26C11.89 484.82 14.06 473.32 16.67 461.94C20.87 447.08 24.4 432.02 29.53 417.45C32.91 407.53 35.79 397.42 39.84 387.74C44.2 377.11 47.84 366.17 52.98 355.88C58.01 345.58 62.51 335.01 68.03 324.96C74.08 313.76 79.63 302.26 86.63 291.6C97.01 274.28 108.48 257.65 120.31 241.3C130.24 228.93 139.61 216.08 150.5 204.51C156.82 197.5 162.94 190.3 169.71 183.71C178.79 174.8 187.46 165.44 197.12 157.13C205.2 150.21 212.85 142.76 221.32 136.29C230.7 129.01 239.74 121.27 249.52 114.51C260.03 107.35 270.08 99.49 281.12 93.15C293.34 85.49 305.68 78.03 318.52 71.45C332.83 63.29 347.99 56.82 362.87 49.8C373.93 45.17 385.12 40.83 396.26 36.4C407.28 32.54 418.4 29 429.49 25.36C441.09 22.2 452.71 19.09 464.36 16.11C475.77 13.7 487.16 11.17 498.61 8.91C510.26 7.17 521.92 5.48 533.6 3.88C545.4 2.85 557.2 1.85 569 0.88C577.52 0.4 586.06 0.56 594.58 0ZM578.36 151.36C563.5 152.53 548.57 153.33 533.91 156.16C522.46 157.69 511.18 160.17 499.92 162.68C487.22 165.02 475.05 169.45 462.64 172.95C452.17 176.48 441.86 180.45 431.51 184.33C421.6 188.76 411.61 193.03 401.81 197.69C390.42 203.98 378.65 209.63 367.73 216.74C360.44 221.44 352.8 225.62 345.88 230.88C336.93 237.59 327.57 243.78 319.08 251.08C311.34 257.66 303.19 263.8 296 271.01C289.96 276.96 283.42 282.41 277.67 288.65C271.26 295.9 264.41 302.75 258.13 310.12C254.08 315.09 250.2 320.18 246.14 325.14C238.31 334.5 231.93 344.94 224.82 354.84C218.71 364.21 213.09 373.89 207.35 383.49C200.37 397.26 193.07 410.91 187.35 425.27C181.12 438.7 176.67 452.84 171.71 466.77C168.73 476.88 165.85 487.03 163.13 497.21C160.48 510.77 157.25 524.24 155.61 537.98C154.44 547.33 152.54 556.61 152.37 566.07C151.7 575.36 150.95 584.67 151.13 594C151.18 608.43 150.77 622.9 152.26 637.29C152.41 648.08 154.5 658.68 155.84 669.36C157.51 682.1 160.45 694.62 162.9 707.23C165.59 717.91 168.67 728.5 171.73 739.09C175.11 748.67 178.46 758.28 182.04 767.8C185.92 776.91 189.74 786.06 193.79 795.11C198.44 804.45 203.02 813.84 207.91 823.06C213.19 831.79 218.32 840.61 223.72 849.27C229.5 857.5 235.17 865.8 241.03 873.97C250.26 885.38 258.98 897.23 269.3 907.7C280.06 919.93 292.02 931.02 303.94 942.09C315.48 951.63 326.76 961.51 339.2 969.89C351.11 978.85 363.92 986.5 376.53 994.4C385.9 999.42 395.28 1004.46 404.77 1009.25C417.08 1014.67 429.16 1020.67 441.86 1025.14C450 1028.1 457.96 1031.62 466.36 1033.84C476.59 1036.69 486.67 1040.14 497.08 1042.29C508.19 1044.67 519.17 1047.66 530.48 1048.98C546.53 1051.8 562.77 1053.07 578.99 1054.47C601.16 1055.04 623.4 1055.14 645.51 1053.06C656.75 1051.45 668.1 1050.65 679.25 1048.4C689.76 1046.36 700.42 1044.94 710.72 1041.9C722.73 1038.84 734.72 1035.71 746.36 1031.41C758.5 1027.73 770.15 1022.72 781.88 1017.93C790.56 1014.62 798.65 1010.03 807.05 1006.1C817.1 1001.45 826.49 995.56 836.11 990.13C843.74 985.94 850.72 980.74 858 976C863.57 972.29 869.15 968.58 874.33 964.32C881.72 958.38 889.58 953.01 896.56 946.57C904.84 939.19 913.34 932.03 921.02 924.01C927.56 917.22 934.62 910.9 940.55 903.54C946.31 896.65 952.32 889.96 957.85 882.87C964.87 873.23 972.58 864.08 978.87 853.92C983.43 846.49 988.71 839.5 992.88 831.83C997.16 823.78 1001.8 815.92 1006 807.82C1010.14 799.01 1014.4 790.26 1018.44 781.41C1022.33 771.58 1026.21 761.74 1029.87 751.82C1033.21 740.88 1037.06 730.08 1039.94 719C1042.47 707.65 1045.91 696.48 1047.56 684.94C1048.97 675.45 1051.1 666.04 1051.78 656.45C1053.29 642.17 1054.69 627.87 1054.79 613.5C1055.96 603.34 1054.59 593.19 1054.5 583.02C1054.45 572.81 1053.02 562.68 1052.16 552.52C1050.97 538.89 1048.25 525.46 1046.06 511.98C1043.5 501.24 1041.03 490.47 1038.13 479.83C1034.11 467.6 1030.71 455.14 1025.8 443.22C1022.24 434.13 1019.1 424.86 1014.67 416.15C1009.5 404.95 1004.31 393.76 998.01 383.14C990.93 369.58 982.22 356.98 973.83 344.22C964.9 332.2 956.28 319.9 946.27 308.73C937.79 297.95 927.88 288.47 918.29 278.71C911.84 272.13 904.66 266.34 897.92 260.09C890.2 253.04 881.7 246.94 873.46 240.52C866.01 234.5 857.78 229.57 849.96 224.06C841.23 217.81 831.63 212.96 822.41 207.49C813.44 202.1 803.82 197.96 794.5 193.25C785.96 188.82 776.85 185.69 768.02 181.93C758.45 177.81 748.42 174.94 738.56 171.63C728.84 168.28 718.79 166.04 708.88 163.35C699.28 160.63 689.38 159.25 679.63 157.23C669.06 154.93 658.23 154.38 647.54 152.9C636.41 151.4 625.16 151.75 613.99 150.79C602.11 150.38 590.24 151.2 578.36 151.36Z" fill="#DD1800"/>
<path d="M578.36 151.36C590.24 151.2 602.11 150.38 613.99 150.79C625.16 151.75 636.41 151.4 647.54 152.9C658.23 154.38 669.06 154.93 679.63 157.23C689.38 159.25 699.28 160.63 708.88 163.35C718.79 166.04 728.84 168.28 738.56 171.63C748.42 174.94 758.45 177.81 768.02 181.93C776.85 185.69 785.96 188.82 794.5 193.25C803.82 197.96 813.44 202.1 822.41 207.49C831.63 212.96 841.23 217.81 849.96 224.06C857.78 229.57 866.01 234.5 873.46 240.52C881.7 246.94 890.2 253.04 897.92 260.09C904.66 266.34 911.84 272.13 918.29 278.71C927.88 288.47 937.79 297.95 946.27 308.73C956.28 319.9 964.9 332.2 973.83 344.22C982.22 356.98 990.93 369.58 998.01 383.14C1004.31 393.76 1009.5 404.95 1014.67 416.15C1019.1 424.86 1022.24 434.13 1025.8 443.22C1030.71 455.14 1034.11 467.6 1038.13 479.83C1041.03 490.47 1043.5 501.24 1046.06 511.98C1048.25 525.46 1050.97 538.89 1052.16 552.52C1053.02 562.68 1054.45 572.81 1054.5 583.02C1054.59 593.19 1055.96 603.34 1054.79 613.5C1054.69 627.87 1053.29 642.17 1051.78 656.45C1051.1 666.04 1048.97 675.45 1047.56 684.94C1045.91 696.48 1042.47 707.65 1039.94 719C1037.06 730.08 1033.21 740.88 1029.87 751.82C1026.21 761.74 1022.33 771.58 1018.44 781.41C1014.4 790.26 1010.14 799.01 1006 807.82C1001.8 815.92 997.16 823.78 992.88 831.83C988.71 839.5 983.43 846.49 978.87 853.92C972.58 864.08 964.87 873.23 957.85 882.87C952.32 889.96 946.31 896.65 940.55 903.54C934.62 910.9 927.56 917.22 921.02 924.01C913.34 932.03 904.84 939.19 896.56 946.57C889.58 953.01 881.72 958.38 874.33 964.32C869.15 968.58 863.57 972.29 858 976C850.72 980.74 843.74 985.94 836.11 990.13C826.49 995.56 817.1 1001.45 807.05 1006.1C798.65 1010.03 790.56 1014.62 781.88 1017.93C770.15 1022.72 758.5 1027.73 746.36 1031.41C734.72 1035.71 722.73 1038.84 710.72 1041.9C700.42 1044.94 689.76 1046.36 679.25 1048.4C668.1 1050.65 656.75 1051.45 645.51 1053.06C623.4 1055.14 601.16 1055.04 578.99 1054.47C562.77 1053.07 546.53 1051.8 530.48 1048.98C519.17 1047.66 508.19 1044.67 497.08 1042.29C486.67 1040.14 476.59 1036.69 466.36 1033.84C457.96 1031.62 450 1028.1 441.86 1025.14C429.16 1020.67 417.08 1014.67 404.77 1009.25C395.28 1004.46 385.9 999.42 376.53 994.4C363.92 986.5 351.11 978.85 339.2 969.89C326.76 961.51 315.48 951.63 303.94 942.09C292.02 931.02 280.06 919.93 269.3 907.7C258.98 897.23 250.26 885.38 241.03 873.97C235.17 865.8 229.5 857.5 223.72 849.27C218.32 840.61 213.19 831.79 207.91 823.06C203.02 813.84 198.44 804.45 193.79 795.11C189.74 786.06 185.92 776.91 182.04 767.8C178.46 758.28 175.11 748.67 171.73 739.09C168.67 728.5 165.59 717.91 162.9 707.23C160.45 694.62 157.51 682.1 155.84 669.36C154.5 658.68 152.41 648.08 152.26 637.29C150.77 622.9 151.18 608.43 151.13 594C150.95 584.67 151.7 575.36 152.37 566.07C152.54 556.61 154.44 547.33 155.61 537.98C157.25 524.24 160.48 510.77 163.13 497.21C165.85 487.03 168.73 476.88 171.71 466.77C176.67 452.84 181.12 438.7 187.35 425.27C193.07 410.91 200.37 397.26 207.35 383.49C213.09 373.89 218.71 364.21 224.82 354.84C231.93 344.94 238.31 334.5 246.14 325.14C250.2 320.18 254.08 315.09 258.13 310.12C264.41 302.75 271.26 295.9 277.67 288.65C283.42 282.41 289.96 276.96 296 271.01C303.19 263.8 311.34 257.66 319.08 251.08C327.57 243.78 336.93 237.59 345.88 230.88C352.8 225.62 360.44 221.44 367.73 216.74C378.65 209.63 390.42 203.98 401.81 197.69C411.61 193.03 421.6 188.76 431.51 184.33C441.86 180.45 452.17 176.48 462.64 172.95C475.05 169.45 487.22 165.02 499.92 162.68C511.18 160.17 522.46 157.69 533.91 156.16C548.57 153.33 563.5 152.53 578.36 151.36ZM800.31 322.19C792.53 323.42 784.57 323.67 777 325.99C770.32 327.94 763.32 328.98 757.04 332.08C750.32 335.29 743 337.45 737.02 342.03C729.31 347.63 720.78 352.19 713.96 358.92C709.75 362.72 705.51 366.5 701.31 370.3C697.36 373.73 694.42 378.1 691.06 382.06C687.53 386.52 683.72 390.77 680.41 395.41C674.91 403.97 669 412.29 664.48 421.44C658.69 431.43 654.27 442.11 649.75 452.7C646.78 461.8 643.96 470.96 641.15 480.11C638.87 489.85 636.8 499.64 634.74 509.43C632.72 523.89 630.43 538.34 629.43 552.92C628.39 567.08 626.3 581.2 626.56 595.43C626.66 610.31 625.52 625.23 627.01 640.06C627.92 651.35 628.71 662.64 629.67 673.91C630.97 683.56 632.67 693.16 634.1 702.79C636.04 715.08 637.66 727.53 641.74 739.34C645.2 750.8 650.87 761.4 655.75 772.29C662.81 787.24 671.31 801.52 681.25 814.73C687.02 820.94 692.49 827.45 698.49 833.45C706.99 840.31 714.74 848.2 724.2 853.8C730.63 857.73 736.58 862.56 743.61 865.45C748.69 867.7 753.69 870.16 758.82 872.33C764.13 874.09 769.62 875.27 775 876.84C784.06 879.74 793.7 879.3 803.05 880.43C811.04 880.29 819 879.23 826.96 878.57C834.06 877.03 841.01 874.84 848.05 873.05C853.81 871.13 859.15 868.16 864.75 865.82C872.52 862.78 878.99 857.4 886.03 853.05C893.59 848.51 899.86 842.24 906.67 836.7C913.24 831.63 918.2 824.9 923.92 818.96C930.38 812.49 934.77 804.4 940 796.98C944.76 788.66 949.89 780.51 953.76 771.72C958.5 761.54 963.42 751.39 966.84 740.67C971.99 726.01 973.59 710.45 976.22 695.22C977.58 685.87 979.71 676.6 980.1 667.13C980.96 654.76 981.93 642.4 982.73 630.03C982.84 615 982.58 599.96 982.58 584.93C981.27 569.3 979.73 553.68 978.21 538.07C976.31 525.32 975.29 512.41 972.23 499.86C970.28 491.47 968.94 482.93 966.26 474.73C964.04 467.59 961.97 460.4 959.71 453.27C957.9 448.54 955.66 443.99 953.69 439.33C949.87 429.92 944.44 421.29 939.6 412.4C934.02 404.01 929.1 395.14 922.42 387.55C916.86 381.12 912.17 373.85 905.57 368.4C900.08 363.57 894.81 358.48 889.19 353.8C881.88 348.79 874.6 343.7 867.17 338.87C860.31 335.64 853.35 332.55 846.29 329.77C836.99 327.47 827.84 324.23 818.24 323.44C812.28 322.93 806.31 321.15 800.31 322.19ZM300.17 329.22C299.15 364.78 297.96 400.33 296.97 435.88C361.29 436.44 425.6 437.43 489.92 438.01C425.42 579.16 360.9 720.29 296.46 861.46C336.25 861.48 376.03 860.94 415.82 860.86C479.85 717.9 543.96 574.97 608.02 432.02C609.01 429.82 608.52 427.34 608.64 425.02C608.76 394.05 609.17 363.08 609.27 332.11C506.24 331.32 403.2 330.08 300.17 329.22Z" fill="#FBFBFB"/>
<path d="M799.41 419.6C810.3 417.68 821.1 422.83 829.05 429.96C840.53 440.5 848.01 454.48 854.52 468.44C868.44 500.12 874.57 534.66 877.06 569C878.13 585.6 879.06 602.23 878.82 618.87C877.86 636.89 876.83 654.92 874.79 672.85C873.32 686.57 869.78 699.93 866.37 713.26C862.49 725.53 858.49 737.91 852.09 749.14C846.56 758.25 839.49 766.43 831.41 773.37C824.19 779.27 815.22 783.05 806.02 784.36C795.41 784.33 785.04 779.8 776.87 773.18C766.51 763.94 757.4 752.97 751.85 740.14C739.8 711.96 733.41 681.49 731.71 650.94C730.85 637.97 729.63 625 729.75 612C730.31 574.11 732.6 535.81 743 499.18C748.76 478.98 756.74 459.13 768.91 441.9C776.26 431.48 786.47 422 799.41 419.6Z" fill="#FBFBFB"/>
<path d="M800.31 322.19C806.31 321.15 812.28 322.93 818.24 323.44C827.84 324.23 836.99 327.47 846.29 329.77C853.35 332.55 860.31 335.64 867.17 338.87C874.6 343.7 881.88 348.79 889.19 353.8C894.81 358.48 900.08 363.57 905.57 368.4C912.17 373.85 916.86 381.12 922.42 387.55C929.1 395.14 934.02 404.01 939.6 412.4C944.44 421.29 949.87 429.92 953.69 439.33C955.66 443.99 957.9 448.54 959.71 453.27C961.97 460.4 964.04 467.59 966.26 474.73C968.94 482.93 970.28 491.47 972.23 499.86C975.29 512.41 976.31 525.32 978.21 538.07C979.73 553.68 981.27 569.3 982.58 584.93C982.58 599.96 982.84 615 982.73 630.03C981.93 642.4 980.96 654.76 980.1 667.13C979.71 676.6 977.58 685.87 976.22 695.22C973.59 710.45 971.99 726.01 966.84 740.67C963.42 751.39 958.5 761.54 953.76 771.72C949.89 780.51 944.76 788.66 940 796.98C934.77 804.4 930.38 812.49 923.92 818.96C918.2 824.9 913.24 831.63 906.67 836.7C899.86 842.24 893.59 848.51 886.03 853.05C878.99 857.4 872.52 862.78 864.75 865.82C859.15 868.16 853.81 871.13 848.05 873.05C841.01 874.84 834.06 877.03 826.96 878.57C819 879.23 811.04 880.29 803.05 880.43C793.7 879.3 784.06 879.74 775 876.84C769.62 875.27 764.13 874.09 758.82 872.33C753.69 870.16 748.69 867.7 743.61 865.45C736.58 862.56 730.63 857.73 724.2 853.8C714.74 848.2 706.99 840.31 698.49 833.45C692.49 827.45 687.02 820.94 681.25 814.73C671.31 801.52 662.81 787.24 655.75 772.29C650.87 761.4 645.2 750.8 641.74 739.34C637.66 727.53 636.04 715.08 634.1 702.79C632.67 693.16 630.97 683.56 629.67 673.91C628.71 662.64 627.92 651.35 627.01 640.06C625.52 625.23 626.66 610.31 626.56 595.43C626.3 581.2 628.39 567.08 629.43 552.92C630.43 538.34 632.72 523.89 634.74 509.43C636.8 499.64 638.87 489.85 641.15 480.11C643.96 470.96 646.78 461.8 649.75 452.7C654.27 442.11 658.69 431.43 664.48 421.44C669 412.29 674.91 403.97 680.41 395.41C683.72 390.77 687.53 386.52 691.06 382.06C694.42 378.1 697.36 373.73 701.31 370.3C705.51 366.5 709.75 362.72 713.96 358.92C720.78 352.19 729.31 347.63 737.02 342.03C743 337.45 750.32 335.29 757.04 332.08C763.32 328.98 770.32 327.94 777 325.99C784.57 323.67 792.53 323.42 800.31 322.19ZM799.41 419.6C786.47 422 776.26 431.48 768.91 441.9C756.74 459.13 748.76 478.98 743 499.18C732.6 535.81 730.31 574.11 729.75 612C729.63 625 730.85 637.97 731.71 650.94C733.41 681.49 739.8 711.96 751.85 740.14C757.4 752.97 766.51 763.94 776.87 773.18C785.04 779.8 795.41 784.33 806.02 784.36C815.22 783.05 824.19 779.27 831.41 773.37C839.49 766.43 846.56 758.25 852.09 749.14C858.49 737.91 862.49 725.53 866.37 713.26C869.78 699.93 873.32 686.57 874.79 672.85C876.83 654.92 877.86 636.89 878.82 618.87C879.06 602.23 878.13 585.6 877.06 569C874.57 534.66 868.44 500.12 854.52 468.44C848.01 454.48 840.53 440.5 829.05 429.96C821.1 422.83 810.3 417.68 799.41 419.6Z" fill="#010101"/>
<path d="M300.17 329.22C403.2 330.08 506.24 331.32 609.27 332.11C609.17 363.08 608.76 394.05 608.64 425.02C608.52 427.34 609.01 429.82 608.02 432.02C543.96 574.97 479.85 717.9 415.82 860.86C376.03 860.94 336.25 861.48 296.46 861.46C360.9 720.29 425.42 579.16 489.92 438.01C425.6 437.43 361.29 436.44 296.97 435.88C297.96 400.33 299.15 364.78 300.17 329.22Z" fill="#010101"/>
</svg>
