<svg width="1206" height="1206" viewBox="0 0 1206 1206" fill="none" xmlns="http://www.w3.org/2000/svg">
<path d="M594.56 0H612.44C620.94 0.65 629.48 0.38 637.99 0.94C649.18 1.87 660.36 2.83 671.55 3.82C680.97 5.03 690.34 6.63 699.74 8C711.07 9.57 722.2 12.29 733.43 14.42C743.46 16.22 753.19 19.31 763.07 21.77C769.89 23.54 776.71 25.31 783.35 27.69C794.74 31.56 806.33 34.92 817.46 39.52C828.06 43.83 838.91 47.6 849.19 52.65C859.34 57.59 869.74 62.02 879.65 67.41C888.26 72.15 897.03 76.59 905.58 81.45C920.53 90.74 935.76 99.62 949.96 110.07C964.44 119.68 977.78 130.83 991.35 141.66C1001.76 151.24 1012.67 160.3 1022.58 170.41C1031.38 179.28 1040.61 187.74 1048.77 197.23C1056.57 206.11 1064.83 214.59 1071.82 224.15C1099.72 258.52 1123.43 296.17 1143.43 335.62C1146.61 342.41 1149.72 349.23 1152.92 356.02C1158 366.61 1161.91 377.71 1166.36 388.57C1170.86 399.24 1173.92 410.43 1177.73 421.34C1181.3 431.17 1183.43 441.42 1186.28 451.46C1188.4 459.08 1190.27 466.76 1191.71 474.54C1193.86 485.43 1196.48 496.24 1197.93 507.26C1199.71 519.81 1202.2 532.3 1202.84 544.99C1206.73 583.86 1206.63 623.13 1202.76 662.01C1202.17 673.87 1199.75 685.52 1198.15 697.27C1196.5 709.47 1193.65 721.46 1191.33 733.54C1189.53 743.29 1186.66 752.79 1184.18 762.38C1182.22 769.64 1180.37 776.94 1177.9 784.06C1173.94 795.47 1170.76 807.16 1166.02 818.29C1161.54 829.04 1157.63 840.03 1152.53 850.51C1147.92 860.19 1143.81 870.11 1138.63 879.51C1133.91 888.13 1129.37 896.86 1124.52 905.41C1115.89 919.12 1107.78 933.17 1098.26 946.28C1092.74 954.06 1087.54 962.07 1081.5 969.47C1073.94 978.89 1066.8 988.68 1058.59 997.57C1051.52 1005.5 1044.78 1013.74 1037.15 1021.15C1027.19 1030.87 1017.63 1041.01 1007.05 1050.06C984.21 1071.24 959.16 1089.91 933.38 1107.35C919.23 1115.99 905.22 1124.88 890.54 1132.6C882.05 1137.18 873.7 1142.04 864.84 1145.89C854.47 1150.56 844.33 1155.73 833.7 1159.77C822.41 1164.18 811.29 1169.04 799.72 1172.7C789.29 1175.98 779.06 1179.89 768.44 1182.55C756.28 1185.67 744.24 1189.36 731.89 1191.72C723.24 1193.41 714.66 1195.49 705.99 1197.03C695.9 1198.51 685.81 1199.92 675.73 1201.41C637.36 1205.75 598.58 1207.04 560.04 1204.16C548.06 1202.93 536 1202.53 524.1 1200.57C512.47 1198.79 500.74 1197.55 489.26 1194.96C477.48 1192.38 465.61 1190.27 454 1186.99C442.88 1183.91 431.58 1181.44 420.71 1177.51C410 1173.81 399.05 1170.76 388.58 1166.37C377.96 1162.01 367.11 1158.18 356.72 1153.26C348.34 1149.27 339.82 1145.54 331.51 1141.4C316.62 1133.41 301.7 1125.48 287.35 1116.54C279.55 1111.72 271.58 1107.17 264.18 1101.73C254.71 1094.89 244.88 1088.54 235.81 1081.15C223.75 1071.62 211.54 1062.24 200.42 1051.59C190.5 1043.21 181.48 1033.86 172.2 1024.79C163.65 1016.65 156.07 1007.58 148.2 998.8C138.15 987.75 129.34 975.66 119.96 964.06C110.82 950.84 101.13 937.98 92.88 924.17C87.71 915.61 82.04 907.35 77.38 898.5C73.12 890.51 68.7 882.61 64.48 874.6C60.11 865.76 56.19 856.71 51.97 847.81C47.36 838.23 43.89 828.16 39.8 818.36C34.95 806.97 31.6 795.04 27.67 783.32C23.83 772.37 21.39 761.01 18.27 749.85C15.11 738.74 13.34 727.32 10.91 716.04C8.51 705.22 7.3 694.2 5.48 683.28C3.25 670.31 2.72 657.13 1.43 644.05C0.29 633.21 0.71 622.3 0 611.43V594.56C0.58 586.04 0.39 577.49 0.88 568.97C1.8 557.31 2.86 545.66 3.86 534C6.56 515.11 9.16 496.19 13.43 477.57C16.24 461.74 20.99 446.36 24.97 430.81C28.52 419.5 32.31 408.27 36.09 397.04C40.33 386.04 44.73 375.1 49.14 364.17C53.78 353.81 58.67 343.57 63.44 333.28C72.6 316.02 81.79 298.75 92.45 282.35C99.99 269.51 109.03 257.65 117.45 245.38C123.99 236.36 131.22 227.86 137.96 218.98C143.97 211.06 151.13 204.12 157.58 196.57C162.83 190.52 168.5 184.84 174.22 179.23C181.36 172.38 188.14 165.15 195.58 158.6C202.36 152.7 208.83 146.45 215.65 140.61C229.31 129.89 242.59 118.65 257.15 109.13C269 100.42 281.61 92.85 294.13 85.16C303.84 78.94 314.23 73.92 324.32 68.38C334.11 62.94 344.42 58.56 354.46 53.63C365.44 48.18 377.01 44.09 388.34 39.48C398.97 35.04 410.05 31.84 420.94 28.13C432.49 24.09 444.46 21.45 456.24 18.15C465.97 15.37 475.97 13.8 485.85 11.67C501.09 8.37 516.58 6.45 531.98 4.08C544.3 2.82 556.66 1.89 569.01 0.87C577.52 0.4 586.05 0.57 594.56 0ZM579.34 151.32C569.54 152.02 559.78 153.09 549.99 153.89C535.48 156.15 520.8 157.59 506.57 161.32C494.74 163.75 483.07 166.85 471.53 170.39C458.29 173.88 445.67 179.24 432.83 183.91C422.65 188.34 412.51 192.89 402.45 197.57C391.28 203.72 379.67 209.09 368.95 216.02C360.66 221.36 352.03 226.19 344.15 232.13C335.96 238.27 327.21 243.69 319.52 250.48C312.38 256.69 304.67 262.26 297.99 269C292.12 274.8 286.05 280.38 280.21 286.21C273.19 293.85 266.06 301.39 259.13 309.12C253.1 316.73 246.99 324.29 240.93 331.89C234.88 340.5 228.8 349.11 222.87 357.8C217.13 367.47 211.11 376.97 205.69 386.82C200.25 397.96 193.87 408.64 189.37 420.22C178.05 445.22 169.8 471.49 162.99 498.04C160.4 511.65 157.12 525.15 155.51 538.93C154.29 548.44 152.43 557.9 152.31 567.53C151.26 578.65 150.99 589.83 151.13 601C150.85 622.74 151.96 644.54 155.36 666.03C156.97 680.18 160.29 694.04 163.06 707.99C167.24 723.7 171.41 739.45 177.15 754.68C181.43 768.38 187.68 781.32 193.18 794.55C197.77 803.93 202.68 813.15 207.45 822.44C212.32 830.62 217.28 838.75 222.19 846.91C228.25 856.09 234.61 865.09 240.96 874.07C247.29 882.06 253.62 890.06 260.08 897.94C269.72 908.29 278.92 919.07 289.41 928.59C295.86 934.81 302.19 941.17 309.25 946.71C319.21 955.18 329.38 963.41 340.13 970.87C351.8 979.86 364.67 987.1 377.21 994.78C389.45 1001.28 401.41 1008.4 414.21 1013.78C422.35 1017.43 430.37 1021.38 438.83 1024.26C448.93 1027.77 458.81 1031.94 469.14 1034.76C478.06 1037.19 486.77 1040.45 495.87 1042.22C506.96 1044.53 517.95 1047.41 529.2 1048.89C538.47 1050.11 547.62 1052.33 556.99 1052.65C567.97 1053.54 578.95 1054.85 589.99 1054.67C612.71 1055.19 635.5 1054.61 658.04 1051.6C672.71 1050.32 687.08 1046.95 701.53 1044.24C711.98 1041.56 722.45 1038.9 732.84 1035.96C742.81 1032.59 752.92 1029.62 762.79 1025.95C774.5 1020.99 786.56 1016.81 797.82 1010.84C806.66 1006.35 815.72 1002.24 824.21 997.09C831.88 992.46 839.91 988.4 847.29 983.3C854.67 978.38 862.19 973.64 869.36 968.4C877.19 962.23 885.15 956.22 892.86 949.9C899.89 943.58 907.11 937.47 914.1 931.1C921.16 924.16 927.99 916.98 934.97 909.96C940.51 903.79 945.8 897.4 951.2 891.11C957.86 883.64 963.51 875.37 969.5 867.38C975.97 858.99 981.27 849.81 987.07 840.96C992.21 833.26 996.4 824.98 1001.05 816.98C1006.42 808.25 1010.2 798.68 1014.72 789.5C1019.27 780.37 1022.52 770.7 1026.32 761.26C1030.59 750.76 1033.58 739.81 1037.16 729.07C1039.78 721.35 1041.12 713.3 1043.15 705.42C1046.65 691.44 1048.72 677.15 1051.14 662.95C1052.5 647.98 1054.58 633.04 1054.55 617.98C1055.02 606.99 1054.83 596 1054.48 585.01C1054.45 570.95 1052.39 557.01 1051.16 543.02C1049.31 531.96 1047.52 520.89 1045.32 509.9C1042.21 497.42 1039.96 484.71 1035.73 472.54C1032.14 460.4 1028.08 448.41 1023.29 436.69C1019.35 425.23 1013.79 414.46 1008.64 403.52C1004.43 394.06 998.82 385.33 993.92 376.24C989.15 367.24 983.17 358.97 977.78 350.35C972.44 341.52 965.71 333.67 959.69 325.31C955.47 319.26 950.2 314.07 945.62 308.31C936.55 297.13 926.18 287.15 916.14 276.86C908.87 269.77 900.94 263.4 893.43 256.58C886.93 251.03 879.93 246.1 873.33 240.68C865.71 234.45 857.22 229.44 849.13 223.87C840.96 218.18 832.07 213.64 823.54 208.53C814.45 203.01 804.69 198.71 795.25 193.85C786.38 189.26 776.96 185.92 767.77 182.07C757.66 177.75 747.07 174.71 736.69 171.11C728.25 168.1 719.46 166.26 710.83 163.92C698.1 160.36 684.99 158.59 672.03 156.1C655.25 153.85 638.44 151.42 621.47 151.3C607.45 149.96 593.38 151.18 579.34 151.32Z" fill="#DD1800"/>
<path d="M579.34 151.32C593.38 151.18 607.45 149.96 621.47 151.3C638.44 151.42 655.25 153.85 672.03 156.1C684.99 158.59 698.1 160.36 710.83 163.92C719.46 166.26 728.25 168.1 736.69 171.11C747.07 174.71 757.66 177.75 767.77 182.07C776.96 185.92 786.38 189.26 795.25 193.85C804.69 198.71 814.45 203.01 823.54 208.53C832.07 213.64 840.96 218.18 849.13 223.87C857.22 229.44 865.71 234.45 873.33 240.68C879.93 246.1 886.93 251.03 893.43 256.58C900.94 263.4 908.87 269.77 916.14 276.86C926.18 287.15 936.55 297.13 945.62 308.31C950.2 314.07 955.47 319.26 959.69 325.31C965.71 333.67 972.44 341.52 977.78 350.35C983.17 358.97 989.15 367.24 993.92 376.24C998.82 385.33 1004.43 394.06 1008.64 403.52C1013.79 414.46 1019.35 425.23 1023.29 436.69C1028.08 448.41 1032.14 460.4 1035.73 472.54C1039.96 484.71 1042.21 497.42 1045.32 509.9C1047.52 520.89 1049.31 531.96 1051.16 543.02C1052.39 557.01 1054.45 570.95 1054.48 585.01C1054.83 596 1055.02 606.99 1054.55 617.98C1054.58 633.04 1052.5 647.98 1051.14 662.95C1048.72 677.15 1046.65 691.44 1043.15 705.42C1041.12 713.3 1039.78 721.35 1037.16 729.07C1033.58 739.81 1030.59 750.76 1026.32 761.26C1022.52 770.7 1019.27 780.37 1014.72 789.5C1010.2 798.68 1006.42 808.25 1001.05 816.98C996.4 824.98 992.21 833.26 987.07 840.96C981.27 849.81 975.97 858.99 969.5 867.38C963.51 875.37 957.86 883.64 951.2 891.11C945.8 897.4 940.51 903.79 934.97 909.96C927.99 916.98 921.16 924.16 914.1 931.1C907.11 937.47 899.89 943.58 892.86 949.9C885.15 956.22 877.19 962.23 869.36 968.4C862.19 973.64 854.67 978.38 847.29 983.3C839.91 988.4 831.88 992.46 824.21 997.09C815.72 1002.24 806.66 1006.35 797.82 1010.84C786.56 1016.81 774.5 1020.99 762.79 1025.95C752.92 1029.62 742.81 1032.59 732.84 1035.96C722.45 1038.9 711.98 1041.56 701.53 1044.24C687.08 1046.95 672.71 1050.32 658.04 1051.6C635.5 1054.61 612.71 1055.19 589.99 1054.67C578.95 1054.85 567.97 1053.54 556.99 1052.65C547.62 1052.33 538.47 1050.11 529.2 1048.89C517.95 1047.41 506.96 1044.53 495.87 1042.22C486.77 1040.45 478.06 1037.19 469.14 1034.76C458.81 1031.94 448.93 1027.77 438.83 1024.26C430.37 1021.38 422.35 1017.43 414.21 1013.78C401.41 1008.4 389.45 1001.28 377.21 994.78C364.67 987.1 351.8 979.86 340.13 970.87C329.38 963.41 319.21 955.18 309.25 946.71C302.19 941.17 295.86 934.81 289.41 928.59C278.92 919.07 269.72 908.29 260.08 897.94C253.62 890.06 247.29 882.06 240.96 874.07C234.61 865.09 228.25 856.09 222.19 846.91C217.28 838.75 212.32 830.62 207.45 822.44C202.68 813.15 197.77 803.93 193.18 794.55C187.68 781.32 181.43 768.38 177.15 754.68C171.41 739.45 167.24 723.7 163.06 707.99C160.29 694.04 156.97 680.18 155.36 666.03C151.96 644.54 150.85 622.74 151.13 601C150.99 589.83 151.26 578.65 152.31 567.53C152.43 557.9 154.29 548.44 155.51 538.93C157.12 525.15 160.4 511.65 162.99 498.04C169.8 471.49 178.05 445.22 189.37 420.22C193.87 408.64 200.25 397.96 205.69 386.82C211.11 376.97 217.13 367.47 222.87 357.8C228.8 349.11 234.88 340.5 240.93 331.89C246.99 324.29 253.1 316.73 259.13 309.12C266.06 301.39 273.19 293.85 280.21 286.21C286.05 280.38 292.12 274.8 297.99 269C304.67 262.26 312.38 256.69 319.52 250.48C327.21 243.69 335.96 238.27 344.15 232.13C352.03 226.19 360.66 221.36 368.95 216.02C379.67 209.09 391.28 203.72 402.45 197.57C412.51 192.89 422.65 188.34 432.83 183.91C445.67 179.24 458.29 173.88 471.53 170.39C483.07 166.85 494.74 163.75 506.57 161.32C520.8 157.59 535.48 156.15 549.99 153.89C559.78 153.09 569.54 152.02 579.34 151.32ZM388.35 318.17C376.35 319.25 364.92 323.13 353.37 326.28C347.34 328.46 341.5 331.13 335.53 333.48C328.07 336.26 321.47 340.81 314.45 344.48C307.34 348 301.77 353.77 295.52 358.51C289.01 363.29 284.27 369.93 278.73 375.71C273.6 380.84 270.41 387.44 266.36 393.38C260.55 401.58 257.53 411.27 253.3 420.29C250.72 428.25 249.06 436.49 246.95 444.59C281.67 448.87 316.37 453.3 351.09 457.56C352.74 453.07 354.29 448.55 356.07 444.12C357.76 440.61 360.18 437.52 362.19 434.19C364.82 429.63 369.03 426.37 372.58 422.58C375.98 418.8 380.64 416.59 384.78 413.77C389.62 410.42 395.5 409.26 400.91 407.14C412.21 404.51 424.31 403.61 435.49 407.33C453.91 412.42 469.51 426.13 477.64 443.34C486.26 461.42 486.42 483.41 477.41 501.37C470.97 515.1 459.47 526.19 445.95 532.93C437.78 536.9 429.36 540.63 420.36 542.22C413.17 544.35 405.62 544 398.22 544.37C398.3 570.4 398.19 596.42 398.27 622.45C404.38 622.93 410.64 622.72 416.56 624.54C421.7 626.05 427.08 626.83 431.99 629.04C436.73 631.29 441.71 633.07 446.27 635.69C450.68 638.63 455.23 641.38 459.53 644.49C465.76 650.26 472.43 655.74 477.08 662.96C482.52 669.31 485.89 677 489.55 684.45C490.95 689.48 491.4 694.77 492.08 699.95C491.87 706.75 492.42 713.76 490.25 720.32C489.02 725.92 487.27 731.38 484.47 736.41C481.8 743.23 476.77 748.66 472.35 754.38C468.63 758 464.72 761.47 460.69 764.74C455.1 767.9 449.66 771.49 443.54 773.56C428.63 779.74 411.34 780.57 396.08 775.15C389.69 773.49 384.16 769.7 378.49 766.5C373.51 762.17 368.07 758.16 364.33 752.63C354.32 740.01 347.72 724.8 344.87 708.96C309.15 710.95 273.44 713.13 237.72 715.17C238.34 724.1 237.89 733.17 239.87 741.95C241.17 748.22 241.77 754.68 244.07 760.7C246.27 766.58 247.68 772.79 250.61 778.39C254.55 785.97 257.92 793.93 263.4 800.59C269.17 809.6 276.72 817.2 284.11 824.87C289.42 829.26 294.87 833.49 300.39 837.61C309.08 842.73 317.7 848.03 326.94 852.13C334.83 855.69 342.31 860.31 350.77 862.43C360.18 865.07 369.32 868.92 379.09 870.1C388.7 871.47 398.2 874.1 407.98 873.72C422.86 874.28 437.76 873.91 452.57 872.34C459.86 870.79 467.19 869.37 474.44 867.64C481.67 865.19 488.91 862.78 496.07 860.14C503.01 856.76 510 853.45 516.82 849.82C523.19 845.56 529.56 841.27 535.8 836.8C541.66 831.67 547.58 826.59 553.25 821.26C558.55 815.21 564.14 809.4 569.07 803.04C574.26 794.87 580.36 787.21 584.25 778.28C587.08 772.09 590.78 766.22 592.39 759.54C594.42 751.71 597.72 744.13 598.08 735.96C600.61 715.49 602.12 694.36 596.65 674.22C595.32 666.69 591.94 659.8 589.26 652.7C579.71 632.65 565.47 614.51 547.04 601.92C542.14 597.87 536.31 595.27 530.83 592.13C524.46 588.39 517.23 586.57 510.6 583.39C517.45 578.66 524.98 574.85 531.11 569.14C535.5 565.18 540.3 561.65 544.16 557.14C548.97 551.61 554.35 546.51 558.12 540.16C562.46 533.96 566.58 527.6 569.54 520.6C574.04 512.41 576.58 503.4 579.59 494.6C581.75 484.5 584.17 474.36 584.13 463.97C585.08 455.62 583.73 447.3 583.11 438.99C582.71 433.98 580.92 429.24 579.78 424.39C577.85 417.76 576.94 410.7 573.26 404.73C568.77 396.9 565.8 388.1 559.72 381.3C555.32 376.01 551.4 370.3 546.69 365.29C539.62 359.68 532.48 354.14 525.26 348.74C517.48 344.13 509.61 339.65 501.72 335.24C493.25 331.58 484.61 328.29 476.02 324.93C467.05 322.5 457.98 320.39 448.93 318.29C440.64 317.37 432.33 316.57 424.01 316.01C412.1 316.22 400.1 315.83 388.35 318.17ZM802.31 323.21C795.75 324.11 789.15 324.76 782.62 325.82C775.78 327.54 768.94 329.29 762.15 331.2C755.38 333.99 748.65 336.92 742.01 340.01C734.73 344.65 727.73 349.72 720.55 354.52C715.11 358.71 710.3 363.67 705.09 368.14C696.3 375.4 689.99 385.02 682.54 393.54C669 412.62 657.86 433.39 649.32 455.18C646.48 464.35 643.46 473.47 640.8 482.69C638.06 495.81 634.54 508.81 633.13 522.18C629.87 543.01 628.7 564.07 626.72 585.05C626.55 600.38 626.23 615.73 626.29 631.07C627.33 645.95 628.51 660.83 629.72 675.7C631.86 690.24 634.25 704.74 636.49 719.27C639.2 732.13 642.38 745.05 648.11 756.94C653.19 768 658.01 779.22 664.2 789.72C668.62 798.35 674.37 806.18 679.8 814.18C683.99 819.31 688.68 824 693.05 828.97C698.38 835.34 705.22 840.15 711.4 845.63C718.12 851.84 726.27 856.11 733.76 861.28C739.43 865.36 746.08 867.64 752.32 870.67C761.38 875.35 771.61 876.85 781.33 879.65C791.82 880.55 802.39 882.53 812.92 881.09C819.48 880.31 826.22 880.53 832.57 878.47C840.66 876.07 849.15 874.72 856.68 870.71C862.94 867.65 869.69 865.47 875.36 861.33C882.81 856.15 890.89 851.81 897.6 845.63C903.61 840.31 910.26 835.64 915.5 829.49C918.37 826.35 921.21 823.18 924.08 820.04C930.49 813.55 934.92 805.48 940.11 798.05C944.86 789.71 950.02 781.57 953.86 772.75C958.59 762.57 963.53 752.42 966.91 741.7C971.99 727.13 973.59 711.68 976.2 696.55C977.53 687.36 979.63 678.27 980.07 668.98C980.92 656.64 981.86 644.31 982.7 631.97C982.87 616.67 982.57 601.36 982.58 586.06C981.38 571.01 979.97 555.98 978.64 540.94C976.49 525.34 974.55 509.68 970.76 494.37C968.56 482.07 964.44 470.28 960.91 458.33C959.09 451.84 955.86 445.88 953.3 439.67C950.41 432.52 946.41 425.91 942.85 419.09C939.34 412.18 934.69 405.96 930.58 399.41C927.1 393.7 922.44 388.88 918.32 383.65C914.78 379.52 911.65 375.01 907.56 371.4C901.77 366.2 896.11 360.86 890.28 355.71C884.66 351.6 878.74 347.92 873.03 343.95C865.63 338.32 856.59 335.68 848.29 331.72C840.67 329.34 832.9 327.32 825.11 325.55C817.51 324.84 809.95 322.99 802.31 323.21Z" fill="#FBFBFB"/>
<path d="M796.41 421.59C805.56 418.72 815.47 421.59 823.24 426.74C833.94 433.75 841.22 444.65 847.45 455.58C862.47 482.76 870.2 513.31 874.39 543.9C877.34 566.14 878.55 588.58 878.88 611C879.07 626.38 877.37 641.69 876.47 657.03C874.65 684.54 868.67 711.82 858.43 737.42C853.26 750.47 845.05 762.24 834.7 771.71C826.52 779.68 815.45 784.87 804.04 785.64C793.86 784.71 783.96 780.45 776.18 773.81C766.23 764.87 757.68 754.18 752.1 741.97C742.7 720.27 736.89 697.12 733.67 673.73C731.37 649.57 729.08 625.29 730.01 601C731.1 558.22 735.48 514.68 751.82 474.74C756.45 463.34 762.45 452.54 769.43 442.43C776.33 433.29 785.05 424.68 796.41 421.59Z" fill="#FBFBFB"/>
<path d="M388.35 318.17C400.1 315.83 412.1 316.22 424.01 316.01C432.33 316.57 440.64 317.37 448.93 318.29C457.98 320.39 467.05 322.5 476.02 324.93C484.61 328.29 493.25 331.58 501.72 335.24C509.61 339.65 517.48 344.13 525.26 348.74C532.48 354.14 539.62 359.68 546.69 365.29C551.4 370.3 555.32 376.01 559.72 381.3C565.8 388.1 568.77 396.9 573.26 404.73C576.94 410.7 577.85 417.76 579.78 424.39C580.92 429.24 582.71 433.98 583.11 438.99C583.73 447.3 585.08 455.62 584.13 463.97C584.17 474.36 581.75 484.5 579.59 494.6C576.58 503.4 574.04 512.41 569.54 520.6C566.58 527.6 562.46 533.96 558.12 540.16C554.35 546.51 548.97 551.61 544.16 557.14C540.3 561.65 535.5 565.18 531.11 569.14C524.98 574.85 517.45 578.66 510.6 583.39C517.23 586.57 524.46 588.39 530.83 592.13C536.31 595.27 542.14 597.87 547.04 601.92C565.47 614.51 579.71 632.65 589.26 652.7C591.94 659.8 595.32 666.69 596.65 674.22C602.12 694.36 600.61 715.49 598.08 735.96C597.72 744.13 594.42 751.71 592.39 759.54C590.78 766.22 587.08 772.09 584.25 778.28C580.36 787.21 574.26 794.87 569.07 803.04C564.14 809.4 558.55 815.21 553.25 821.26C547.58 826.59 541.66 831.67 535.8 836.8C529.56 841.27 523.19 845.56 516.82 849.82C510 853.45 503.01 856.76 496.07 860.14C488.91 862.78 481.67 865.19 474.44 867.64C467.19 869.37 459.86 870.79 452.57 872.34C437.76 873.91 422.86 874.28 407.98 873.72C398.2 874.1 388.7 871.47 379.09 870.1C369.32 868.92 360.18 865.07 350.77 862.43C342.31 860.31 334.83 855.69 326.94 852.13C317.7 848.03 309.08 842.73 300.39 837.61C294.87 833.49 289.42 829.26 284.11 824.87C276.72 817.2 269.17 809.6 263.4 800.59C257.92 793.93 254.55 785.97 250.61 778.39C247.68 772.79 246.27 766.58 244.07 760.7C241.77 754.68 241.17 748.22 239.87 741.95C237.89 733.17 238.34 724.1 237.72 715.17C273.44 713.13 309.15 710.95 344.87 708.96C347.72 724.8 354.32 740.01 364.33 752.63C368.07 758.16 373.51 762.17 378.49 766.5C384.16 769.7 389.69 773.49 396.08 775.15C411.34 780.57 428.63 779.74 443.54 773.56C449.66 771.49 455.1 767.9 460.69 764.74C464.72 761.47 468.63 758 472.35 754.38C476.77 748.66 481.8 743.23 484.47 736.41C487.27 731.38 489.02 725.92 490.25 720.32C492.42 713.76 491.87 706.75 492.08 699.95C491.4 694.77 490.95 689.48 489.55 684.45C485.89 677 482.52 669.31 477.08 662.96C472.43 655.74 465.76 650.26 459.53 644.49C455.23 641.38 450.68 638.63 446.27 635.69C441.71 633.07 436.73 631.29 431.99 629.04C427.08 626.83 421.7 626.05 416.56 624.54C410.64 622.72 404.38 622.93 398.27 622.45C398.19 596.42 398.3 570.4 398.22 544.37C405.62 544 413.17 544.35 420.36 542.22C429.36 540.63 437.78 536.9 445.95 532.93C459.47 526.19 470.97 515.1 477.41 501.37C486.42 483.41 486.26 461.42 477.64 443.34C469.51 426.13 453.91 412.42 435.49 407.33C424.31 403.61 412.21 404.51 400.91 407.14C395.5 409.26 389.62 410.42 384.78 413.77C380.64 416.59 375.98 418.8 372.58 422.58C369.03 426.37 364.82 429.63 362.19 434.19C360.18 437.52 357.76 440.61 356.07 444.12C354.29 448.55 352.74 453.07 351.09 457.56C316.37 453.3 281.67 448.87 246.95 444.59C249.06 436.49 250.72 428.25 253.3 420.29C257.53 411.27 260.55 401.58 266.36 393.38C270.41 387.44 273.6 380.84 278.73 375.71C284.27 369.93 289.01 363.29 295.52 358.51C301.77 353.77 307.34 348 314.45 344.48C321.47 340.81 328.07 336.26 335.53 333.48C341.5 331.13 347.34 328.46 353.37 326.28C364.92 323.13 376.35 319.25 388.35 318.17Z" fill="#010101"/>
<path d="M802.31 323.21C809.95 322.99 817.51 324.84 825.11 325.55C832.9 327.32 840.67 329.34 848.29 331.72C856.59 335.68 865.63 338.32 873.03 343.95C878.74 347.92 884.66 351.6 890.28 355.71C896.11 360.86 901.77 366.2 907.56 371.4C911.65 375.01 914.78 379.52 918.32 383.65C922.44 388.88 927.1 393.7 930.58 399.41C934.69 405.96 939.34 412.18 942.85 419.09C946.41 425.91 950.41 432.52 953.3 439.67C955.86 445.88 959.09 451.84 960.91 458.33C964.44 470.28 968.56 482.07 970.76 494.37C974.55 509.68 976.49 525.34 978.64 540.94C979.97 555.98 981.38 571.01 982.58 586.06C982.57 601.36 982.87 616.67 982.7 631.97C981.86 644.31 980.92 656.64 980.07 668.98C979.63 678.27 977.53 687.36 976.2 696.55C973.59 711.68 971.99 727.13 966.91 741.7C963.53 752.42 958.59 762.57 953.86 772.75C950.02 781.57 944.86 789.71 940.11 798.05C934.92 805.48 930.49 813.55 924.08 820.04C921.21 823.18 918.37 826.35 915.5 829.49C910.26 835.64 903.61 840.31 897.6 845.63C890.89 851.81 882.81 856.15 875.36 861.33C869.69 865.47 862.94 867.65 856.68 870.71C849.15 874.72 840.66 876.07 832.57 878.47C826.22 880.53 819.48 880.31 812.92 881.09C802.39 882.53 791.82 880.55 781.33 879.65C771.61 876.85 761.38 875.35 752.32 870.67C746.08 867.64 739.43 865.36 733.76 861.28C726.27 856.11 718.12 851.84 711.4 845.63C705.22 840.15 698.38 835.34 693.05 828.97C688.68 824 683.99 819.31 679.8 814.18C674.37 806.18 668.62 798.35 664.2 789.72C658.01 779.22 653.19 768 648.11 756.94C642.38 745.05 639.2 732.13 636.49 719.27C634.25 704.74 631.86 690.24 629.72 675.7C628.51 660.83 627.33 645.95 626.29 631.07C626.23 615.73 626.55 600.38 626.72 585.05C628.7 564.07 629.87 543.01 633.13 522.18C634.54 508.81 638.06 495.81 640.8 482.69C643.46 473.47 646.48 464.35 649.32 455.18C657.86 433.39 669 412.62 682.54 393.54C689.99 385.02 696.3 375.4 705.09 368.14C710.3 363.67 715.11 358.71 720.55 354.52C727.73 349.72 734.73 344.65 742.01 340.01C748.65 336.92 755.38 333.99 762.15 331.2C768.94 329.29 775.78 327.54 782.62 325.82C789.15 324.76 795.75 324.11 802.31 323.21ZM796.41 421.59C785.05 424.68 776.33 433.29 769.43 442.43C762.45 452.54 756.45 463.34 751.82 474.74C735.48 514.68 731.1 558.22 730.01 601C729.08 625.29 731.37 649.57 733.67 673.73C736.89 697.12 742.7 720.27 752.1 741.97C757.68 754.18 766.23 764.87 776.18 773.81C783.96 780.45 793.86 784.71 804.04 785.64C815.45 784.87 826.52 779.68 834.7 771.71C845.05 762.24 853.26 750.47 858.43 737.42C868.67 711.82 874.65 684.54 876.47 657.03C877.37 641.69 879.07 626.38 878.88 611C878.55 588.58 877.34 566.14 874.39 543.9C870.2 513.31 862.47 482.76 847.45 455.58C841.22 444.65 833.94 433.75 823.24 426.74C815.47 421.59 805.56 418.72 796.41 421.59Z" fill="#010101"/>
</svg>
