<svg width="1206" height="1206" viewBox="0 0 1206 1206" fill="none" xmlns="http://www.w3.org/2000/svg">
<path d="M596.59 0H611.39C623.32 0.78 635.29 0.78 647.2 1.96C659.04 3.1 670.95 3.64 682.71 5.56C694.16 7.36 705.74 8.5 717.07 11.08C728.16 13.45 739.4 15.26 750.31 18.43C761.82 21.69 773.52 24.33 784.82 28.33C794.91 31.78 805.2 34.73 815.1 38.73C824.8 42.74 834.66 46.37 844.28 50.57C857.59 56.92 871.26 62.58 884.1 69.89C893.79 75.18 903.69 80.11 912.98 86.09C922.36 92.05 932.13 97.41 941.12 103.96C952.19 111.82 963.5 119.38 973.97 128.06C985.43 136.83 996.49 146.1 1007.12 155.87C1017.61 164.67 1026.98 174.69 1036.72 184.28C1044.09 191.62 1050.7 199.64 1057.65 207.36C1066.04 216.38 1073.33 226.34 1081.05 235.93C1088.48 245.02 1094.83 254.9 1101.7 264.4C1108.55 273.76 1114.18 283.92 1120.33 293.73C1126.92 304.1 1132.36 315.14 1138.28 325.89C1141.42 331.49 1144.15 337.3 1146.8 343.14C1151.41 353.27 1156.46 363.23 1160.38 373.67C1164.38 384.1 1169.04 394.29 1172.32 404.98C1175.81 416.08 1180.02 426.95 1182.83 438.26C1185.78 449.73 1189.49 461.03 1191.63 472.71C1193.81 484.04 1196.58 495.27 1198.06 506.73C1199.4 516.91 1201.19 527.04 1202.23 537.27C1203.02 548.52 1204.33 559.73 1204.9 571C1205.53 579.84 1205.45 588.72 1206 597.56V609.43C1205.32 622.02 1205.24 634.65 1204.05 647.21C1202.92 658.85 1202.4 670.56 1200.53 682.12C1198.7 693.73 1197.54 705.46 1194.95 716.94C1192.51 728.22 1190.72 739.65 1187.46 750.74C1184.28 761.79 1181.77 773.04 1177.99 783.91C1174.08 795.29 1170.77 806.9 1166.11 818.01C1161.73 828.62 1157.83 839.43 1152.9 849.8C1148.93 858.2 1145.26 866.75 1141.09 875.07C1135.99 884.6 1130.81 894.1 1125.59 903.56C1121.04 911.3 1116.21 918.87 1111.58 926.55C1105.35 937.09 1097.87 946.81 1090.91 956.87C1085.56 964.76 1079.38 972.04 1073.53 979.56C1063.63 992.53 1052.48 1004.46 1041.64 1016.63C1029.86 1028.53 1018.3 1040.69 1005.6 1051.61C998.34 1058.03 991.31 1064.73 983.57 1070.6C974.5 1077.56 965.88 1085.11 956.36 1091.48C948.88 1096.62 941.52 1101.93 933.98 1106.98C926.23 1111.93 918.35 1116.67 910.58 1121.58C901.71 1127.31 892.12 1131.75 882.9 1136.86C871.79 1143.02 860.12 1148.04 848.71 1153.59C842.75 1156.55 836.53 1158.92 830.34 1161.32C820.41 1165.13 810.63 1169.34 800.48 1172.56C789.44 1176.08 778.65 1180.43 767.36 1183.13C755.76 1186.03 744.31 1189.61 732.54 1191.77C721.14 1193.96 709.85 1196.72 698.35 1198.25C687.24 1199.77 676.22 1202.02 665.02 1202.75C655.68 1203.6 646.33 1204.36 636.99 1205.13C628.8 1205.6 620.58 1205.4 612.4 1206H594.58C583.73 1205.32 572.84 1205.69 562.02 1204.55C548.91 1203.29 535.71 1202.76 522.71 1200.52C511.46 1198.72 500.13 1197.4 489 1194.96C477.85 1192.53 466.55 1190.73 455.57 1187.6C444.08 1184.42 432.39 1181.91 421.16 1177.85C409.79 1173.85 398.2 1170.44 387.06 1165.8C376.9 1161.6 366.42 1158.14 356.56 1153.24C347.16 1148.63 337.53 1144.5 328.27 1139.62C319.62 1134.96 310.9 1130.42 302.26 1125.72C294.54 1121.18 287.04 1116.27 279.39 1111.61C269.5 1105.69 260.3 1098.72 250.76 1092.28C240.86 1085.66 231.82 1077.88 222.42 1070.58C213.52 1063.9 205.59 1056.07 197.22 1048.77C185.96 1039.06 175.95 1028.05 165.37 1017.62C157.14 1008.84 149.3 999.68 141.32 990.67C131.49 978.14 121.15 965.98 112.2 952.79C107.79 946.51 103.31 940.29 99 933.95C93.94 926 89.07 917.94 84.03 909.97C79.11 902.34 75.21 894.12 70.81 886.18C66.99 879.21 63.27 872.16 60.06 864.88C55.55 854.77 50.48 844.9 46.54 834.55C43.1 825.71 39.36 816.99 36.06 808.09C32.76 798.54 29.75 788.88 26.49 779.31C23.48 769.74 21.16 759.98 18.44 750.33C15.17 739.08 13.33 727.49 10.86 716.05C8.47 705.34 7.39 694.4 5.69 683.57C3.59 670.48 2.83 657.23 1.49 644.05C0.26 633.21 0.7 622.28 0 611.41V594.58C0.56 586.05 0.4 577.49 0.88 568.96C1.85 557.67 2.93 546.39 3.97 535.11C5.47 523.4 7.24 511.73 8.94 500.05C11.05 488.34 13.62 476.71 15.97 465.05C19.17 452.66 22.56 440.31 26.05 428C29.7 417.28 33.05 406.45 36.83 395.78C43.38 379.44 49.55 362.93 57.36 347.14C64.08 331.73 72.39 317.11 80.28 302.3C86.5 291.9 92.96 281.64 99.43 271.4C106.41 261.41 113.35 251.38 120.55 241.54C129.94 229.94 138.66 217.79 148.82 206.83C155.45 199.46 161.72 191.76 168.87 184.87C179.31 174.64 189.23 163.85 200.46 154.47C213.97 141.85 228.69 130.66 243.22 119.27C252.99 112.38 262.69 105.38 272.58 98.66C282.31 92.66 292.03 86.64 301.83 80.77C312 75.22 322.15 69.63 332.42 64.26C342.82 59.29 353.3 54.48 363.78 49.66C372.51 46.07 381.31 42.64 390.06 39.09C399.76 35.05 409.89 32.19 419.82 28.78C432.04 24.42 444.71 21.57 457.16 18.02C467.12 15.13 477.41 13.6 487.52 11.35C499.91 8.59 512.53 7.22 525.06 5.31C536.24 3.52 547.56 3.08 558.81 1.95C571.37 0.73 584 0.69 596.59 0ZM576.47 151.67C567.38 152.6 558.25 153.11 549.17 154.05C535.22 156.22 521.12 157.63 507.42 161.16C495.36 163.68 483.45 166.83 471.71 170.54C458.5 174.02 445.92 179.39 433.07 183.93C423.24 188.1 413.5 192.51 403.8 196.97C389.13 204.7 374.5 212.53 360.56 221.53C349.48 227.83 339.6 235.91 329.21 243.24C322.15 248.43 315.66 254.34 308.84 259.85C299.78 267.04 291.79 275.45 283.3 283.28C277.04 289.38 271.34 296.01 265.44 302.44C258.37 309.77 252.37 318.02 245.86 325.83C239.64 333.07 234.57 341.18 229.06 348.95C221.36 359.59 215.15 371.2 208.32 382.4C200.77 396.78 193.03 411.1 187.05 426.22C182.07 437 178.26 448.24 174.36 459.44C170.42 469.74 168.06 480.54 165.03 491.13C156.87 522.77 152.43 555.31 151.15 587.95C151.29 604.01 150.52 620.13 152.3 636.13C152.69 647.46 154.53 658.67 155.97 669.91C157.45 682.64 160.69 695.08 163.13 707.65C166.08 718.8 168.94 729.98 172.32 741.01C176.65 752.86 180.39 764.94 185.63 776.44C189.27 784.71 192.4 793.22 196.69 801.19C201.76 810.76 206.29 820.62 211.99 829.84C217.08 838.13 221.51 846.83 227.3 854.67C233.29 863.01 238.77 871.74 245.39 879.62C252.77 888.55 259.72 897.86 267.83 906.16C278.72 918.92 291.09 930.26 303.4 941.61C315.05 951.35 326.57 961.28 339.07 969.93C351.11 979.21 364.27 986.85 377.15 994.89C386.28 999.75 395.36 1004.76 404.6 1009.43C417.39 1015.07 429.95 1021.27 443.16 1025.89C467.78 1035.79 493.67 1041.97 519.56 1047.54C530.03 1049.16 540.52 1050.72 551.02 1052.2C563.68 1053.08 576.28 1055.05 589 1054.86C604 1055.91 619 1054.95 633.97 1053.97C646.12 1053.41 658.14 1051.48 670.22 1050.2C680.83 1048.41 691.37 1046.24 701.93 1044.19C712.27 1041.55 722.68 1039.12 732.95 1036.17C745.07 1031.93 757.46 1028.41 769.27 1023.32C777.7 1019.75 786.36 1016.71 794.52 1012.52C803.76 1007.81 813.32 1003.72 822.22 998.37C831.04 993.12 840.22 988.45 848.64 982.56C855.34 977.94 862.23 973.59 868.83 968.83C876.34 963.03 883.85 957.22 891.34 951.39C903.8 940.53 916.24 929.63 927.56 917.56C936.23 909.47 943.54 900.13 951.24 891.15C957.82 883.63 963.48 875.38 969.51 867.42C975.82 859.23 981.12 850.35 986.87 841.78C992.4 833.73 996.65 824.92 1001.48 816.45C1006.57 807.82 1010.31 798.49 1014.74 789.51C1019.25 780.36 1022.6 770.71 1026.39 761.25C1030.5 751.22 1033.33 740.74 1036.72 730.46C1039.64 721.9 1041.31 713 1043.59 704.27C1047.09 691.13 1048.67 677.6 1051.01 664.24C1052.14 653.18 1053.62 642.14 1054.42 631.05C1054.36 618.36 1056.01 605.68 1054.95 593C1054.35 584.33 1054.93 575.6 1053.74 566.98C1052.27 553.66 1051.16 540.29 1048.6 527.11C1046.91 514.29 1043.6 501.79 1040.52 489.26C1038.71 480.95 1035.79 472.95 1033.28 464.85C1029.07 450.86 1023.42 437.36 1018.1 423.77C1012.41 411.89 1007.37 399.66 1000.76 388.24C995.8 379.32 991.19 370.18 985.29 361.82C976.02 346.98 965.54 332.97 954.89 319.11C945.91 308.77 937.58 297.83 927.57 288.43C916.1 276.19 903.47 265.16 890.83 254.17C882.72 247.95 874.71 241.61 866.53 235.5C858.36 229.98 850.22 224.43 841.97 219.04C828.94 211.56 816.15 203.62 802.45 197.4C789.03 190.28 774.8 184.95 760.75 179.25C751.03 175.81 741.23 172.62 731.44 169.37C715.44 165.1 699.4 160.88 683.05 158.15C670.58 155.35 657.82 154.5 645.18 152.84C622.34 150.87 599.37 150.86 576.47 151.67Z" fill="#DD1800"/>
<path d="M576.47 151.67C599.37 150.86 622.34 150.87 645.18 152.84C657.82 154.5 670.58 155.35 683.05 158.15C699.4 160.88 715.44 165.1 731.44 169.37C741.23 172.62 751.03 175.81 760.75 179.25C774.8 184.95 789.03 190.28 802.45 197.4C816.15 203.62 828.94 211.56 841.97 219.04C850.22 224.43 858.36 229.98 866.53 235.5C874.71 241.61 882.72 247.95 890.83 254.17C903.47 265.16 916.1 276.19 927.57 288.43C937.58 297.83 945.91 308.77 954.89 319.11C965.54 332.97 976.02 346.98 985.29 361.82C991.19 370.18 995.8 379.32 1000.76 388.24C1007.37 399.66 1012.41 411.89 1018.1 423.77C1023.42 437.36 1029.07 450.86 1033.28 464.85C1035.79 472.95 1038.71 480.95 1040.52 489.26C1043.6 501.79 1046.91 514.29 1048.6 527.11C1051.16 540.29 1052.27 553.66 1053.74 566.98C1054.93 575.6 1054.35 584.33 1054.95 593C1056.01 605.68 1054.36 618.36 1054.42 631.05C1053.62 642.14 1052.14 653.18 1051.01 664.24C1048.67 677.6 1047.09 691.13 1043.59 704.27C1041.31 713 1039.64 721.9 1036.72 730.46C1033.33 740.74 1030.5 751.22 1026.39 761.25C1022.6 770.71 1019.25 780.36 1014.74 789.51C1010.31 798.49 1006.57 807.82 1001.48 816.45C996.65 824.92 992.4 833.73 986.87 841.78C981.12 850.35 975.82 859.23 969.51 867.42C963.48 875.38 957.82 883.63 951.24 891.15C943.54 900.13 936.23 909.47 927.56 917.56C916.24 929.63 903.8 940.53 891.34 951.39C883.85 957.22 876.34 963.03 868.83 968.83C862.23 973.59 855.34 977.94 848.64 982.56C840.22 988.45 831.04 993.12 822.22 998.37C813.32 1003.72 803.76 1007.81 794.52 1012.52C786.36 1016.71 777.7 1019.75 769.27 1023.32C757.46 1028.41 745.07 1031.93 732.95 1036.17C722.68 1039.12 712.27 1041.55 701.93 1044.19C691.37 1046.24 680.83 1048.41 670.22 1050.2C658.14 1051.48 646.12 1053.41 633.97 1053.97C619 1054.95 604 1055.91 589 1054.86C576.28 1055.05 563.68 1053.08 551.02 1052.2C540.52 1050.72 530.03 1049.16 519.56 1047.54C493.67 1041.97 467.78 1035.79 443.16 1025.89C429.95 1021.27 417.39 1015.07 404.6 1009.43C395.36 1004.76 386.28 999.75 377.15 994.89C364.27 986.85 351.11 979.21 339.07 969.93C326.57 961.28 315.05 951.35 303.4 941.61C291.09 930.26 278.72 918.92 267.83 906.16C259.72 897.86 252.77 888.55 245.39 879.62C238.77 871.74 233.29 863.01 227.3 854.67C221.51 846.83 217.08 838.13 211.99 829.84C206.29 820.62 201.76 810.76 196.69 801.19C192.4 793.22 189.27 784.71 185.63 776.44C180.39 764.94 176.65 752.86 172.32 741.01C168.94 729.98 166.08 718.8 163.13 707.65C160.69 695.08 157.45 682.64 155.97 669.91C154.53 658.67 152.69 647.46 152.3 636.13C150.52 620.13 151.29 604.01 151.15 587.95C152.43 555.31 156.87 522.77 165.03 491.13C168.06 480.54 170.42 469.74 174.36 459.44C178.26 448.24 182.07 437 187.05 426.22C193.03 411.1 200.77 396.78 208.32 382.4C215.15 371.2 221.36 359.59 229.06 348.95C234.57 341.18 239.64 333.07 245.86 325.83C252.37 318.02 258.37 309.77 265.44 302.44C271.34 296.01 277.04 289.38 283.3 283.28C291.79 275.45 299.78 267.04 308.84 259.85C315.66 254.34 322.15 248.43 329.21 243.24C339.6 235.91 349.48 227.83 360.56 221.53C374.5 212.53 389.13 204.7 403.8 196.97C413.5 192.51 423.24 188.1 433.07 183.93C445.92 179.39 458.5 174.02 471.71 170.54C483.45 166.83 495.36 163.68 507.42 161.16C521.12 157.63 535.22 156.22 549.17 154.05C558.25 153.11 567.38 152.6 576.47 151.67ZM825.46 316.65C818.85 317.7 812.09 317.92 805.63 319.74C799.66 321.45 793.55 322.65 787.67 324.66C781.22 327.52 774.63 330.12 768.32 333.29C760.72 338.32 753.14 343.41 745.73 348.72C739.04 354.7 732.38 360.72 725.87 366.88C720.26 373.29 715.01 380.01 709.54 386.54C695.63 405.73 684.31 426.77 675.85 448.9C672.48 460.54 668.32 471.98 665.92 483.88C663.81 493.61 661.11 503.25 660.14 513.2C656.75 534.8 655.45 556.65 653.45 578.41C653.37 591.27 653.27 604.13 653.25 617C653.03 627.07 654.3 637.08 654.88 647.12C655.75 657.21 655.86 667.4 657.78 677.38C660.91 695.6 662.53 714.18 668.1 731.89C671.82 745.46 678.72 757.83 684.41 770.63C691.31 783.97 699.16 796.83 708.14 808.87C715.41 816.58 721.74 825.27 730.13 831.84C736.41 836.93 742.16 842.73 749.15 846.88C756.61 851.45 763.5 857.05 771.71 860.27C778.1 862.88 784.11 866.55 790.9 868.11C796.73 869.55 802.47 871.36 808.33 872.7C814.21 873.49 820.16 873.73 826.07 874.38C833.56 875.31 841.05 873.73 848.53 873.32C856.13 873.07 863.24 870.14 870.58 868.44C878.14 866.82 884.85 862.81 891.93 859.87C899.65 856.79 906.12 851.44 913.17 847.15C920.77 842.66 926.99 836.32 933.84 830.82C940.72 825.4 945.9 818.24 951.9 811.92C956.12 807.66 959.1 802.43 962.51 797.55C974.5 780.18 983.21 760.86 991.56 741.55C995.76 729.36 999.08 716.83 1000.8 704.04C1002.61 692.2 1004.59 680.37 1006.3 668.51C1007.4 654 1008.43 639.48 1009.44 624.96C1009.63 609.64 1009.33 594.33 1009.33 579.02C1007.36 556.3 1005.82 533.53 1002.31 510.98C1001.38 502.1 998.86 493.5 997.04 484.79C994.61 472.58 990.37 460.84 986.91 448.91C981.16 433.76 973.91 419.21 965.72 405.25C961.99 399.65 958.43 393.95 954.64 388.39C950.7 383.35 946.52 378.49 942.5 373.52C935.46 364.26 926.03 357.28 917.7 349.27C910.2 343.71 902.27 338.72 894.54 333.48C887.81 330.05 880.8 327.16 873.85 324.2C864.29 321.75 854.85 318.48 844.95 317.66C838.47 317.04 831.96 315.23 825.46 316.65ZM432.17 316.91C353.97 439.27 275.56 561.5 197.37 683.87C200.32 695.37 202.65 707.03 205.65 718.52C209.54 729.21 213.49 739.89 217.54 750.53C222.87 761.12 228.88 771.38 234.28 781.95C308.61 782.08 382.93 781.96 457.26 782C457.22 814.33 457.31 846.66 457.22 878.99C495.44 879.02 533.67 878.99 571.9 879C571.85 845 571.89 811 571.88 777C586.88 777 601.88 777 616.89 777C616.85 740.29 616.89 703.58 616.87 666.87C600.62 666.88 584.37 666.86 568.12 666.88C568.14 550.21 568.13 433.54 568.12 316.88C522.81 316.89 477.49 316.83 432.17 316.91Z" fill="#FBFBFB"/>
<path d="M823.38 414.53C833.01 411.66 843.48 414.82 851.36 420.64C862.74 428.84 870.3 441.08 876.71 453.31C884.4 467.8 889.49 483.48 894.04 499.19C901.46 528.9 904.46 559.52 905.34 590.07C906.29 610.72 905.06 631.4 903.07 651.96C901.43 677.82 895.51 703.31 886.45 727.56C882.83 736.39 878.69 745.16 872.51 752.53C865.87 761.18 858.04 769.36 848.07 774.1C841.15 776.83 833.64 779.95 826.1 778.03C818.69 776.27 811.33 773.52 805.36 768.69C794.94 760.27 786.32 749.66 780.2 737.74C775.89 728.26 772.15 718.51 769.43 708.45C759.26 676 757.81 641.72 756.51 607.98C757.05 566.44 759.74 524.29 772.47 484.46C777.41 470.95 782.42 457.31 790.1 445.06C797.5 431.83 808.35 418.97 823.38 414.53Z" fill="#FBFBFB"/>
<path d="M406.24 562.22C421.87 538.54 437.2 514.66 452.99 491.09C453.31 550.76 453.04 610.45 453.13 670.12C413.97 670.07 374.81 670.21 335.65 670.05C359.13 634.07 382.72 598.17 406.24 562.22Z" fill="#FBFBFB"/>
<path d="M825.46 316.65C831.96 315.23 838.47 317.04 844.95 317.66C854.85 318.48 864.29 321.75 873.85 324.2C880.8 327.16 887.81 330.05 894.54 333.48C902.27 338.72 910.2 343.71 917.7 349.27C926.03 357.28 935.46 364.26 942.5 373.52C946.52 378.49 950.7 383.35 954.64 388.39C958.43 393.95 961.99 399.65 965.72 405.25C973.91 419.21 981.16 433.76 986.91 448.91C990.37 460.84 994.61 472.58 997.04 484.79C998.86 493.5 1001.38 502.1 1002.31 510.98C1005.82 533.53 1007.36 556.3 1009.33 579.02C1009.33 594.33 1009.63 609.64 1009.44 624.96C1008.43 639.48 1007.4 654 1006.3 668.51C1004.59 680.37 1002.61 692.2 1000.8 704.04C999.08 716.83 995.76 729.36 991.56 741.55C983.21 760.86 974.5 780.18 962.51 797.55C959.1 802.43 956.12 807.66 951.9 811.92C945.9 818.24 940.72 825.4 933.84 830.82C926.99 836.32 920.77 842.66 913.17 847.15C906.12 851.44 899.65 856.79 891.93 859.87C884.85 862.81 878.14 866.82 870.58 868.44C863.24 870.14 856.13 873.07 848.53 873.32C841.05 873.73 833.56 875.31 826.07 874.38C820.16 873.73 814.21 873.49 808.33 872.7C802.47 871.36 796.73 869.55 790.9 868.11C784.11 866.55 778.1 862.88 771.71 860.27C763.5 857.05 756.61 851.45 749.15 846.88C742.16 842.73 736.41 836.93 730.13 831.84C721.74 825.27 715.41 816.58 708.14 808.87C699.16 796.83 691.31 783.97 684.41 770.63C678.72 757.83 671.82 745.46 668.1 731.89C662.53 714.18 660.91 695.6 657.78 677.38C655.86 667.4 655.75 657.21 654.88 647.12C654.3 637.08 653.03 627.07 653.25 617C653.27 604.13 653.37 591.27 653.45 578.41C655.45 556.65 656.75 534.8 660.14 513.2C661.11 503.25 663.81 493.61 665.92 483.88C668.32 471.98 672.48 460.54 675.85 448.9C684.31 426.77 695.63 405.73 709.54 386.54C715.01 380.01 720.26 373.29 725.87 366.88C732.38 360.72 739.04 354.7 745.73 348.72C753.14 343.41 760.72 338.32 768.32 333.29C774.63 330.12 781.22 327.52 787.67 324.66C793.55 322.65 799.66 321.45 805.63 319.74C812.09 317.92 818.85 317.7 825.46 316.65ZM823.38 414.53C808.35 418.97 797.5 431.83 790.1 445.06C782.42 457.31 777.41 470.95 772.47 484.46C759.74 524.29 757.05 566.44 756.51 607.98C757.81 641.72 759.26 676 769.43 708.45C772.15 718.51 775.89 728.26 780.2 737.74C786.32 749.66 794.94 760.27 805.36 768.69C811.33 773.52 818.69 776.27 826.1 778.03C833.64 779.95 841.15 776.83 848.07 774.1C858.04 769.36 865.87 761.18 872.51 752.53C878.69 745.16 882.83 736.39 886.45 727.56C895.51 703.31 901.43 677.82 903.07 651.96C905.06 631.4 906.29 610.72 905.34 590.07C904.46 559.52 901.46 528.9 894.04 499.19C889.49 483.48 884.4 467.8 876.71 453.31C870.3 441.08 862.74 428.84 851.36 420.64C843.48 414.82 833.01 411.66 823.38 414.53Z" fill="#010101"/>
<path d="M432.17 316.91C477.49 316.83 522.81 316.89 568.12 316.88C568.13 433.54 568.14 550.21 568.12 666.88C584.37 666.86 600.62 666.88 616.87 666.87C616.89 703.58 616.85 740.29 616.89 777C601.88 777 586.88 777 571.88 777C571.89 811 571.85 845 571.9 879C533.67 878.99 495.44 879.02 457.22 878.99C457.31 846.66 457.22 814.33 457.26 782C382.93 781.96 308.61 782.08 234.28 781.95C228.88 771.38 222.87 761.12 217.54 750.53C213.49 739.89 209.54 729.21 205.65 718.52C202.65 707.03 200.32 695.37 197.37 683.87C275.56 561.5 353.97 439.27 432.17 316.91ZM406.24 562.22C382.72 598.17 359.13 634.07 335.65 670.05C374.81 670.21 413.97 670.07 453.13 670.12C453.04 610.45 453.31 550.76 452.99 491.09C437.2 514.66 421.87 538.54 406.24 562.22Z" fill="#010101"/>
</svg>
