<svg width="1184" height="1184" viewBox="0 0 1184 1184" fill="none" xmlns="http://www.w3.org/2000/svg">
<path d="M583.47 0H600.64C683.99 1.19 767.11 19.94 842.61 55.37C906.42 85.21 964.82 126.57 1014.09 176.91C1074.22 238.03 1120.81 312.39 1149.55 393.17C1171.47 454.5 1182.95 519.47 1184 584.57V598.65C1182.73 685.56 1162.45 772.21 1124.32 850.36C1092.15 916.52 1047.57 976.63 993.54 1026.54C937.2 1078.74 870.59 1119.84 798.58 1146.57C759.3 1161.19 718.45 1171.58 676.96 1177.48C651.59 1181.31 625.94 1182.64 600.35 1184H584.57C562 1182.81 539.38 1181.74 516.95 1178.78C435.1 1168.56 355.51 1140.82 285.03 1097.96C239.71 1070.47 198.13 1036.81 161.73 998.28C113.53 947.26 74.43 887.63 47.07 822.99C16.91 752.21 1.08 675.47 0 598.57V584.4C0.59 550.05 3.93 515.74 10.31 481.98C23.4 412.19 49.23 344.82 86.19 284.19C124.18 221.69 173.88 166.36 231.93 121.86C289.5 77.65 355.31 44.18 425 23.83C476.42 8.72 529.91 0.88 583.47 0ZM568.06 151.18C507.78 154.31 448.16 170.01 394.23 197.14C331.2 228.67 276.07 275.7 234.76 332.78C171.04 420.26 140.98 531.81 153.26 639.43C161.97 719.97 193.43 797.9 243.13 861.88C281.45 911.5 330.5 952.82 385.95 982.1C432.01 1006.51 482.48 1022.47 534.15 1029.23C583.27 1035.51 633.48 1034.09 682 1024.01C760.48 1007.91 834.05 969.35 892.49 914.62C950.66 860.49 994.05 790.49 1015.96 714.06C1028.8 669.96 1034.24 623.81 1032.8 577.92C1031.45 525.91 1020.53 474.17 1000.92 425.98C979.4 373.04 947.42 324.41 907.51 283.53C853.75 228.31 785.39 187.29 711.12 166.57C664.73 153.51 616.16 148.47 568.06 151.18Z" fill="#DE3A21"/>
<path d="M568.06 151.18C616.16 148.47 664.73 153.51 711.12 166.57C785.39 187.29 853.75 228.31 907.51 283.53C947.42 324.41 979.4 373.04 1000.92 425.98C1020.53 474.17 1031.45 525.91 1032.8 577.92C1034.24 623.81 1028.8 669.96 1015.96 714.06C994.05 790.49 950.66 860.49 892.49 914.62C834.05 969.35 760.48 1007.91 682 1024.01C633.48 1034.09 583.27 1035.51 534.15 1029.23C482.48 1022.47 432.01 1006.51 385.95 982.1C330.5 952.82 281.45 911.5 243.13 861.88C193.43 797.9 161.97 719.97 153.26 639.43C140.98 531.81 171.04 420.26 234.76 332.78C276.07 275.7 331.2 228.67 394.23 197.14C448.16 170.01 507.78 154.31 568.06 151.18ZM789.6 314.81C766.71 317.76 744.1 325.76 725.57 339.72C682.15 371.42 650.29 419.28 639.62 472.14C629.64 516.65 625.2 562.43 626.9 608.02C628.21 644.69 633.48 681.18 642.17 716.82C649.25 744.55 662.46 770.55 679.73 793.3C696.01 814.61 715.98 833.24 738.96 847.14C752.46 854.37 767.06 859.61 782.15 862.29C804.76 866.39 828.4 864 849.88 855.91C869.07 848.74 886.52 837.38 901.65 823.65C928.11 799.51 947.95 768.56 960.56 735.14C968.3 715.26 972.06 694.17 975.5 673.2C985.09 613.13 984.27 551.45 973.26 491.62C971.05 480 968.9 468.33 965.44 457.01C953.22 416.42 929.85 379.02 897.76 351.21C885.15 340.53 871.58 330.57 856.08 324.54C835.18 315.83 812.12 312.11 789.6 314.81ZM243.57 391.19C243.39 420.46 243.57 449.73 243.48 479C243.45 480.34 243.57 481.68 243.85 483.01C245.4 483.21 246.68 482.27 247.95 481.58C265.27 471.53 282.69 461.67 299.98 451.59C300.09 584.78 299.87 717.97 300.09 851.16C302.69 851.71 305.36 851.45 308.01 851.5C334.02 851.5 360.02 851.5 386.03 851.5C388.65 851.45 391.31 851.71 393.9 851.18C394.13 790.46 393.94 729.74 394 669.02C393.94 554.95 394.12 440.88 393.91 326.81C391.31 326.29 388.66 326.54 386.03 326.5C359.65 326.48 333.27 326.54 306.89 326.48C285.73 348 264.77 369.71 243.57 391.19ZM435.1 391.16C434.89 421.16 435.03 451.16 435.02 481.17C434.75 482.69 436.43 483.74 437.61 482.6C455.59 472.3 473.55 461.95 491.51 451.61C491.49 574.07 491.5 696.54 491.5 819C491.72 829.81 491.06 840.68 491.83 851.45C522.97 851.5 554.11 851.58 585.24 851.41C585.82 839.29 585.33 827.13 585.5 815C585.5 704.99 585.5 594.98 585.5 484.98C585.4 432.21 585.68 379.44 585.36 326.68C556.3 326.33 527.21 326.51 498.15 326.58C477.22 348.19 456.19 369.71 435.1 391.16Z" fill="#FBFBFB"/>
<path d="M798.43 408.67C815 406.29 832.3 414.89 840.84 429.22C854 445.79 857.91 467 863.62 486.83C866.52 500.48 870.35 513.97 871.72 527.9C881.66 593.91 875.32 662.26 853.73 725.41C848.43 739.44 840.63 753.21 828.39 762.29C820.89 768.08 811.22 770.02 801.93 769.71C788.9 769.46 776.83 762.04 769.28 751.66C761.82 741.37 756.45 729.71 752.25 717.76C742.85 690.74 738.98 662.26 734.63 634.1C728.04 574.71 735.04 514.08 753.26 457.25C758.77 443.72 764.95 429.86 775.7 419.61C781.85 413.61 790.04 410.11 798.43 408.67Z" fill="#FBFBFB"/>
<path d="M789.6 314.81C812.12 312.11 835.18 315.83 856.08 324.54C871.58 330.57 885.15 340.53 897.76 351.21C929.85 379.02 953.22 416.42 965.44 457.01C968.9 468.33 971.05 480 973.26 491.62C984.27 551.45 985.09 613.13 975.5 673.2C972.06 694.17 968.3 715.26 960.56 735.14C947.95 768.56 928.11 799.51 901.65 823.65C886.52 837.38 869.07 848.74 849.88 855.91C828.4 864 804.76 866.39 782.15 862.29C767.06 859.61 752.46 854.37 738.96 847.14C715.98 833.24 696.01 814.61 679.73 793.3C662.46 770.55 649.25 744.55 642.17 716.82C633.48 681.18 628.21 644.69 626.9 608.02C625.2 562.43 629.64 516.65 639.62 472.14C650.29 419.28 682.15 371.42 725.57 339.72C744.1 325.76 766.71 317.76 789.6 314.81ZM798.43 408.67C790.04 410.11 781.85 413.61 775.7 419.61C764.95 429.86 758.77 443.72 753.26 457.25C735.04 514.08 728.04 574.71 734.63 634.1C738.98 662.26 742.85 690.74 752.25 717.76C756.45 729.71 761.82 741.37 769.28 751.66C776.83 762.04 788.9 769.46 801.93 769.71C811.22 770.02 820.89 768.08 828.39 762.29C840.63 753.21 848.43 739.44 853.73 725.41C875.32 662.26 881.66 593.91 871.72 527.9C870.35 513.97 866.52 500.48 863.62 486.83C857.91 467 854 445.79 840.84 429.22C832.3 414.89 815 406.29 798.43 408.67Z" fill="#010101"/>
<path d="M243.57 391.19C264.77 369.71 285.73 348 306.89 326.48C333.27 326.54 359.65 326.48 386.03 326.5C388.66 326.54 391.31 326.29 393.91 326.81C394.12 440.88 393.94 554.95 394 669.02C393.94 729.74 394.13 790.46 393.9 851.18C391.31 851.71 388.65 851.45 386.03 851.5C360.02 851.5 334.02 851.5 308.01 851.5C305.36 851.45 302.69 851.71 300.09 851.16C299.87 717.97 300.09 584.78 299.98 451.59C282.69 461.67 265.27 471.53 247.95 481.58C246.68 482.27 245.4 483.21 243.85 483.01C243.57 481.68 243.45 480.34 243.48 479C243.57 449.73 243.39 420.46 243.57 391.19Z" fill="#010101"/>
<path d="M435.1 391.16C456.19 369.71 477.22 348.19 498.15 326.58C527.21 326.51 556.3 326.33 585.36 326.68C585.68 379.44 585.4 432.21 585.5 484.98C585.5 594.98 585.5 704.99 585.5 815C585.33 827.13 585.82 839.29 585.24 851.41C554.11 851.58 522.97 851.5 491.83 851.45C491.06 840.68 491.72 829.81 491.5 819C491.5 696.54 491.49 574.07 491.51 451.61C473.55 461.95 455.59 472.3 437.61 482.6C436.43 483.74 434.75 482.69 435.02 481.17C435.03 451.16 434.89 421.16 435.1 391.16Z" fill="#010101"/>
</svg>
