<svg width="1206" height="1206" viewBox="0 0 1206 1206" fill="none" xmlns="http://www.w3.org/2000/svg">
<path d="M595.54 0H609.47C619.31 0.51 629.19 0.18 639.01 1.13C657.79 1.72 676.43 4.33 695.01 7.01C736.88 13.43 778 24.54 817.68 39.34C837.06 47.25 856.54 55.05 875.1 64.79C911.74 83.42 946.73 105.44 978.77 131.23C1019.75 164 1056.44 202.1 1087.88 244.1C1112.39 277.55 1133.68 313.43 1150.98 351.12C1186.64 429.12 1205.91 514.69 1206 600.49V608.5C1205.34 699.33 1183.44 789.87 1143.11 871.24C1125.36 906.46 1104.61 940.21 1080.43 971.39C1056.49 1002.76 1029.1 1031.44 999.37 1057.36C971.21 1081.82 940.94 1103.88 908.78 1122.79C874.2 1143.37 837.26 1159.81 799.33 1173.17C738.34 1194.19 673.94 1205.05 609.47 1206H593.54C545.61 1204.83 497.72 1198.69 451.3 1186.52C412.51 1176.6 374.9 1162.28 338.84 1144.95C319.32 1135.76 300.69 1124.84 282.25 1113.67C262.21 1100.69 242.61 1087 224.13 1071.87C206.9 1057.52 189.73 1043.01 174.21 1026.79C141.9 994.13 113.33 957.77 89.43 918.52C66.1 881.63 47.86 841.68 33.37 800.55C12.14 739.86 1.29 675.69 0 611.45V594.54C0.49 567.57 2.91 540.68 6.67 513.98C16.03 450.6 35.8 388.84 64.54 331.6C76.11 307.95 89.99 285.51 104.56 263.61C128.81 227.93 157.22 195.18 188.26 165.26C242.7 113.69 306.8 72.28 376.39 44.28C394.66 36.55 413.56 30.45 432.51 24.62C460.09 16.69 488.1 10.04 516.58 6.27C542.69 2.05 569.13 0.58 595.54 0ZM581.36 151.38C551.24 153.04 521.19 157.3 492 165C469.75 170.44 447.97 177.74 426.94 186.83C336.67 224.68 259.44 293.01 211.1 378.16C184.54 424.38 166.02 475.31 157.48 527.97C151.24 564.58 149.61 601.95 152.58 638.97C155.54 672.26 161.35 705.39 171.6 737.25C175.54 749.46 179.41 761.74 184.62 773.48C190.62 789.39 198.66 804.42 206.49 819.49C228.86 860.3 257.21 897.92 291.11 929.88C297.82 936.91 305.58 942.78 312.71 949.36C334.18 967.42 357.59 983.07 381.9 997.02C403.37 1008.66 425.31 1019.62 448.45 1027.55C519.74 1053.8 597.71 1061.08 672.73 1049.57C715.4 1042.63 757.31 1030.27 796.25 1011.38C866.45 978.41 927.8 926.88 972.31 863.37C998.06 827.24 1017.89 787.04 1032.17 745.07C1039.19 722.47 1045.58 699.61 1049.08 676.17C1053.1 651.98 1054.97 627.5 1055.29 603C1054.98 578.21 1053.04 553.45 1048.95 528.99C1045.35 504.91 1038.65 481.47 1031.44 458.26C1022.97 435.29 1013.8 412.5 1002.17 390.93C990.7 368.8 976.97 347.92 961.86 328.12C942.82 303.74 921.86 280.75 898.15 260.83C857.45 225.08 809.82 197.57 759.07 178.81C743.4 172.63 727.09 168.29 710.8 164.12C674.96 154.97 637.94 150.96 601.01 150.73C594.45 150.83 587.91 151.3 581.36 151.38Z" fill="#DD1800"/>
<path d="M581.36 151.38C587.91 151.3 594.45 150.83 601.01 150.73C637.94 150.96 674.96 154.97 710.8 164.12C727.09 168.29 743.4 172.63 759.07 178.81C809.82 197.57 857.45 225.08 898.15 260.83C921.86 280.75 942.82 303.74 961.86 328.12C976.97 347.92 990.7 368.8 1002.17 390.93C1013.8 412.5 1022.97 435.29 1031.44 458.26C1038.65 481.47 1045.35 504.91 1048.95 528.99C1053.04 553.45 1054.98 578.21 1055.29 603C1054.97 627.5 1053.1 651.98 1049.08 676.17C1045.58 699.61 1039.19 722.47 1032.17 745.07C1017.89 787.04 998.06 827.24 972.31 863.37C927.8 926.88 866.45 978.41 796.25 1011.38C757.31 1030.27 715.4 1042.63 672.73 1049.57C597.71 1061.08 519.74 1053.8 448.45 1027.55C425.31 1019.62 403.37 1008.66 381.9 997.02C357.59 983.07 334.18 967.42 312.71 949.36C305.58 942.78 297.82 936.91 291.11 929.88C257.21 897.92 228.86 860.3 206.49 819.49C198.66 804.42 190.62 789.39 184.62 773.48C179.41 761.74 175.54 749.46 171.6 737.25C161.35 705.39 155.54 672.26 152.58 638.97C149.61 601.95 151.24 564.58 157.48 527.97C166.02 475.31 184.54 424.38 211.1 378.16C259.44 293.01 336.67 224.68 426.94 186.83C447.97 177.74 469.75 170.44 492 165C521.19 157.3 551.24 153.04 581.36 151.38ZM521.45 378.77C502.71 380.65 484.32 386.92 468.94 397.9C434.32 422.36 408.68 459.39 398.44 500.57C392.14 526.45 388.4 552.92 386.76 579.5C384.52 618.79 388.08 658.36 396.49 696.78C404.76 737.95 427.94 776.04 461.01 801.98C488.87 825.89 529.3 833.62 564.15 822.24C581.75 816.75 597.27 806.15 610.63 793.64C628.37 777.77 642.47 757.97 652.3 736.32C660.16 720.39 664.09 702.92 667.76 685.64C673.63 656.83 675.85 627.35 675.64 597.97C675.22 562.46 670.83 526.89 661.16 492.68C650.46 457.28 628.7 425.21 599.32 402.69C577.7 385.1 549.22 376.29 521.45 378.77ZM841.52 378.84C832.47 380.04 823.37 381.57 814.83 384.89C795.92 391.34 780.08 404.19 765.93 417.93C751.65 432.87 739.14 449.73 730.63 468.64C723.26 483.7 718.81 500.01 715.7 516.43C705.25 567.2 704.04 619.85 712.34 671.02C714.78 685.54 717.52 700.06 721.67 714.2C730.29 742.38 746.21 768.17 766.96 789.05C773.53 795.17 780.32 801.07 787.46 806.54C798 814.15 809.87 819.98 822.42 823.42C847.78 830.54 875.74 828.06 899.37 816.38C917.65 807.45 932.82 793.34 946.37 778.39C965.4 755.55 979.32 728.4 985.53 699.25C998.04 644.88 999.83 588.03 990.68 532.98C988.66 518.72 985.3 504.68 981.38 490.83C968.94 451.73 943.11 416.68 908.44 394.52C888.64 382.23 864.7 376.69 841.52 378.84ZM229.02 441.06C229.01 465.66 228.95 490.27 229.05 514.87C244.32 505.9 259.7 497.1 274.96 488.11C275.06 597.74 274.96 707.36 275.01 816.99C300 817.01 325 817 349.99 816.99C350 674.25 350.01 531.51 349.99 388.76C326.67 388.73 303.35 388.73 280.03 388.77C263 406.18 246 423.61 229.02 441.06Z" fill="#FBFBFB"/>
<path d="M524.32 454.27C535.14 452.11 546.91 455.53 555.07 462.92C562.24 470.19 567.55 479.18 571.47 488.57C580.78 513.34 585.86 539.49 589.12 565.68C592.16 599.09 591.54 632.99 585.22 665.99C583.89 674.97 581.38 683.7 579.42 692.55C575.85 704.46 572.93 716.79 566.48 727.55C562.28 734.39 557.97 741.6 551.18 746.17C540.34 753.46 525.44 754.39 513.96 748.04C505.1 743.43 499.39 734.82 494.62 726.36C488.28 715.45 485.58 703 482.16 690.99C474.41 662.69 471.26 633.28 470.79 603.99C470.99 570.8 475.14 537.51 484.75 505.68C487.94 493.16 492.62 480.82 500.4 470.4C505.9 462.21 514.54 456.06 524.32 454.27Z" fill="#FBFBFB"/>
<path d="M845.31 454.22C858.96 451.59 873.91 457.82 881.49 469.54C892.13 483.27 896.57 500.35 901 516.82C915.92 575.68 915.23 638.43 898.92 696.92C895.79 707.58 892.78 718.43 886.98 728C882.96 734.43 878.93 741.24 872.61 745.69C862.21 753.08 847.75 754.45 836.26 748.83C828.54 745.3 822.85 738.64 818.47 731.56C811.21 720.88 807.63 708.36 804.08 696.09C788.02 637.17 787.38 574 802.84 514.89C807.27 497.49 812.65 479.53 824.79 465.8C830.11 459.82 837.42 455.65 845.31 454.22Z" fill="#FBFBFB"/>
<path d="M521.45 378.77C549.22 376.29 577.7 385.1 599.32 402.69C628.7 425.21 650.46 457.28 661.16 492.68C670.83 526.89 675.22 562.46 675.64 597.97C675.85 627.35 673.63 656.83 667.76 685.64C664.09 702.92 660.16 720.39 652.3 736.32C642.47 757.97 628.37 777.77 610.63 793.64C597.27 806.15 581.75 816.75 564.15 822.24C529.3 833.62 488.87 825.89 461.01 801.98C427.94 776.04 404.76 737.95 396.49 696.78C388.08 658.36 384.52 618.79 386.76 579.5C388.4 552.92 392.14 526.45 398.44 500.57C408.68 459.39 434.32 422.36 468.94 397.9C484.32 386.92 502.71 380.65 521.45 378.77ZM524.32 454.27C514.54 456.06 505.9 462.21 500.4 470.4C492.62 480.82 487.94 493.16 484.75 505.68C475.14 537.51 470.99 570.8 470.79 603.99C471.26 633.28 474.41 662.69 482.16 690.99C485.58 703 488.28 715.45 494.62 726.36C499.39 734.82 505.1 743.43 513.96 748.04C525.44 754.39 540.34 753.46 551.18 746.17C557.97 741.6 562.28 734.39 566.48 727.55C572.93 716.79 575.85 704.46 579.42 692.55C581.38 683.7 583.89 674.97 585.22 665.99C591.54 632.99 592.16 599.09 589.12 565.68C585.86 539.49 580.78 513.34 571.47 488.57C567.55 479.18 562.24 470.19 555.07 462.92C546.91 455.53 535.14 452.11 524.32 454.27Z" fill="#010101"/>
<path d="M841.52 378.84C864.7 376.69 888.64 382.23 908.44 394.52C943.11 416.68 968.94 451.73 981.38 490.83C985.3 504.68 988.66 518.72 990.68 532.98C999.83 588.03 998.04 644.88 985.53 699.25C979.32 728.4 965.4 755.55 946.37 778.39C932.82 793.34 917.65 807.45 899.37 816.38C875.74 828.06 847.78 830.54 822.42 823.42C809.87 819.98 798 814.15 787.46 806.54C780.32 801.07 773.53 795.17 766.96 789.05C746.21 768.17 730.29 742.38 721.67 714.2C717.52 700.06 714.78 685.54 712.34 671.02C704.04 619.85 705.25 567.2 715.7 516.43C718.81 500.01 723.26 483.7 730.63 468.64C739.14 449.73 751.65 432.87 765.93 417.93C780.08 404.19 795.92 391.34 814.83 384.89C823.37 381.57 832.47 380.04 841.52 378.84ZM845.31 454.22C837.42 455.65 830.11 459.82 824.79 465.8C812.65 479.53 807.27 497.49 802.84 514.89C787.38 574 788.02 637.17 804.08 696.09C807.63 708.36 811.21 720.88 818.47 731.56C822.85 738.64 828.54 745.3 836.26 748.83C847.75 754.45 862.21 753.08 872.61 745.69C878.93 741.24 882.96 734.43 886.98 728C892.78 718.43 895.79 707.58 898.92 696.92C915.23 638.43 915.92 575.68 901 516.82C896.57 500.35 892.13 483.27 881.49 469.54C873.91 457.82 858.96 451.59 845.31 454.22Z" fill="#010101"/>
<path d="M229.02 441.06C246 423.61 263 406.18 280.03 388.77C303.35 388.73 326.67 388.73 349.99 388.76C350.01 531.51 350 674.25 349.99 816.99C325 817 300 817.01 275.01 816.99C274.96 707.36 275.06 597.74 274.96 488.11C259.7 497.1 244.32 505.9 229.05 514.87C228.95 490.27 229.01 465.66 229.02 441.06Z" fill="#010101"/>
</svg>
