<svg width="1206" height="1206" viewBox="0 0 1206 1206" fill="none" xmlns="http://www.w3.org/2000/svg">
<path d="M594.53 0H612.48C618.29 0.67 624.15 0.44 629.99 0.62C641.06 0.74 652.03 2.48 663.07 3.25C673.8 3.87 684.37 5.92 695.01 7.33C710.81 9.45 726.37 12.97 741.97 16.16C753.42 19.45 765.02 22.16 776.45 25.54C793.78 31.26 811.26 36.61 828 43.95C842.15 48.98 855.37 56.21 869.19 62.02C874.37 64.21 879.08 67.33 884.09 69.86C896.65 76.42 909.03 83.32 920.93 91.03C933.59 98.06 945.09 106.87 956.96 115.11C965.87 121.41 974.34 128.3 982.85 135.12C992.14 142.08 1000.51 150.14 1009.25 157.75C1018.63 165.67 1026.98 174.69 1035.72 183.28C1043.4 190.64 1050.03 198.98 1057.19 206.82C1066.19 216.58 1074.12 227.24 1082.38 237.62C1089.07 245.72 1094.66 254.63 1100.86 263.1C1108.85 274.06 1115.41 285.95 1122.57 297.45C1126.96 304.19 1130.4 311.47 1134.4 318.44C1137.5 325.23 1141.79 331.4 1144.57 338.34C1148.51 346.44 1151.94 354.77 1156 362.81C1160.51 373.77 1164.78 384.84 1169.2 395.85C1172.73 405.54 1175.52 415.48 1178.99 425.19C1182.36 435.74 1185.02 446.5 1187.94 457.18C1190.98 467.01 1192.37 477.23 1194.64 487.25C1197.32 499.1 1198.56 511.21 1200.44 523.21C1202.59 537.06 1203.14 551.08 1204.52 565.01C1205.5 575.82 1205.19 586.7 1206 597.52V609.48C1205.09 622.64 1205.35 635.88 1203.93 649.01C1202.82 659.21 1202.68 669.53 1200.85 679.65C1198.61 694.12 1197.04 708.72 1193.76 723.02C1191.67 731.64 1190.61 740.51 1187.94 748.99C1184.49 760.65 1181.94 772.57 1177.97 784.08C1173.78 796.5 1169.97 809.06 1164.96 821.19C1161.28 829.56 1158.25 838.22 1154.42 846.53C1151.19 852.75 1148.71 859.31 1145.56 865.57C1141.23 875.27 1136.02 884.54 1130.86 893.81C1125.52 904.5 1118.93 914.48 1112.67 924.64C1105.2 937.53 1096.1 949.34 1087.59 961.53C1076.5 976.04 1065.34 990.52 1052.96 1003.95C1045.26 1012.92 1037.26 1021.63 1028.6 1029.68C1023.66 1034.05 1019.61 1039.32 1014.58 1043.6C1007.03 1050.37 999.45 1057.12 991.88 1063.87C982.38 1071.73 972.5 1079.14 962.93 1086.92C949.65 1095.94 936.84 1105.67 923.02 1113.9C914.78 1118.67 907.07 1124.34 898.5 1128.54C889.62 1133.33 880.64 1137.97 871.75 1142.74C861.05 1147.64 850.59 1153.06 839.75 1157.67C830.21 1161.46 820.61 1165.1 811.08 1168.91C792.28 1175.24 773.54 1181.83 754.22 1186.43C742.91 1190.08 731.17 1191.99 719.56 1194.43C706.9 1197.17 694.04 1198.78 681.23 1200.62C669.82 1202.61 658.2 1202.75 646.75 1204.32C635.37 1205.77 623.87 1205.04 612.47 1206H594.52C585.03 1205.09 575.46 1205.8 565.98 1204.88C540.69 1202.83 515.42 1200 490.48 1195.29C479.63 1192.72 468.53 1191.31 457.84 1188.13C445.47 1184.59 432.83 1181.93 420.74 1177.46C409.73 1173.8 398.59 1170.51 387.85 1166.1C380.42 1163.2 373.01 1160.24 365.59 1157.35C354.07 1152.31 342.82 1146.68 331.43 1141.38C321.52 1135.98 311.57 1130.67 301.62 1125.36C293.82 1120.53 285.99 1115.75 278.24 1110.84C267.27 1104.31 257.2 1096.4 246.54 1089.4C236.37 1082 226.78 1073.85 216.85 1066.16C207.18 1058.2 198.21 1049.46 188.81 1041.2C177.85 1030.17 166.49 1019.52 156.31 1007.75C151.15 1001.57 145.56 995.76 140.42 989.57C130.72 977.22 120.64 965.16 111.73 952.22C106.82 944.87 101.4 937.87 96.7 930.39C90.25 919.46 82.94 909.05 77.07 897.78C72.26 889.26 67.92 880.49 63.25 871.89C57.25 857.66 49.86 844.04 44.55 829.52C40.93 820.35 36.82 811.35 33.97 801.89C28.81 786.43 23.52 770.98 19.73 755.1C15.79 742.01 13.37 728.54 10.7 715.15C8.33 703.85 7.09 692.36 5.27 680.97C3.3 669.06 3.02 656.97 1.52 645.01C0.2 633.87 0.93 622.63 0 611.47V594.52C0.75 587.04 0.39 579.51 0.72 572.01C2.33 548.88 4.85 525.82 8.53 502.92C14.15 468.83 22.98 435.31 34.5 402.74C36.61 395.46 39.63 388.51 42.51 381.52C48.87 364.67 56.74 348.47 64.23 332.11C68.66 323.66 73.49 315.43 77.82 306.94C83.08 296.76 89.57 287.31 95.51 277.54C101.02 268.21 107.83 259.76 113.88 250.79C120.87 240.61 128.8 231.14 136.42 221.44C142.78 213.18 150.02 205.66 156.78 197.74C164.42 188.75 173.12 180.77 181.32 172.33C191.19 161.82 202.6 152.96 213.1 143.13C220.02 137.34 227.21 131.87 234.28 126.26C245.51 117 257.82 109.18 269.57 100.6C279.13 94.43 288.96 88.69 298.59 82.63C304.6 78.84 311.13 75.98 317.22 72.33C328.29 65.99 339.9 60.68 351.48 55.37C365.54 48.41 380.36 43.17 394.8 37.07C414.21 30.76 433.45 23.85 453.33 19.12C465.77 15.4 478.62 13.45 491.26 10.55C515.43 6.1 539.86 3.21 564.35 1.31C574.37 0.0999999 584.5 0.97 594.53 0ZM576.46 151.63C567.73 152.47 558.99 153.12 550.25 153.74C540.86 155.51 531.37 156.6 521.93 158C513.62 159.51 505.5 161.86 497.21 163.46C488.27 165.22 479.71 168.38 470.93 170.75C458.74 174.08 447.1 179.04 435.16 183.13C424.09 187.6 413.28 192.67 402.4 197.57C395.57 201.3 388.76 205.08 381.94 208.83C374.85 212.19 368.54 216.92 361.74 220.77C348.88 228.27 337.29 237.67 325.15 246.22C317.36 252.74 309.52 259.2 301.78 265.79C292.68 274.68 282.87 282.88 274.47 292.47C267.4 300.4 259.91 307.99 253.48 316.47C247.51 324.18 240.72 331.28 235.58 339.6C230.27 346.99 225.05 354.45 220.28 362.2C214.96 371.86 208.6 380.95 203.87 390.93C197.25 403.63 190.72 416.41 185.63 429.82C181.19 438.88 178.36 448.58 174.87 458.02C171 468.08 168.57 478.61 165.69 488.99C162.76 498.25 161.29 507.89 159.21 517.36C156.36 529.73 155.27 542.4 153.55 554.95C151.53 572.89 150.78 590.95 151.11 609C150.71 621.05 152.32 633.01 152.88 645.02C154.93 662.66 156.88 680.37 161.14 697.64C162.61 704.74 163.88 711.91 166.11 718.82C169.04 729.08 171.3 739.58 175.36 749.49C178.91 759.74 182.54 769.97 187.05 779.85C192.91 794.52 200.56 808.36 207.58 822.5C213.62 831.88 218.78 841.81 224.83 851.2C229.85 858.2 234.72 865.31 239.64 872.39C246.4 881.22 253.66 889.65 260.69 898.27C270.05 908.57 279.05 919.25 289.43 928.57C296.84 935.17 303.56 942.61 311.65 948.41C315.12 950.88 317.98 954.09 321.42 956.61C330.32 964.17 340.25 970.37 349.43 977.57C358.58 983.43 367.85 989.12 377.06 994.88C384.69 998.97 392.42 1002.86 399.96 1007.1C411.96 1012.91 424.11 1018.44 436.49 1023.38C447.18 1027.16 457.58 1031.81 468.58 1034.67C478.64 1037.71 488.72 1040.76 499.02 1042.91C510.43 1045.65 521.9 1048.32 533.58 1049.62C545.78 1051.85 558.13 1052.97 570.49 1053.78C578.93 1055.18 587.5 1054.6 596.01 1055.15C621.37 1055.72 646.71 1053.38 671.82 1049.94C684.87 1047.29 698.11 1045.48 710.97 1041.94C733.58 1036.47 755.74 1029.13 777.17 1020.08C787.92 1015.99 798.16 1010.72 808.43 1005.56C817.84 1001.28 826.51 995.6 835.57 990.66C841.57 987.45 847.17 983.59 852.79 979.77C859.47 975.11 866.48 970.9 872.84 965.79C881.03 958.97 889.97 953.05 897.75 945.74C905.09 939.09 912.8 932.82 919.65 925.65C925.25 919.92 931.05 914.39 936.51 908.53C943.54 899.92 950.92 891.61 957.98 883.02C962.21 876.92 967 871.24 971.15 865.07C978.02 856.1 983.55 846.22 989.99 836.95C998.99 821.26 1007.69 805.36 1014.96 788.78C1020.27 778.01 1024.09 766.6 1028.6 755.49C1032.26 745.37 1035.12 734.99 1038.55 724.79C1041.94 710.55 1045.96 696.43 1048.05 681.92C1048.97 675.49 1050.4 669.16 1051.33 662.74C1052.21 649.81 1054.77 637 1054.61 624.01C1054.63 614.67 1055.77 605.35 1055.14 596.01C1054.24 585.42 1055.16 574.73 1053.48 564.21C1051.08 541.61 1048.21 518.96 1042.38 496.95C1040.35 487.67 1038.04 478.46 1034.68 469.57C1030.98 455.9 1025.59 442.79 1020.39 429.65C1018.07 422.68 1014.32 416.33 1011.44 409.6C1006.14 397.65 999.82 386.2 993.28 374.9C990.71 369.36 986.91 364.55 983.6 359.46C975.38 345.95 965.69 333.42 956.24 320.77C946.93 310.09 938.39 298.68 928.11 288.89C912.21 272.37 895.05 257.05 876.72 243.28C869.94 238 863.05 232.83 855.78 228.24C849.09 223.83 842.67 218.94 835.46 215.36C826.98 210.48 818.69 205.19 809.78 201.11C799.01 195.86 788.45 190.14 777.24 185.87C770.89 183.59 764.82 180.6 758.42 178.45C744.52 173.82 730.77 168.61 716.42 165.52C701.65 161.15 686.41 158.86 671.34 155.83C662.59 154.92 653.86 153.85 645.13 152.81C622.29 150.93 599.35 150.83 576.46 151.63Z" fill="#DD1800"/>
<path d="M576.46 151.63C599.35 150.83 622.29 150.93 645.13 152.81C653.86 153.85 662.59 154.92 671.34 155.83C686.41 158.86 701.65 161.15 716.42 165.52C730.77 168.61 744.52 173.82 758.42 178.45C764.82 180.6 770.89 183.59 777.24 185.87C788.45 190.14 799.01 195.86 809.78 201.11C818.69 205.19 826.98 210.48 835.46 215.36C842.67 218.94 849.09 223.83 855.78 228.24C863.05 232.83 869.94 238 876.72 243.28C895.05 257.05 912.21 272.37 928.11 288.89C938.39 298.68 946.93 310.09 956.24 320.77C965.69 333.42 975.38 345.95 983.6 359.46C986.91 364.55 990.71 369.36 993.28 374.9C999.82 386.2 1006.14 397.65 1011.44 409.6C1014.32 416.33 1018.07 422.68 1020.39 429.65C1025.59 442.79 1030.98 455.9 1034.68 469.57C1038.04 478.46 1040.35 487.67 1042.38 496.95C1048.21 518.96 1051.08 541.61 1053.48 564.21C1055.16 574.73 1054.24 585.42 1055.14 596.01C1055.77 605.35 1054.63 614.67 1054.61 624.01C1054.77 637 1052.21 649.81 1051.33 662.74C1050.4 669.16 1048.97 675.49 1048.05 681.92C1045.96 696.43 1041.94 710.55 1038.55 724.79C1035.12 734.99 1032.26 745.37 1028.6 755.49C1024.09 766.6 1020.27 778.01 1014.96 788.78C1007.69 805.36 998.99 821.26 989.99 836.95C983.55 846.22 978.02 856.1 971.15 865.07C967 871.24 962.21 876.92 957.98 883.02C950.92 891.61 943.54 899.92 936.51 908.53C931.05 914.39 925.25 919.92 919.65 925.65C912.8 932.82 905.09 939.09 897.75 945.74C889.97 953.05 881.03 958.97 872.84 965.79C866.48 970.9 859.47 975.11 852.79 979.77C847.17 983.59 841.57 987.45 835.57 990.66C826.51 995.6 817.84 1001.28 808.43 1005.56C798.16 1010.72 787.92 1015.99 777.17 1020.08C755.74 1029.13 733.58 1036.47 710.97 1041.94C698.11 1045.48 684.87 1047.29 671.82 1049.94C646.71 1053.38 621.37 1055.72 596.01 1055.15C587.5 1054.6 578.93 1055.18 570.49 1053.78C558.13 1052.97 545.78 1051.85 533.58 1049.62C521.9 1048.32 510.43 1045.65 499.02 1042.91C488.72 1040.76 478.64 1037.71 468.58 1034.67C457.58 1031.81 447.18 1027.16 436.49 1023.38C424.11 1018.44 411.96 1012.91 399.96 1007.1C392.42 1002.86 384.69 998.97 377.06 994.88C367.85 989.12 358.58 983.43 349.43 977.57C340.25 970.37 330.32 964.17 321.42 956.61C317.98 954.09 315.12 950.88 311.65 948.41C303.56 942.61 296.84 935.17 289.43 928.57C279.05 919.25 270.05 908.57 260.69 898.27C253.66 889.65 246.4 881.22 239.64 872.39C234.72 865.31 229.85 858.2 224.83 851.2C218.78 841.81 213.62 831.88 207.58 822.5C200.56 808.36 192.91 794.52 187.05 779.85C182.54 769.97 178.91 759.74 175.36 749.49C171.3 739.58 169.04 729.08 166.11 718.82C163.88 711.91 162.61 704.74 161.14 697.64C156.88 680.37 154.93 662.66 152.88 645.02C152.32 633.01 150.71 621.05 151.11 609C150.78 590.95 151.53 572.89 153.55 554.95C155.27 542.4 156.36 529.73 159.21 517.36C161.29 507.89 162.76 498.25 165.69 488.99C168.57 478.61 171 468.08 174.87 458.02C178.36 448.58 181.19 438.88 185.63 429.82C190.72 416.41 197.25 403.63 203.87 390.93C208.6 380.95 214.96 371.86 220.28 362.2C225.05 354.45 230.27 346.99 235.58 339.6C240.72 331.28 247.51 324.18 253.48 316.47C259.91 307.99 267.4 300.4 274.47 292.47C282.87 282.88 292.68 274.68 301.78 265.79C309.52 259.2 317.36 252.74 325.15 246.22C337.29 237.67 348.88 228.27 361.74 220.77C368.54 216.92 374.85 212.19 381.94 208.83C388.76 205.08 395.57 201.3 402.4 197.57C413.28 192.67 424.09 187.6 435.16 183.13C447.1 179.04 458.74 174.08 470.93 170.75C479.71 168.38 488.27 165.22 497.21 163.46C505.5 161.86 513.62 159.51 521.93 158C531.37 156.6 540.86 155.51 550.25 153.74C558.99 153.12 567.73 152.47 576.46 151.63ZM799.45 321.6C793.59 322.47 787.61 322.61 781.83 323.93C775.6 325.7 769.34 327.34 763.15 329.19C757.5 331.41 752.02 334.06 746.42 336.4C741.42 338.4 737.28 341.91 732.79 344.78C726.95 348.92 720.54 352.35 715.49 357.49C708.72 364.06 701 369.73 695.28 377.3C689.39 384.74 682.73 391.63 677.85 399.83C666.51 416.37 657.54 434.43 650.05 452.99C646.44 465.55 641.96 477.89 639.61 490.77C632.16 521.3 630.03 552.74 627.41 583.95C627.42 598.99 627.14 614.02 627.3 629.05C628.11 642.38 629.17 655.69 630.09 669.01C630.37 674.81 631.64 680.49 632.5 686.22C635.01 701.1 636.92 716.09 640.36 730.8C644.85 747.1 652.12 762.42 659.39 777.63C666.27 790.13 673.68 802.37 682.16 813.85C689.67 821.68 696.36 830.37 704.93 837.12C710.95 842.08 716.45 847.77 723.23 851.74C730.72 856.29 737.65 861.88 745.85 865.16C752.45 867.94 758.64 871.88 765.76 873.27C771.52 874.61 777.19 876.39 782.99 877.58C790.32 878.26 797.67 878.91 805.02 879.46C812.63 879.11 820.23 878.27 827.82 877.56C833.71 876.39 839.46 874.59 845.3 873.19C852.81 871.58 859.4 867.45 866.39 864.45C874.07 861.22 880.63 855.97 887.75 851.72C894.56 847.8 900.05 842.08 906.09 837.12C914.8 830.19 921.66 821.33 929.32 813.33C940.01 798.48 949.39 782.65 956.87 765.93C960.85 757.07 965.27 748.35 967.97 738.99C973.24 723.46 974.91 707.08 977.6 691C978.82 682.34 980.69 673.77 980.98 665.01C981.93 648.34 984.4 631.72 983.65 614.98C983.3 600.67 983.95 586.31 982.39 572.06C981.07 559.34 980.32 546.57 978.78 533.88C976.98 521.68 975.88 509.34 972.74 497.38C970.18 484.16 966.34 471.27 962.36 458.43C960.52 450.96 956.83 444.18 953.87 437.14C951 430.28 947.17 423.88 943.71 417.31C940.25 410.36 935.53 404.15 931.45 397.57C928.11 392.07 923.66 387.38 919.66 382.38C915.52 377.52 911.86 372.21 906.9 368.13C899.55 361.8 893.03 354.42 884.72 349.29C878.9 345.47 873.33 341.23 867.35 337.67C860.61 334.75 853.97 331.56 847.12 328.95C838.1 326.71 829.3 323.26 819.96 322.58C813.14 322.04 806.29 320.24 799.45 321.6ZM377.23 325.49C364.11 327.34 351.35 330.96 338.68 334.73C330.6 338.63 322.39 342.28 314.44 346.45C307.27 351.58 300.15 356.8 293.14 362.15C286.79 368.45 280.76 375.08 274.58 381.56C264.43 393.88 255.23 407.22 248.96 421.97C242.24 437.06 238.63 453.23 234.55 469.15C233.24 478.4 232 487.67 230.92 496.95C230.84 503.63 230.81 510.31 230.72 517C230.4 525.31 232.13 533.49 233.11 541.71C234.15 553 237.82 563.79 240.35 574.79C243.44 583.48 247.08 591.99 250.52 600.54C254.47 607.8 258.75 614.89 262.92 622.03C267.9 628.67 273.11 635.17 278.37 641.6C284.27 647.37 290.34 652.97 296.48 658.48C303.35 662.97 310.32 667.33 317.36 671.56C324.89 674.81 332.4 678.16 340.08 681.06C351.96 683.59 363.81 686.67 375.97 687.41C382.3 687.47 388.63 687.77 394.96 687.59C407.43 686.43 419.98 684.43 431.64 679.69C444.33 675.33 456.08 668.68 467.15 661.15C470.47 658.74 473.53 655.95 477.11 653.91C475.9 663.54 473.51 672.96 471.25 682.38C465.41 703.37 458.32 724.25 447.07 743.02C443.13 748.37 439.65 754.16 434.46 758.45C429.36 763.78 423.32 768.07 417.27 772.26C411.34 775.34 404.94 777.38 398.67 779.66C393.36 781.66 387.62 781.77 382.09 782.74C375.74 784.01 369.31 782.78 362.93 782.66C358.37 782.64 354.05 781.11 349.63 780.23C338.89 778.14 328.83 773.64 318.97 769.03C317.8 768.54 315.83 767.19 315.11 769.01C300.5 793.67 285.51 818.11 270.99 842.82C278.31 846.89 285.46 851.3 292.95 855.07C303.29 859.32 313.37 864.4 324.39 866.71C352.53 875.06 382.2 878.77 411.47 875.69C425.06 874.18 438.39 871 451.57 867.43C457.29 865.27 463.04 863.15 468.57 860.52C486.75 852.36 502.56 839.6 515.8 824.83C527.97 810.66 539.01 795.51 548.34 779.34C553.88 766.57 559.5 753.82 564.87 740.97C568.93 727.3 573.11 713.66 576.89 699.91C579.92 681.31 583.58 662.8 585.65 644.07C586.9 633.96 588.11 623.85 589.35 613.75C589.61 601.83 589.83 589.91 590.13 577.99C590.72 565.71 588.92 553.5 588.33 541.26C587.54 533.75 587.56 526.14 586.16 518.7C584.04 506.47 582.13 494.2 580.06 481.96C578.38 474.21 576.06 466.61 574.14 458.92C572.35 450.73 568.42 443.25 565.55 435.42C561.48 423.92 554.58 413.78 548.92 403.05C543.49 395.22 537.72 387.61 531.9 380.06C525.6 373.72 519.47 367.19 513 361.03C506.33 355.67 499.52 350.48 492.75 345.26C485.66 341.11 478.02 337.97 470.76 334.11C466.41 331.72 461.47 330.85 456.78 329.39C451.15 327.88 445.65 325.89 439.95 324.7C430.65 323.77 421.34 322.76 412.02 322.32C400.39 323.02 388.65 322.96 377.23 325.49Z" fill="#FBFBFB"/>
<path d="M403.44 415.61C407.92 414.76 412.37 416.06 416.81 416.53C422.83 417.08 428.16 420.19 433.69 422.36C449.11 431.59 460.47 446.81 466.33 463.69C469.38 470.48 469.74 478.02 471.35 485.21C472 493.76 472.93 502.39 472.09 510.97C471.4 521.84 470.55 532.98 466.41 543.18C464.57 549.31 461.47 554.93 458.58 560.6C450.19 573.52 439.45 585.58 425.3 592.25C413.61 596.78 400.39 598.22 388.17 595.03C379.77 591.97 371.38 588.26 364.47 582.49C357.01 575.06 350.44 566.65 345.85 557.15C339.65 543.94 335.33 529.63 334.91 514.97C334.05 507.2 335.05 499.4 335.79 491.67C337.75 483.12 339.52 474.49 342.34 466.17C346.12 454.57 353.26 444.36 361.49 435.49C365.12 431.38 369.85 428.51 374.09 425.08C377.99 421.78 383.13 420.74 387.68 418.66C392.61 416.3 398.18 416.54 403.44 415.61Z" fill="#FBFBFB"/>
<path d="M801.43 418.6C812.24 417 822.69 422.45 830.46 429.56C843.83 442.25 851.98 459.23 858.82 476.08C864.89 490.34 868.66 505.44 871.72 520.6C873.72 529.63 874.96 538.81 875.95 548.01C878.46 565.56 878.87 583.3 879.58 600.98C880.3 617.36 878.91 633.72 877.8 650.05C876.16 674.99 871.95 699.85 863.64 723.47C859.63 735.3 854.99 747.18 847 756.95C837.12 770.64 822.44 782.41 805.01 783.55C793.86 782.61 783.23 777.47 775.03 769.94C765.12 760.84 757.06 749.68 751.84 737.26C744.79 720.64 740.1 703.08 736.71 685.38C734.15 672.4 733.48 659.17 732.18 646.03C730.15 621.44 730.38 596.71 732.04 572.11C734.81 529.99 742.69 487.01 763.99 450C770.8 439.21 778.6 428.13 790.28 422.2C793.7 420.23 797.51 419.04 801.43 418.6Z" fill="#FBFBFB"/>
<path d="M799.45 321.6C806.29 320.24 813.14 322.04 819.96 322.58C829.3 323.26 838.1 326.71 847.12 328.95C853.97 331.56 860.61 334.75 867.35 337.67C873.33 341.23 878.9 345.47 884.72 349.29C893.03 354.42 899.55 361.8 906.9 368.13C911.86 372.21 915.52 377.52 919.66 382.38C923.66 387.38 928.11 392.07 931.45 397.57C935.53 404.15 940.25 410.36 943.71 417.31C947.17 423.88 951 430.28 953.87 437.14C956.83 444.18 960.52 450.96 962.36 458.43C966.34 471.27 970.18 484.16 972.74 497.38C975.88 509.34 976.98 521.68 978.78 533.88C980.32 546.57 981.07 559.34 982.39 572.06C983.95 586.31 983.3 600.67 983.65 614.98C984.4 631.72 981.93 648.34 980.98 665.01C980.69 673.77 978.82 682.34 977.6 691C974.91 707.08 973.24 723.46 967.97 738.99C965.27 748.35 960.85 757.07 956.87 765.93C949.39 782.65 940.01 798.48 929.32 813.33C921.66 821.33 914.8 830.19 906.09 837.12C900.05 842.08 894.56 847.8 887.75 851.72C880.63 855.97 874.07 861.22 866.39 864.45C859.4 867.45 852.81 871.58 845.3 873.19C839.46 874.59 833.71 876.39 827.82 877.56C820.23 878.27 812.63 879.11 805.02 879.46C797.67 878.91 790.32 878.26 782.99 877.58C777.19 876.39 771.52 874.61 765.76 873.27C758.64 871.88 752.45 867.94 745.85 865.16C737.65 861.88 730.72 856.29 723.23 851.74C716.45 847.77 710.95 842.08 704.93 837.12C696.36 830.37 689.67 821.68 682.16 813.85C673.68 802.37 666.27 790.13 659.39 777.63C652.12 762.42 644.85 747.1 640.36 730.8C636.92 716.09 635.01 701.1 632.5 686.22C631.64 680.49 630.37 674.81 630.09 669.01C629.17 655.69 628.11 642.38 627.3 629.05C627.14 614.02 627.42 598.99 627.41 583.95C630.03 552.74 632.16 521.3 639.61 490.77C641.96 477.89 646.44 465.55 650.05 452.99C657.54 434.43 666.51 416.37 677.85 399.83C682.73 391.63 689.39 384.74 695.28 377.3C701 369.73 708.72 364.06 715.49 357.49C720.54 352.35 726.95 348.92 732.79 344.78C737.28 341.91 741.42 338.4 746.42 336.4C752.02 334.06 757.5 331.41 763.15 329.19C769.34 327.34 775.6 325.7 781.83 323.93C787.61 322.61 793.59 322.47 799.45 321.6ZM801.43 418.6C797.51 419.04 793.7 420.23 790.28 422.2C778.6 428.13 770.8 439.21 763.99 450C742.69 487.01 734.81 529.99 732.04 572.11C730.38 596.71 730.15 621.44 732.18 646.03C733.48 659.17 734.15 672.4 736.71 685.38C740.1 703.08 744.79 720.64 751.84 737.26C757.06 749.68 765.12 760.84 775.03 769.94C783.23 777.47 793.86 782.61 805.01 783.55C822.44 782.41 837.12 770.64 847 756.95C854.99 747.18 859.63 735.3 863.64 723.47C871.95 699.85 876.16 674.99 877.8 650.05C878.91 633.72 880.3 617.36 879.58 600.98C878.87 583.3 878.46 565.56 875.95 548.01C874.96 538.81 873.72 529.63 871.72 520.6C868.66 505.44 864.89 490.34 858.82 476.08C851.98 459.23 843.83 442.25 830.46 429.56C822.69 422.45 812.24 417 801.43 418.6Z" fill="#010101"/>
<path d="M377.23 325.49C388.65 322.96 400.39 323.02 412.02 322.32C421.34 322.76 430.65 323.77 439.95 324.7C445.65 325.89 451.15 327.88 456.78 329.39C461.47 330.85 466.41 331.72 470.76 334.11C478.02 337.97 485.66 341.11 492.75 345.26C499.52 350.48 506.33 355.67 513 361.03C519.47 367.19 525.6 373.72 531.9 380.06C537.72 387.61 543.49 395.22 548.92 403.05C554.58 413.78 561.48 423.92 565.55 435.42C568.42 443.25 572.35 450.73 574.14 458.92C576.06 466.61 578.38 474.21 580.06 481.96C582.13 494.2 584.04 506.47 586.16 518.7C587.56 526.14 587.54 533.75 588.33 541.26C588.92 553.5 590.72 565.71 590.13 577.99C589.83 589.91 589.61 601.83 589.35 613.75C588.11 623.85 586.9 633.96 585.65 644.07C583.58 662.8 579.92 681.31 576.89 699.91C573.11 713.66 568.93 727.3 564.87 740.97C559.5 753.82 553.88 766.57 548.34 779.34C539.01 795.51 527.97 810.66 515.8 824.83C502.56 839.6 486.75 852.36 468.57 860.52C463.04 863.15 457.29 865.27 451.57 867.43C438.39 871 425.06 874.18 411.47 875.69C382.2 878.77 352.53 875.06 324.39 866.71C313.37 864.4 303.29 859.32 292.95 855.07C285.46 851.3 278.31 846.89 270.99 842.82C285.51 818.11 300.5 793.67 315.11 769.01C315.83 767.19 317.8 768.54 318.97 769.03C328.83 773.64 338.89 778.14 349.63 780.23C354.05 781.11 358.37 782.64 362.93 782.66C369.31 782.78 375.74 784.01 382.09 782.74C387.62 781.77 393.36 781.66 398.67 779.66C404.94 777.38 411.34 775.34 417.27 772.26C423.32 768.07 429.36 763.78 434.46 758.45C439.65 754.16 443.13 748.37 447.07 743.02C458.32 724.25 465.41 703.37 471.25 682.38C473.51 672.96 475.9 663.54 477.11 653.91C473.53 655.95 470.47 658.74 467.15 661.15C456.08 668.68 444.33 675.33 431.64 679.69C419.98 684.43 407.43 686.43 394.96 687.59C388.63 687.77 382.3 687.47 375.97 687.41C363.81 686.67 351.96 683.59 340.08 681.06C332.4 678.16 324.89 674.81 317.36 671.56C310.32 667.33 303.35 662.97 296.48 658.48C290.34 652.97 284.27 647.37 278.37 641.6C273.11 635.17 267.9 628.67 262.92 622.03C258.75 614.89 254.47 607.8 250.52 600.54C247.08 591.99 243.44 583.48 240.35 574.79C237.82 563.79 234.15 553 233.11 541.71C232.13 533.49 230.4 525.31 230.72 517C230.81 510.31 230.84 503.63 230.92 496.95C232 487.67 233.24 478.4 234.55 469.15C238.63 453.23 242.24 437.06 248.96 421.97C255.23 407.22 264.43 393.88 274.58 381.56C280.76 375.08 286.79 368.45 293.14 362.15C300.15 356.8 307.27 351.58 314.44 346.45C322.39 342.28 330.6 338.63 338.68 334.73C351.35 330.96 364.11 327.34 377.23 325.49ZM403.44 415.61C398.18 416.54 392.61 416.3 387.68 418.66C383.13 420.74 377.99 421.78 374.09 425.08C369.85 428.51 365.12 431.38 361.49 435.49C353.26 444.36 346.12 454.57 342.34 466.17C339.52 474.49 337.75 483.12 335.79 491.67C335.05 499.4 334.05 507.2 334.91 514.97C335.33 529.63 339.65 543.94 345.85 557.15C350.44 566.65 357.01 575.06 364.47 582.49C371.38 588.26 379.77 591.97 388.17 595.03C400.39 598.22 413.61 596.78 425.3 592.25C439.45 585.58 450.19 573.52 458.58 560.6C461.47 554.93 464.57 549.31 466.41 543.18C470.55 532.98 471.4 521.84 472.09 510.97C472.93 502.39 472 493.76 471.35 485.21C469.74 478.02 469.38 470.48 466.33 463.69C460.47 446.81 449.11 431.59 433.69 422.36C428.16 420.19 422.83 417.08 416.81 416.53C412.37 416.06 407.92 414.76 403.44 415.61Z" fill="#010101"/>
</svg>
