<svg width="1206" height="1206" viewBox="0 0 1206 1206" fill="none" xmlns="http://www.w3.org/2000/svg">
<path d="M594.57 0H612.44C620.28 0.58 628.16 0.41 636.01 0.85C648.02 1.73 660.02 2.82 672.02 3.86C690.93 6.49 709.84 9.23 728.49 13.39C744.23 16.26 759.53 20.96 775.01 24.93C786.17 28.39 797.23 32.19 808.32 35.87C818.84 39.85 829.24 44.14 839.68 48.32C848.88 52.34 857.95 56.66 867.05 60.9C877.83 65.81 888.03 71.86 898.49 77.4C907.17 81.92 915.23 87.49 923.61 92.52C937.38 100.75 950.25 110.37 963.42 119.52C977.4 130.49 991.57 141.27 1004.61 153.38C1014.91 162.04 1024.36 171.63 1033.72 181.29C1042.39 189.64 1050.17 198.85 1058.21 207.8C1065.54 215.55 1071.79 224.22 1078.53 232.48C1083.6 238.79 1088.58 245.19 1093.1 251.92C1099.19 260.84 1105.85 269.38 1111.33 278.71C1117.3 288.7 1123.86 298.34 1129.23 308.68C1134.72 319.19 1140.76 329.42 1145.59 340.26C1149.3 348.54 1153.37 356.66 1156.96 365.01C1160.87 374.52 1164.53 384.13 1168.38 393.67C1171.72 402.5 1174.36 411.57 1177.45 420.49C1181.44 431.7 1184.13 443.3 1187.37 454.74C1190.73 466.23 1192.6 478.07 1195.12 489.76C1197.56 500.8 1198.7 512.06 1200.42 523.22C1202.41 535.75 1203.16 548.41 1204.47 561.02C1205.75 572.82 1205.36 584.7 1206 596.54V612.44C1205.24 623.58 1205.71 634.78 1204.36 645.88C1202.98 658.16 1202.45 670.53 1200.43 682.73C1198.63 693.94 1197.53 705.26 1195.05 716.35C1192.53 728.05 1190.67 739.92 1187.27 751.41C1184.1 762.55 1181.46 773.85 1177.66 784.79C1174.63 793.54 1172.04 802.44 1168.86 811.14C1164.81 821.3 1160.73 831.45 1156.62 841.59C1151.99 851.69 1147.32 861.77 1142.63 871.85C1138.04 881.04 1132.96 889.98 1128.24 899.1C1124.82 905.86 1120.53 912.1 1116.62 918.56C1101.15 944.15 1083.15 968.1 1064.22 991.21C1058.32 997.97 1052.28 1004.63 1046.41 1011.42C1038.65 1020.31 1029.88 1028.22 1021.75 1036.77C1016.56 1042.27 1010.61 1046.96 1005.01 1052.02C985.29 1069.91 964.14 1086.18 942.21 1101.27C932.01 1108.63 921.06 1114.83 910.39 1121.48C904.01 1125.56 897.25 1129.01 890.61 1132.65C882.73 1136.8 875.05 1141.36 866.88 1144.95C855.4 1150.09 844.19 1155.84 832.43 1160.34C822.57 1164.2 812.89 1168.56 802.77 1171.75C793.94 1174.63 785.17 1177.65 776.32 1180.44C757.98 1185.43 739.66 1190.51 720.97 1194.04C707.91 1197.18 694.55 1198.65 681.28 1200.63C669.24 1202.59 657.04 1203.02 644.93 1204.27C617.08 1206.17 589.12 1206.15 561.27 1204.29C551.43 1203.25 541.55 1202.73 531.72 1201.62C521.07 1200.11 510.41 1198.61 499.77 1197.05C488.51 1194.93 477.33 1192.38 466.13 1190.02C454.16 1187.16 442.33 1183.75 430.41 1180.68C419.35 1177.11 408.33 1173.41 397.3 1169.75C386.49 1165.59 375.76 1161.22 365.02 1156.9C356.58 1153.06 348.19 1149.12 339.76 1145.25C330.29 1141.04 321.38 1135.7 312.19 1130.92C303.94 1126.66 296.04 1121.76 288.13 1116.91C280.78 1112.24 273.07 1108.13 266.08 1102.91C256.08 1095.58 245.53 1088.97 235.96 1081.06C226.38 1073.31 216.33 1066.12 207.36 1057.65C197.07 1048.62 186.72 1039.65 177.29 1029.71C166.68 1019.61 157.06 1008.58 147.41 997.58C139.99 989.61 133.59 980.78 126.74 972.32C117.65 961.24 109.82 949.22 101.49 937.59C95.29 928.58 90.02 918.98 84.13 909.78C78.27 900.45 73.48 890.5 68.12 880.89C62.41 870.9 58.19 860.17 53.17 849.84C48.23 839.8 44.56 829.22 40.24 818.92C35.57 808.08 32.45 796.69 28.6 785.56C24.55 774 21.82 762.06 18.45 750.31C15.21 739.37 13.47 728.07 11.09 716.93C8.55 705.64 7.36 694.11 5.56 682.69C3.69 671.23 3.08 659.62 2.03 648.07C0.78 635.55 0.75 622.96 0 610.42V592.61C0.91 581.44 0.74 570.19 1.94 559.03C3.09 547.38 3.57 535.66 5.46 524.09C7.26 512.14 8.58 500.11 11.17 488.3C13.48 477.65 15.16 466.86 18.17 456.38C20.84 446.75 23.37 437.09 26.23 427.52C29.71 417.21 32.97 406.82 36.53 396.55C43.28 379.26 49.9 361.9 58.12 345.24C64.61 330.24 72.96 316.17 80.77 301.84C86.75 291.79 92.85 281.82 98.95 271.85C103.04 265.72 107.49 259.84 111.66 253.78C120.69 240.3 131.26 227.96 141.22 215.18C149.55 205.86 157.76 196.43 166.3 187.3C176.39 177.39 185.87 166.85 196.58 157.6C204.84 150.51 212.67 142.93 221.32 136.31C231.09 128.7 240.47 120.54 250.83 113.72C259.95 107.54 268.7 100.78 278.17 95.12C285.99 90.33 293.72 85.38 301.59 80.65C311.48 75.06 321.59 69.86 331.58 64.45C340.08 60.24 348.78 56.43 357.35 52.34C366.51 47.89 376.13 44.49 385.55 40.63C399.76 34.61 414.63 30.39 429.23 25.42C445.53 21.16 461.7 16.25 478.3 13.25C496.5 9.09 515.01 6.64 533.45 3.88C545.62 2.86 557.79 1.77 569.97 0.83C578.16 0.42 586.38 0.55 594.57 0ZM579.34 151.31C553.28 153.35 527.15 156.13 501.73 162.47C488 165.25 474.67 169.63 461.2 173.41C451.27 176.97 441.44 180.79 431.58 184.53C421.41 189.06 411.15 193.42 401.11 198.23C390.27 204.4 378.89 209.62 368.46 216.49C360.59 221.63 352.32 226.14 344.82 231.83C336.41 238.08 327.58 243.79 319.62 250.63C311.88 257.21 303.74 263.35 296.55 270.54C290.99 275.98 285.23 281.22 279.73 286.73C273.19 293.86 266.55 300.91 260.07 308.1C253.63 315.99 247.31 323.98 240.94 331.93C234.61 340.97 228.1 349.9 222.04 359.12C215.33 370.73 208.06 382.02 202.2 394.1C189.56 417.73 179.76 442.74 171.28 468.12C166.88 483.87 162.47 499.64 159.53 515.75C156.51 528.63 155.32 541.82 153.52 554.9C152.59 561.57 152.54 568.32 151.84 575.01C150.7 587.64 151.27 600.34 151.13 613C150.91 623.71 152.34 634.35 152.86 645.04C154.78 661.7 156.67 678.41 160.48 694.76C163.26 709.79 167.75 724.41 171.74 739.15C176.28 751.58 180.26 764.24 185.64 776.36C189.39 784.92 192.65 793.72 197.12 801.95C202.32 811.71 207.06 821.73 212.9 831.14C217.72 838.97 221.96 847.18 227.39 854.64C233.47 863.2 239.01 872.17 245.83 880.18C253.7 889.93 261.55 899.72 270.2 908.82C279.39 919.6 289.99 929.01 300.24 938.75C306.07 944.3 312.63 948.99 318.64 954.32C325.33 960.11 332.62 965.13 339.78 970.31C348.48 976.77 357.57 982.65 366.85 988.24C376.06 994.28 385.79 999.45 395.52 1004.61C406.9 1010.99 419.04 1015.85 430.93 1021.19C440.88 1025 450.89 1028.66 460.92 1032.26C474.6 1036.17 488.06 1040.91 502.08 1043.52C514.92 1046.56 527.91 1048.85 540.98 1050.69C552.23 1052.81 563.7 1053 575.06 1054.2C582.68 1054.85 590.35 1054.56 597.99 1054.76C623.52 1055.32 649.04 1053.35 674.27 1049.52C686.69 1047.04 699.26 1045.21 711.46 1041.7C720.95 1039.14 730.56 1036.98 739.84 1033.69C748.46 1030.67 757.33 1028.36 765.74 1024.75C776.03 1020.43 786.57 1016.67 796.5 1011.54C805.06 1007.14 813.94 1003.34 822.2 998.35C831.23 992.98 840.6 988.18 849.25 982.18C855.95 977.59 862.76 973.16 869.36 968.43C877.04 962.42 884.86 956.57 892.45 950.45C899.45 944.11 906.65 938 913.6 931.6C920.86 924.53 927.89 917.22 935.06 910.06C940.92 903.55 946.43 896.72 952.12 890.06C958.14 883.36 963.11 875.81 968.7 868.77C975.47 860.27 980.81 850.77 986.83 841.75C991.78 834.55 995.53 826.64 999.98 819.14C1005.68 809.41 1010.16 799.06 1015.02 788.91C1019.31 780.2 1022.38 770.98 1026.02 762.01C1030.93 750.02 1034.25 737.48 1038.34 725.2C1041.2 714.84 1043.52 704.34 1046.04 693.9C1048.19 680.66 1050.85 667.49 1052.1 654.13C1053.03 644.43 1054.66 634.78 1054.57 625.01C1054.58 615.33 1055.79 605.68 1055.15 596.01C1054.68 590.35 1054.66 584.67 1054.53 579C1054.53 569.6 1052.79 560.32 1052.01 550.98C1051.24 541.54 1049.38 532.25 1047.91 522.91C1045.96 509.38 1042.08 496.25 1038.96 482.97C1035.61 472.15 1032.39 461.26 1028.65 450.56C1023.81 438.68 1019.95 426.39 1014.07 414.96C1004.27 393.55 992.99 372.79 979.87 353.22C973.1 341.65 964.16 331.58 956.25 320.8C946.71 309.68 937.75 298 927.09 287.91C915.78 275.85 903.27 265.02 890.82 254.18C880.76 246.59 871.12 238.44 860.61 231.47C852.47 226.21 844.7 220.34 836.18 215.68C826.95 210.57 818.08 204.77 808.46 200.37C799.91 196.34 791.63 191.73 782.86 188.19C774.12 184.62 765.5 180.72 756.6 177.54C744.82 173.86 733.25 169.5 721.24 166.58C712.14 164.34 703.17 161.48 693.89 160.03C669.74 155.4 645.3 151.72 620.68 151.26C606.93 149.96 593.12 151.21 579.34 151.31Z" fill="#DD1800"/>
<path d="M579.34 151.31C593.12 151.21 606.93 149.96 620.68 151.26C645.3 151.72 669.74 155.4 693.89 160.03C703.17 161.48 712.14 164.34 721.24 166.58C733.25 169.5 744.82 173.86 756.6 177.54C765.5 180.72 774.12 184.62 782.86 188.19C791.63 191.73 799.91 196.34 808.46 200.37C818.08 204.77 826.95 210.57 836.18 215.68C844.7 220.34 852.47 226.21 860.61 231.47C871.12 238.44 880.76 246.59 890.82 254.18C903.27 265.02 915.78 275.85 927.09 287.91C937.75 298 946.71 309.68 956.25 320.8C964.16 331.58 973.1 341.65 979.87 353.22C992.99 372.79 1004.27 393.55 1014.07 414.96C1019.95 426.39 1023.81 438.68 1028.65 450.56C1032.39 461.26 1035.61 472.15 1038.96 482.97C1042.08 496.25 1045.96 509.38 1047.91 522.91C1049.38 532.25 1051.24 541.54 1052.01 550.98C1052.79 560.32 1054.53 569.6 1054.53 579C1054.66 584.67 1054.68 590.35 1055.15 596.01C1055.79 605.68 1054.58 615.33 1054.57 625.01C1054.66 634.78 1053.03 644.43 1052.1 654.13C1050.85 667.49 1048.19 680.66 1046.04 693.9C1043.52 704.34 1041.2 714.84 1038.34 725.2C1034.25 737.48 1030.93 750.02 1026.02 762.01C1022.38 770.98 1019.31 780.2 1015.02 788.91C1010.16 799.06 1005.68 809.41 999.98 819.14C995.53 826.64 991.78 834.55 986.83 841.75C980.81 850.77 975.47 860.27 968.7 868.77C963.11 875.81 958.14 883.36 952.12 890.06C946.43 896.72 940.92 903.55 935.06 910.06C927.89 917.22 920.86 924.53 913.6 931.6C906.65 938 899.45 944.11 892.45 950.45C884.86 956.57 877.04 962.42 869.36 968.43C862.76 973.16 855.95 977.59 849.25 982.18C840.6 988.18 831.23 992.98 822.2 998.35C813.94 1003.34 805.06 1007.14 796.5 1011.54C786.57 1016.67 776.03 1020.43 765.74 1024.75C757.33 1028.36 748.46 1030.67 739.84 1033.69C730.56 1036.98 720.95 1039.14 711.46 1041.7C699.26 1045.21 686.69 1047.04 674.27 1049.52C649.04 1053.35 623.52 1055.32 597.99 1054.76C590.35 1054.56 582.68 1054.85 575.06 1054.2C563.7 1053 552.23 1052.81 540.98 1050.69C527.91 1048.85 514.92 1046.56 502.08 1043.52C488.06 1040.91 474.6 1036.17 460.92 1032.26C450.89 1028.66 440.88 1025 430.93 1021.19C419.04 1015.85 406.9 1010.99 395.52 1004.61C385.79 999.45 376.06 994.28 366.85 988.24C357.57 982.65 348.48 976.77 339.78 970.31C332.62 965.13 325.33 960.11 318.64 954.32C312.63 948.99 306.07 944.3 300.24 938.75C289.99 929.01 279.39 919.6 270.2 908.82C261.55 899.72 253.7 889.93 245.83 880.18C239.01 872.17 233.47 863.2 227.39 854.64C221.96 847.18 217.72 838.97 212.9 831.14C207.06 821.73 202.32 811.71 197.12 801.95C192.65 793.72 189.39 784.92 185.64 776.36C180.26 764.24 176.28 751.58 171.74 739.15C167.75 724.41 163.26 709.79 160.48 694.76C156.67 678.41 154.78 661.7 152.86 645.04C152.34 634.35 150.91 623.71 151.13 613C151.27 600.34 150.7 587.64 151.84 575.01C152.54 568.32 152.59 561.57 153.52 554.9C155.32 541.82 156.51 528.63 159.53 515.75C162.47 499.64 166.88 483.87 171.28 468.12C179.76 442.74 189.56 417.73 202.2 394.1C208.06 382.02 215.33 370.73 222.04 359.12C228.1 349.9 234.61 340.97 240.94 331.93C247.31 323.98 253.63 315.99 260.07 308.1C266.55 300.91 273.19 293.86 279.73 286.73C285.23 281.22 290.99 275.98 296.55 270.54C303.74 263.35 311.88 257.21 319.62 250.63C327.58 243.79 336.41 238.08 344.82 231.83C352.32 226.14 360.59 221.63 368.46 216.49C378.89 209.62 390.27 204.4 401.11 198.23C411.15 193.42 421.41 189.06 431.58 184.53C441.44 180.79 451.27 176.97 461.2 173.41C474.67 169.63 488 165.25 501.73 162.47C527.15 156.13 553.28 153.35 579.34 151.31ZM801.33 314.23C792.59 315.49 783.6 315.47 775.09 318.08C767.92 320.17 760.42 321.3 753.68 324.68C747.16 327.79 740.03 329.81 734.21 334.22C727.96 338.65 721.42 342.68 715.31 347.3C708.87 353.19 702.47 359.13 696.11 365.11C690.2 371.89 684.6 378.95 678.88 385.89C665.61 405 654.43 425.58 646.11 447.32C642.76 459.21 638.46 470.86 636.15 483.03C634.41 491.65 632.04 500.17 631.04 508.93C629.47 520.56 627.58 532.16 626.9 543.89C625.96 558.59 623.76 573.24 624.12 588C624.22 600.76 623.62 613.54 624.25 626.29C625.97 644.27 626.2 662.43 629.52 680.22C633.06 701.21 635.34 722.71 643.5 742.56C647.72 752.22 652.18 761.78 656.74 771.29C661.54 779.72 666.17 788.28 671.74 796.24C674.88 800.74 677.45 805.69 681.43 809.55C688.05 816.28 693.91 823.81 701.37 829.67C707.84 834.87 713.72 840.88 720.92 845.12C728.17 849.56 734.92 854.94 742.85 858.18C749.46 860.97 755.66 864.91 762.77 866.39C768.57 867.79 774.31 869.51 780.15 870.77C786.38 871.5 792.65 871.84 798.9 872.48C804.26 873.13 809.63 872.22 814.98 871.93C820.55 871.42 826.25 871.56 831.64 869.81C839.57 867.42 847.94 866.25 855.39 862.46C862.58 859.01 870.27 856.47 876.81 851.8C883.94 846.97 891.72 843.01 898.08 837.12C904.45 831.49 911.44 826.51 916.98 820C922.59 813.58 929.1 807.85 933.49 800.46C943.38 786.12 952 770.93 958.95 754.96C963.84 744.44 968.56 733.74 971.12 722.39C974.55 707.14 976.46 691.6 979.12 676.21C981.19 665.56 981.38 654.68 982.38 643.91C983.12 632.95 984.49 622 984.13 611C983.86 596.01 984.87 580.96 983.13 566.04C981.23 543.48 979.34 520.88 975.24 498.6C972.64 487.54 970.9 476.25 967.33 465.44C965.51 459.4 963.69 453.36 961.89 447.31C953.56 424.81 942.03 403.51 927.8 384.19C920.69 375.98 914.73 366.67 906.31 359.7C901.14 355.2 896.38 350.23 891.01 345.98C883.86 341.14 876.8 336.17 869.57 331.45C862.71 328.17 855.66 325.24 848.64 322.3C840.83 320.16 833.03 317.79 825.08 316.26C817.16 315.71 809.28 313.73 801.33 314.23ZM395.04 317.04C386.86 317.17 379.02 319.68 371.03 321.11C362.87 322.41 355.39 326.06 347.62 328.67C339.5 331.29 332.24 335.86 324.6 339.54C317.55 342.8 311.62 347.9 305.16 352.12C298.91 356.06 294.05 361.72 288.56 366.59C281.92 372.33 276.97 379.65 271.26 386.26C266.94 391.3 264.65 397.66 261.36 403.36C257.36 410.02 255.72 417.69 253.07 424.93C250.59 431.25 250.56 438.14 249.4 444.76C247.66 454.09 249.08 463.59 249.17 472.99C250.19 480.21 252.03 487.3 253.42 494.46C255.09 499.78 258.01 504.62 260.21 509.75C263.2 516.99 268.06 523.19 272.11 529.85C275.39 535.39 280.27 539.7 284.42 544.56C290.21 551.48 297.63 556.72 304.34 562.68C310.57 567.23 317.52 570.69 323.92 575.01C319.65 577.41 315.32 579.69 310.99 581.98C304.5 585.25 298.66 589.63 292.57 593.56C287.31 596.84 282.94 601.28 278.16 605.19C270.85 610.89 265.77 618.79 259.72 625.71C255.28 632.09 251.6 638.97 247.58 645.61C244.45 652.51 241.67 659.58 238.89 666.63C236.18 677.61 233.15 688.6 232.5 699.95C230.83 710.22 231.84 720.62 232.25 730.95C233.51 738.19 234.83 745.44 236.5 752.6C239.87 762.25 242.7 772.17 247.97 781.02C252.35 790.76 259.04 799.13 265.23 807.75C270.26 813.04 275.32 818.34 280.69 823.31C288.84 829.53 297.07 835.66 305.34 841.73C313.27 846.24 321.55 850.14 329.6 854.45C335.5 857.82 342.23 859.24 348.58 861.5C356.31 863.81 363.81 867.12 371.91 867.94C383.92 869.48 395.8 872.9 408 872.38C416.32 872.31 424.65 872.49 432.97 872.31C443.09 870.91 453.15 869.05 463.25 867.53C468.41 866.9 473.24 864.9 478.17 863.4C483.38 861.61 488.82 860.36 493.68 857.7C500.9 853.94 508.58 851.01 515.24 846.26C521.35 842.05 527.94 838.46 533.42 833.39C539.02 828.34 545.29 823.95 550.03 818.01C554.85 812.17 560.41 806.89 564.38 800.39C568.24 794.2 572.98 788.51 575.84 781.75C578.39 776.04 581.35 770.52 583.69 764.72C585.85 757.52 588.03 750.32 589.98 743.06C591.26 735.73 592.32 728.35 593.38 720.98C593.7 712.99 593.35 704.98 593.29 696.99C592.18 689.05 591.05 681.09 589.61 673.2C587.53 666.36 585.48 659.5 583.16 652.75C578.31 642.85 573.94 632.61 567.17 623.81C562.94 616.59 557.14 610.59 551.38 604.59C545.39 597.49 537.44 592.53 530.33 586.68C523.85 582.35 516.72 579.09 510.09 575C521.97 568.28 532.91 560.05 543.59 551.59C550 545.32 556.61 539.15 561.73 531.72C567.74 524.68 571.64 516.23 576.25 508.28C578.98 501.84 581.11 495.15 583.4 488.55C584.71 481.75 585.87 474.9 586.71 468.03C586.45 459.19 586.6 450.26 584.69 441.58C583.37 431.73 580.4 422.23 577.32 412.82C574.02 405.78 570.8 398.67 567.23 391.76C562.73 385.32 558.05 378.98 553.23 372.78C547.44 367.24 541.43 361.9 535.37 356.66C527.79 351.51 520.11 346.5 512.38 341.57C504.12 337.44 495.73 333.56 487.37 329.63C478.57 326.61 469.68 323.83 460.79 321.08C448.26 318.87 435.68 316.59 422.92 316.47C413.62 315.53 404.32 316.49 395.04 317.04Z" fill="#FBFBFB"/>
<path d="M410.32 406.17C426.55 404.19 443.8 408.13 457.03 417.95C469.9 426.93 479.71 440.56 483.16 455.95C487.68 472.53 484.86 490.68 476.6 505.65C469.79 517.15 459.55 526.59 447.58 532.52C421.98 545.03 388.4 539.05 369.48 517.5C349.78 496.98 346.34 463.25 360.86 438.92C370.93 420.96 389.93 408.64 410.32 406.17Z" fill="white"/>
<path d="M797.44 411.69C807.81 410.34 818.86 412.15 827.25 418.72C840.13 428.63 848.68 443.06 855.45 457.59C862.13 472.19 866.87 487.58 870.88 503.1C878.64 537.5 880.61 572.86 880.85 608.02C879.28 640.05 877.82 672.53 868.54 703.44C863.04 722.88 855.81 742.7 841.47 757.47C834.07 765.61 824.88 772.58 814.04 775.24C802.48 778.82 789.92 775.36 779.98 769.04C766.84 760.22 756.8 747.18 750.05 732.97C738.17 705.81 731.84 676.44 729.69 646.94C728.67 630.31 726.75 613.69 727.48 597.01C727.3 583.97 728.63 570.99 729.08 557.98C731.45 527.86 736.65 497.71 747.64 469.46C754.24 453.01 762.24 436.61 774.87 423.88C780.86 417.61 788.78 412.95 797.44 411.69Z" fill="white"/>
<path d="M402.48 630.81C415.98 629.3 429.91 630.95 442.28 636.74C469.17 648.41 487.24 677.66 485.58 706.95C484.94 724.98 477.02 742.56 464.35 755.35C455.37 765.04 443.31 771.4 430.68 774.92C410.6 780.18 388.45 776.31 371.16 764.89C348.61 749.98 335.67 721.8 339.11 694.98C341.02 681.27 346.27 667.91 355.26 657.29C366.57 642.47 384.27 633.6 402.48 630.81Z" fill="white"/>
<path d="M801.33 314.23C809.28 313.73 817.16 315.71 825.08 316.26C833.03 317.79 840.83 320.16 848.64 322.3C855.66 325.24 862.71 328.17 869.57 331.45C876.8 336.17 883.86 341.14 891.01 345.98C896.38 350.23 901.14 355.2 906.31 359.7C914.73 366.67 920.69 375.98 927.8 384.19C942.03 403.51 953.56 424.81 961.89 447.31C963.69 453.36 965.51 459.4 967.33 465.44C970.9 476.25 972.64 487.54 975.24 498.6C979.34 520.88 981.23 543.48 983.13 566.04C984.87 580.96 983.86 596.01 984.13 611C984.49 622 983.12 632.95 982.38 643.91C981.38 654.68 981.19 665.56 979.12 676.21C976.46 691.6 974.55 707.14 971.12 722.39C968.56 733.74 963.84 744.44 958.95 754.96C952 770.93 943.38 786.12 933.49 800.46C929.1 807.85 922.59 813.58 916.98 820C911.44 826.51 904.45 831.49 898.08 837.12C891.72 843.01 883.94 846.97 876.81 851.8C870.27 856.47 862.58 859.01 855.39 862.46C847.94 866.25 839.57 867.42 831.64 869.81C826.25 871.56 820.55 871.42 814.98 871.93C809.63 872.22 804.26 873.13 798.9 872.48C792.65 871.84 786.38 871.5 780.15 870.77C774.31 869.51 768.57 867.79 762.77 866.39C755.66 864.91 749.46 860.97 742.85 858.18C734.92 854.94 728.17 849.56 720.92 845.12C713.72 840.88 707.84 834.87 701.37 829.67C693.91 823.81 688.05 816.28 681.43 809.55C677.45 805.69 674.88 800.74 671.74 796.24C666.17 788.28 661.54 779.72 656.74 771.29C652.18 761.78 647.72 752.22 643.5 742.56C635.34 722.71 633.06 701.21 629.52 680.22C626.2 662.43 625.97 644.27 624.25 626.29C623.62 613.54 624.22 600.76 624.12 588C623.76 573.24 625.96 558.59 626.9 543.89C627.58 532.16 629.47 520.56 631.04 508.93C632.04 500.17 634.41 491.65 636.15 483.03C638.46 470.86 642.76 459.21 646.11 447.32C654.43 425.58 665.61 405 678.88 385.89C684.6 378.95 690.2 371.89 696.11 365.11C702.47 359.13 708.87 353.19 715.31 347.3C721.42 342.68 727.96 338.65 734.21 334.22C740.03 329.81 747.16 327.79 753.68 324.68C760.42 321.3 767.92 320.17 775.09 318.08C783.6 315.47 792.59 315.49 801.33 314.23ZM797.44 411.69C788.78 412.95 780.86 417.61 774.87 423.88C762.24 436.61 754.24 453.01 747.64 469.46C736.65 497.71 731.45 527.86 729.08 557.98C728.63 570.99 727.3 583.97 727.48 597.01C726.75 613.69 728.67 630.31 729.69 646.94C731.84 676.44 738.17 705.81 750.05 732.97C756.8 747.18 766.84 760.22 779.98 769.04C789.92 775.36 802.48 778.82 814.04 775.24C824.88 772.58 834.07 765.61 841.47 757.47C855.81 742.7 863.04 722.88 868.54 703.44C877.82 672.53 879.28 640.05 880.85 608.02C880.61 572.86 878.64 537.5 870.88 503.1C866.87 487.58 862.13 472.19 855.45 457.59C848.68 443.06 840.13 428.63 827.25 418.72C818.86 412.15 807.81 410.34 797.44 411.69Z" fill="#010101"/>
<path d="M395.04 317.04C404.32 316.49 413.62 315.53 422.92 316.47C435.68 316.59 448.26 318.87 460.79 321.08C469.68 323.83 478.57 326.61 487.37 329.63C495.73 333.56 504.12 337.44 512.38 341.57C520.11 346.5 527.79 351.51 535.37 356.66C541.43 361.9 547.44 367.24 553.23 372.78C558.05 378.98 562.73 385.32 567.23 391.76C570.8 398.67 574.02 405.78 577.32 412.82C580.4 422.23 583.37 431.73 584.69 441.58C586.6 450.26 586.45 459.19 586.71 468.03C585.87 474.9 584.71 481.75 583.4 488.55C581.11 495.15 578.98 501.84 576.25 508.28C571.64 516.23 567.74 524.68 561.73 531.72C556.61 539.15 550 545.32 543.59 551.59C532.91 560.05 521.97 568.28 510.09 575C516.72 579.09 523.85 582.35 530.33 586.68C537.44 592.53 545.39 597.49 551.38 604.59C557.14 610.59 562.94 616.59 567.17 623.81C573.94 632.61 578.31 642.85 583.16 652.75C585.48 659.5 587.53 666.36 589.61 673.2C591.05 681.09 592.18 689.05 593.29 696.99C593.35 704.98 593.7 712.99 593.38 720.98C592.32 728.35 591.26 735.73 589.98 743.06C588.03 750.32 585.85 757.52 583.69 764.72C581.35 770.52 578.39 776.04 575.84 781.75C572.98 788.51 568.24 794.2 564.38 800.39C560.41 806.89 554.85 812.17 550.03 818.01C545.29 823.95 539.02 828.34 533.42 833.39C527.94 838.46 521.35 842.05 515.24 846.26C508.58 851.01 500.9 853.94 493.68 857.7C488.82 860.36 483.38 861.61 478.17 863.4C473.24 864.9 468.41 866.9 463.25 867.53C453.15 869.05 443.09 870.91 432.97 872.31C424.65 872.49 416.32 872.31 408 872.38C395.8 872.9 383.92 869.48 371.91 867.94C363.81 867.12 356.31 863.81 348.58 861.5C342.23 859.24 335.5 857.82 329.6 854.45C321.55 850.14 313.27 846.24 305.34 841.73C297.07 835.66 288.84 829.53 280.69 823.31C275.32 818.34 270.26 813.04 265.23 807.75C259.04 799.13 252.35 790.76 247.97 781.02C242.7 772.17 239.87 762.25 236.5 752.6C234.83 745.44 233.51 738.19 232.25 730.95C231.84 720.62 230.83 710.22 232.5 699.95C233.15 688.6 236.18 677.61 238.89 666.63C241.67 659.58 244.45 652.51 247.58 645.61C251.6 638.97 255.28 632.09 259.72 625.71C265.77 618.79 270.85 610.89 278.16 605.19C282.94 601.28 287.31 596.84 292.57 593.56C298.66 589.63 304.5 585.25 310.99 581.98C315.32 579.69 319.65 577.41 323.92 575.01C317.52 570.69 310.57 567.23 304.34 562.68C297.63 556.72 290.21 551.48 284.42 544.56C280.27 539.7 275.39 535.39 272.11 529.85C268.06 523.19 263.2 516.99 260.21 509.75C258.01 504.62 255.09 499.78 253.42 494.46C252.03 487.3 250.19 480.21 249.17 472.99C249.08 463.59 247.66 454.09 249.4 444.76C250.56 438.14 250.59 431.25 253.07 424.93C255.72 417.69 257.36 410.02 261.36 403.36C264.65 397.66 266.94 391.3 271.26 386.26C276.97 379.65 281.92 372.33 288.56 366.59C294.05 361.72 298.91 356.06 305.16 352.12C311.62 347.9 317.55 342.8 324.6 339.54C332.24 335.86 339.5 331.29 347.62 328.67C355.39 326.06 362.87 322.41 371.03 321.11C379.02 319.68 386.86 317.17 395.04 317.04ZM410.32 406.17C389.93 408.64 370.93 420.96 360.86 438.92C346.34 463.25 349.78 496.98 369.48 517.5C388.4 539.05 421.98 545.03 447.58 532.52C459.55 526.59 469.79 517.15 476.6 505.65C484.86 490.68 487.68 472.53 483.16 455.95C479.71 440.56 469.9 426.93 457.03 417.95C443.8 408.13 426.55 404.19 410.32 406.17ZM402.48 630.81C384.27 633.6 366.57 642.47 355.26 657.29C346.27 667.91 341.02 681.27 339.11 694.98C335.67 721.8 348.61 749.98 371.16 764.89C388.45 776.31 410.6 780.18 430.68 774.92C443.31 771.4 455.37 765.04 464.35 755.35C477.02 742.56 484.94 724.98 485.58 706.95C487.24 677.66 469.17 648.41 442.28 636.74C429.91 630.95 415.98 629.3 402.48 630.81Z" fill="#010101"/>
</svg>
