<svg width="1206" height="1206" viewBox="0 0 1206 1206" fill="none" xmlns="http://www.w3.org/2000/svg">
<g clip-path="url(#clip0)">
<path d="M594.52 0H609.5C619.73 1.09 630.08 -0.04 640.3 1.32C651.9 1.9 663.45 3.15 675.02 4.2C691.39 6.93 707.93 8.77 724.1 12.62C732.75 14.4 741.51 15.69 749.98 18.25C759.75 21.29 769.86 23.15 779.56 26.45C791.94 30.75 804.66 34.13 816.74 39.29C828.08 43.75 839.63 47.8 850.51 53.35C861.6 58.48 872.91 63.27 883.44 69.51C894.98 75.48 906.51 81.54 917.37 88.68C925.95 94.06 934.71 99.2 942.99 105.06C953.46 112.93 964.71 119.76 974.64 128.35C986.7 137.53 998.17 147.43 1009.29 157.72C1020.22 167.08 1029.93 177.74 1040.23 187.78C1047.44 195.57 1054.36 203.64 1061.54 211.47C1091.02 246.47 1116.84 284.58 1137.95 325.19C1142.42 332.39 1145.55 340.28 1149.11 347.93C1155.64 360.85 1160.78 374.41 1166.08 387.87C1169.4 395.23 1171.54 403.04 1174.21 410.65C1176.59 419.06 1180.16 427.1 1182.18 435.62C1188.69 460.5 1195.18 485.48 1198.69 510.99C1199.77 521.68 1202.64 532.17 1202.7 542.97C1203.95 557.87 1205.48 572.74 1205.36 587.72C1205.2 599.53 1206.12 611.41 1204.59 623.16C1204.44 628.87 1204.41 634.59 1204.61 640.31C1203.26 654.17 1202.88 668.13 1200.6 681.89C1199.11 690.54 1198.2 699.27 1196.71 707.92C1194.36 719.37 1192.04 730.84 1189.41 742.23C1186.48 754.78 1182.81 767.13 1179.42 779.55C1176.01 789.82 1172.67 800.11 1169.23 810.36C1165.01 820.48 1161.09 830.72 1156.95 840.87C1149.57 857.28 1142.16 873.71 1133.33 889.4C1129.52 895.94 1126.38 902.87 1122.22 909.22C1116.32 918.07 1111.23 927.43 1105.18 936.18C1099.25 945.22 1092.77 953.88 1086.81 962.89C1080.51 970.27 1074.95 978.25 1068.73 985.7C1061.93 994.2 1054.42 1002.1 1047.32 1010.34C1042.73 1016.05 1037.33 1020.98 1032.05 1026.03C1019.78 1039.8 1005.47 1051.49 991.75 1063.74C975.44 1077.3 958.57 1090.19 941 1102.07C934.35 1107.25 926.91 1111.29 919.76 1115.72C910.82 1121.29 901.71 1126.6 892.4 1131.52C875.71 1141.47 857.86 1149.19 840.16 1157.13C832.03 1160.33 823.99 1163.75 815.84 1166.88C804.52 1171.61 792.65 1174.82 781.1 1178.94C761.47 1184.54 741.79 1190.11 721.7 1193.83C709.91 1196.71 697.85 1198.09 685.88 1199.94C670.83 1202.74 655.51 1203.16 640.3 1204.61C634.59 1204.42 628.86 1204.44 623.15 1204.59C611.74 1206.09 600.2 1205.22 588.72 1205.38C579.84 1205.36 570.97 1204.88 562.11 1204.47C553.53 1203.29 544.88 1202.9 536.26 1202.3C524.66 1200.58 513.04 1198.95 501.42 1197.37C480.93 1193.45 460.55 1188.97 440.43 1183.43C431.56 1181.49 423.14 1178.07 414.47 1175.46C372.02 1161.79 331.24 1143.03 293.11 1119.94C283.24 1114.24 273.46 1108.34 264.14 1101.77C255.19 1095.03 245.53 1089.27 236.91 1082.1C226.66 1073.68 215.88 1065.88 206.21 1056.78C197.46 1048.87 188.4 1041.29 180.27 1032.72C168.6 1021.7 157.72 1009.9 147.27 997.72C138.83 988.71 131.76 978.57 123.86 969.11C120.39 965.13 117.46 960.74 114.62 956.31C107.95 946.92 101.04 937.68 95.13 927.78C89.29 917.95 82.67 908.6 77.45 898.41C72.72 890.7 69.2 882.33 64.54 874.58C60.18 865.47 55.95 856.3 51.77 847.11C48.62 841.32 46.57 835.04 44.04 828.99C40.41 819.62 36.29 810.43 33.3 800.83C28.96 787.23 24.24 773.72 20.98 759.8C15.76 743.13 13.13 725.84 9.44 708.8C7.64 696.88 5.67 684.98 3.95 673.05C3.05 661.31 1.99 649.59 1.09 637.86C0.0400001 629.1 1.11 620.23 0 611.48V594.51C0.82 589.05 0.38 583.51 0.6 578.02C0.62 564.62 2.55 551.36 3.55 538.03C3.85 530.57 5.7 523.3 6.57 515.91C8.75 497.58 13 479.61 16.75 461.58C18.18 455.27 20.36 449.17 21.8 442.87C25.22 427.44 31.02 412.69 35.81 397.65C40.61 385.58 45.2 373.42 50.36 361.49C53.08 354.99 56.62 348.87 59.36 342.38C61.9 336.36 65.17 330.7 68 324.82C73.68 314.87 78.48 304.43 84.75 294.82C94.12 278.83 104.45 263.44 115.33 248.44C121.22 239.47 128.43 231.49 134.95 222.99C143.02 211.87 152.87 202.22 161.8 191.82C170.74 182.42 180.17 173.5 189.32 164.31C197.34 157 205.43 149.76 213.47 142.47C225.57 132.92 237.33 122.92 249.92 114.01C259.18 107.98 267.91 101.18 277.35 95.42C290.91 87.16 304.22 78.41 318.56 71.51C328.36 65.56 339 61.22 349.26 56.18C362.78 49.14 377.16 44.04 391.24 38.29C400.91 34.26 411.09 31.67 420.91 28.06C431.11 24.38 441.75 22.26 452.13 19.21C465.56 15.37 479.35 13.17 492.98 10.17C505.89 7.68 518.99 6.34 531.94 4.07C543.4 3.12 554.84 2.01 566.31 1.21C575.67 -0.00999999 585.16 1.14 594.52 0ZM579.33 151.36C568.84 152.11 558.39 153.26 547.92 154.12C534.15 156.5 520.1 157.54 506.61 161.35C491.19 164.27 476.22 168.98 461.18 173.35C451.76 176.95 442.25 180.32 432.82 183.89C422.09 188.93 411.04 193.29 400.43 198.57C393.93 202.62 386.87 205.63 380.14 209.26C369.74 215.41 359.59 221.92 349.44 228.46C341.8 233.83 334.4 239.53 326.6 244.64C316.72 253.09 306.26 260.87 296.94 269.95C288.87 277.87 280.45 285.47 273.01 294C267.22 300.55 260.79 306.54 255.56 313.56C252.37 317.69 249.12 321.77 245.89 325.87C240.13 331.95 236.31 339.51 230.97 345.94C228.03 350.96 223.84 355.14 221.34 360.44C216.38 368.82 211.17 377.06 206.45 385.58C199.33 400.18 191.44 414.44 185.48 429.57C183.92 433.61 181.7 437.38 180.45 441.54C176.82 452.63 172.36 463.45 169.52 474.79C167.43 482.58 164.62 490.19 163 498.11C160.53 511.73 156.94 525.17 155.56 538.98C154.45 548.23 152.43 557.41 152.45 566.77C150.97 580.8 151 594.91 151.09 609C150.92 619 151.51 629 152.49 638.95C152.39 647.74 154.29 656.37 155.21 665.08C156.62 678.1 159.61 690.87 162.15 703.69C164.54 714.99 168.27 725.92 171.04 737.11C174.46 747.57 178.39 757.85 181.92 768.27C184.63 773.91 186.72 779.82 189.46 785.44C194.38 797.49 201.01 808.75 206.43 820.58C220.35 844.68 235.42 868.25 253.38 889.58C259.9 898.61 268.05 906.26 275.36 914.62C296.88 937.35 320.9 957.62 346.66 975.4C350.5 978.69 355.07 980.89 359.24 983.72C367.48 988.5 375.23 994.12 383.79 998.34C389.83 1002.03 396.49 1004.57 402.44 1008.45C416.8 1015.14 431.18 1021.87 446.24 1026.88C457.57 1031.46 469.28 1034.96 481.08 1038.13C493.49 1042.56 506.64 1044.18 519.39 1047.34C529.69 1048.91 540.01 1050.42 550.26 1052.37C557.2 1052.41 564.04 1053.62 570.97 1053.79C582.6 1055.16 594.32 1054.48 606 1054.92C618.26 1054.55 630.53 1054.2 642.78 1053.48C654.49 1051.64 666.39 1051.21 678.02 1048.81C688.65 1046.71 699.45 1045.24 709.82 1042C714.87 1040.88 719.88 1039.64 724.81 1038.06C735.66 1035.79 745.82 1031.2 756.49 1028.3C771.8 1022.28 787.24 1016.48 801.84 1008.84C809.02 1005 816.64 1001.96 823.5 997.54C833.96 991.37 844.66 985.58 854.53 978.47C862.13 973.51 869.73 968.55 876.7 962.71C883.96 956.65 891.82 951.29 898.58 944.65C920.56 926.7 939.5 905.38 957.52 883.55C963.75 875.1 970.17 866.81 976.12 858.16C980.72 850.78 985.35 843.41 990.15 836.16C993.44 830.1 997.05 824.22 1000.28 818.14C1005.08 810.67 1008.3 802.35 1012.41 794.51C1015.03 788.1 1018.55 782.09 1020.66 775.47C1025.3 763.57 1030.46 751.81 1033.69 739.42C1036.81 729.95 1040.1 720.47 1041.79 710.61C1045.17 699.35 1046.8 687.69 1049.03 676.17C1054.2 645.42 1055.52 614.14 1054.52 582.98C1054.85 572.26 1052.85 561.69 1052 551.03C1051.52 541.89 1049.12 533.02 1047.93 523.98C1046.02 510.31 1042 497.1 1039.23 483.61C1035.27 471.63 1032.05 459.4 1027.44 447.64C1022.84 436.01 1018.99 424.03 1013.09 412.96C1007.72 401.32 1001.91 389.87 995.23 378.93C991.6 371.47 987.05 364.52 982.37 357.69C973.97 343.46 963.63 330.5 953.52 317.46C948.81 313.1 945.61 307.47 941.07 302.97C932.86 293.52 923.95 284.73 915.17 275.82C906.07 267.59 896.82 259.51 887.42 251.61C877.13 244.25 867.84 235.47 856.85 229.1C852.51 225.69 847.66 223.05 843.14 219.9C831.94 213.77 821.36 206.52 809.76 201.13C800.81 196.84 792.08 192.06 782.95 188.16C772.74 184.36 762.85 179.71 752.46 176.4C743.94 173.7 735.52 170.69 726.99 168.05C720.31 166.33 713.63 164.64 706.97 162.9C695.64 159.54 683.72 158.97 672.32 155.88C655.94 154.08 639.6 151.35 623.06 151.47C608.52 149.99 593.9 151.06 579.33 151.36Z" fill="#DD1800"/>
<path d="M579.33 151.36C593.9 151.06 608.52 149.99 623.06 151.47C639.6 151.35 655.94 154.08 672.32 155.88C683.72 158.97 695.64 159.54 706.97 162.9C713.63 164.64 720.31 166.33 726.99 168.05C735.52 170.69 743.94 173.7 752.46 176.4C762.85 179.71 772.74 184.36 782.95 188.16C792.08 192.06 800.81 196.84 809.76 201.13C821.36 206.52 831.94 213.77 843.14 219.9C847.66 223.05 852.51 225.69 856.85 229.1C867.84 235.47 877.13 244.25 887.42 251.61C896.82 259.51 906.07 267.59 915.17 275.82C923.95 284.73 932.86 293.52 941.07 302.97C945.61 307.47 948.81 313.1 953.52 317.46C963.63 330.5 973.97 343.46 982.37 357.69C987.05 364.52 991.6 371.47 995.23 378.93C1001.91 389.87 1007.72 401.32 1013.09 412.96C1018.99 424.03 1022.84 436.01 1027.44 447.64C1032.05 459.4 1035.27 471.63 1039.23 483.61C1042 497.1 1046.02 510.31 1047.93 523.98C1049.12 533.02 1051.52 541.89 1052 551.03C1052.85 561.69 1054.85 572.26 1054.52 582.98C1055.52 614.14 1054.2 645.42 1049.03 676.17C1046.8 687.69 1045.17 699.35 1041.79 710.61C1040.1 720.47 1036.81 729.95 1033.69 739.42C1030.46 751.81 1025.3 763.57 1020.66 775.47C1018.55 782.09 1015.03 788.1 1012.41 794.51C1008.3 802.35 1005.08 810.67 1000.28 818.14C997.05 824.22 993.44 830.1 990.15 836.16C985.35 843.41 980.72 850.78 976.12 858.16C970.17 866.81 963.75 875.1 957.52 883.55C939.5 905.38 920.56 926.7 898.58 944.65C891.82 951.29 883.96 956.65 876.7 962.71C869.73 968.55 862.13 973.51 854.53 978.47C844.66 985.58 833.96 991.37 823.5 997.54C816.64 1001.96 809.02 1005 801.84 1008.84C787.24 1016.48 771.8 1022.28 756.49 1028.3C745.82 1031.2 735.66 1035.79 724.81 1038.06C719.88 1039.64 714.87 1040.88 709.82 1042C699.45 1045.24 688.65 1046.71 678.02 1048.81C666.39 1051.21 654.49 1051.64 642.78 1053.48C630.53 1054.2 618.26 1054.55 606 1054.92C594.32 1054.48 582.6 1055.16 570.97 1053.79C564.04 1053.62 557.2 1052.41 550.26 1052.37C540.01 1050.42 529.69 1048.91 519.39 1047.34C506.64 1044.18 493.49 1042.56 481.08 1038.13C469.28 1034.96 457.57 1031.46 446.24 1026.88C431.18 1021.87 416.8 1015.14 402.44 1008.45C396.49 1004.57 389.83 1002.03 383.79 998.34C375.23 994.12 367.48 988.5 359.24 983.72C355.07 980.89 350.5 978.69 346.66 975.4C320.9 957.62 296.88 937.35 275.36 914.62C268.05 906.26 259.9 898.61 253.38 889.58C235.42 868.25 220.35 844.68 206.43 820.58C201.01 808.75 194.38 797.49 189.46 785.44C186.72 779.82 184.63 773.91 181.92 768.27C178.39 757.85 174.46 747.57 171.04 737.11C168.27 725.92 164.54 714.99 162.15 703.69C159.61 690.87 156.62 678.1 155.21 665.08C154.29 656.37 152.39 647.74 152.49 638.95C151.51 629 150.92 619 151.09 609C151 594.91 150.97 580.8 152.45 566.77C152.43 557.41 154.45 548.23 155.56 538.98C156.94 525.17 160.53 511.73 163 498.11C164.62 490.19 167.43 482.58 169.52 474.79C172.36 463.45 176.82 452.63 180.45 441.54C181.7 437.38 183.92 433.61 185.48 429.57C191.44 414.44 199.33 400.18 206.45 385.58C211.17 377.06 216.38 368.82 221.34 360.44C223.84 355.14 228.03 350.96 230.97 345.94C236.31 339.51 240.13 331.95 245.89 325.87C249.12 321.77 252.37 317.69 255.56 313.56C260.79 306.54 267.22 300.55 273.01 294C280.45 285.47 288.87 277.87 296.94 269.95C306.26 260.87 316.72 253.09 326.6 244.64C334.4 239.53 341.8 233.83 349.44 228.46C359.59 221.92 369.74 215.41 380.14 209.26C386.87 205.63 393.93 202.62 400.43 198.57C411.04 193.29 422.09 188.93 432.82 183.89C442.25 180.32 451.76 176.95 461.18 173.35C476.22 168.98 491.19 164.27 506.61 161.35C520.1 157.54 534.15 156.5 547.92 154.12C558.39 153.26 568.84 152.11 579.33 151.36ZM809.49 325.67C803.68 326.46 797.82 326.94 792.04 327.91C787.23 329.11 782.47 330.51 777.69 331.79C769.17 333.84 761.39 338.03 753.29 341.26C746.71 344.8 740.87 349.55 734.59 353.59C726.86 358.31 720.91 365.25 714.13 371.15C707.21 376.95 702.13 384.48 696.26 391.26C689.74 398.65 684.87 407.25 679.35 415.36C674.63 424.04 669.71 432.65 665.76 441.73C663.03 448.35 659.42 454.64 657.68 461.63C654.67 472.4 650.82 482.94 648.78 493.96C640.98 524.01 639.43 555.13 636.48 585.89C636.25 599.92 636.2 613.96 635.99 628C635.98 640.4 637.85 652.71 638.41 665.09C639.08 679.49 642.06 693.63 644.17 707.85C646.12 722.94 649.39 737.92 654.84 752.14C662.06 769.06 669.91 785.75 679.55 801.44C683.29 806.71 686.81 812.14 690.68 817.33C696 823.33 701.34 829.33 706.75 835.26C711.61 839.76 716.82 843.86 721.83 848.19C728.39 854.19 736.35 858.31 743.63 863.36C748.27 866.73 753.69 868.74 758.86 871.14C763.79 873.25 768.51 875.95 773.8 877.1C781.61 878.87 789.17 881.96 797.25 882.39C804.8 882.77 812.36 884.21 819.93 883.32C825.84 882.71 831.8 882.55 837.68 881.64C843.3 880.37 848.78 878.55 854.39 877.25C861.13 875.75 867.12 872.17 873.44 869.52C881.95 866.29 889.09 860.5 896.78 855.76C904.34 851.24 910.46 844.8 917.28 839.29C921.97 835.66 925.61 830.94 929.65 826.64C933.69 821.98 938.3 817.78 941.51 812.46C955.7 792.44 966.82 770.34 975.46 747.4C980.82 733.47 982.69 718.6 985.08 703.96C986.42 695.21 987.93 686.47 989.37 677.74C990.3 663.47 991.29 649.2 992.4 634.95C992.61 622.63 992.35 610.32 992.37 598C992.72 584.24 990.7 570.58 989.66 556.88C988.56 541.82 986.18 526.89 983.87 511.98C982.28 504.58 980.56 497.22 979.08 489.8C977.64 482.62 975.14 475.71 973.18 468.67C971.34 463.22 970.26 457.5 967.71 452.31C964.14 444.54 961.05 436.53 956.82 429.08C953.53 423.36 950.96 417.23 947.12 411.84C942.4 404.95 938.23 397.64 932.61 391.42C926.87 384.82 921.95 377.45 915.26 371.74C909.8 366.85 904.66 361.6 899.02 356.94C891.43 351.89 884.03 346.54 876.28 341.76C867.65 338.21 859.37 333.6 850.2 331.59C843.51 329.88 836.98 327.32 830.02 326.96C823.19 326.45 816.35 324.59 809.49 325.67ZM283.34 335.25C270.81 422.9 257.88 510.5 245.17 598.13C244.97 599.34 244.93 600.56 245.04 601.79C277.76 611.3 310.3 621.41 343 630.99C355.18 614.66 369.43 598.86 388.3 590.28C393.94 587.02 400.57 586.56 406.75 584.87C414.83 584.19 423.02 583.74 431.06 585.14C437.02 585.39 442.48 587.98 447.97 590.06C453.61 593.22 459.35 596.38 464 600.94C468.96 604.7 472.38 609.94 476.31 614.68C482.14 623.21 487.24 632.28 491.1 641.88C493.31 651.47 496.57 660.98 496.61 670.94C496.72 676.26 497.91 681.61 496.94 686.91C496.05 693.09 495.79 699.38 494.5 705.49C491.58 714.15 490 723.36 485.38 731.37C481.1 740.68 476.09 749.69 469.83 757.83C466.14 761.47 462.74 765.43 458.76 768.77C454.85 771.53 451.09 774.52 447.03 777.05C442.51 779.21 437.92 781.22 433.31 783.17C426.26 784.76 419.31 787.22 411.99 787C403.85 787.98 395.73 786.54 387.74 785.1C380.01 781.06 371.94 777.48 365.27 771.73C358.4 767.39 353.4 760.93 347.91 755.08C345.43 752.14 343.65 748.7 341.46 745.56C336.76 739.19 334.42 731.52 331.63 724.22C320 724.82 308.49 727.11 296.89 728.2C274.48 731.12 252.04 733.7 229.65 736.74C229.54 738.66 230.27 740.5 230.81 742.32C233.04 749.16 234.82 756.15 237.13 762.96C241 770.72 244.71 778.57 248.76 786.25C253.78 793.5 259.01 800.62 264.27 807.7C275.58 819.4 287.3 830.72 299.64 841.34C307.52 846.83 315 853.04 323.72 857.2C331.37 861.62 339.43 865.2 347.72 868.26C355.37 871.8 363.73 873.1 371.8 875.33C377.71 877.11 383.94 877.26 389.99 878.35C398.56 879.98 407.32 879.21 415.99 879.48C431.67 878.73 447.12 875.72 462.39 872.24C471.37 868.92 480.84 866.82 489.36 862.37C495.13 859.48 501.26 857.25 506.68 853.71C512.02 850.35 517.52 847.26 522.75 843.75C528.34 839.34 533.98 834.98 539.53 830.51C543.7 826.69 547.54 822.53 551.6 818.6C556.95 813.55 561.07 807.41 565.79 801.81C570.83 795.95 574.38 789.04 578.59 782.6C582.95 776.21 585.51 768.85 588.99 761.99C591.75 756.72 593.14 750.9 595.13 745.33C598.88 735.02 600.67 724.16 603.26 713.54C604.08 706.05 604.34 698.49 605.17 691C605.46 684.66 604.84 678.32 604.76 671.98C604.9 662.52 602.4 653.31 601.36 643.96C599.75 635.86 596.96 628.04 594.88 620.06C592.24 612.58 588.84 605.4 586 598C582.29 590.85 578.07 583.95 574.07 576.96C569.42 570.3 564.62 563.75 559.79 557.23C554.11 551.23 548.49 545.16 542.6 539.38C537.01 534.62 531.36 529.94 525.72 525.26C521.37 522.2 516.63 519.75 512.17 516.87C506.5 513.09 500 510.92 493.86 508.09C485.94 504.36 477.28 502.74 468.97 500.19C461.69 499.09 454.41 497.87 447.08 497.28C437.4 497.45 427.64 496.72 418.1 498.68C407.13 499.56 396.68 503.04 386.21 506.17C381.27 508.13 376.51 510.49 371.63 512.59C363.73 515.72 357.31 521.55 349.73 525.28C349.72 522.15 350.5 519.12 350.92 516.05C354.71 491.43 358.86 466.86 362.39 442.21C385.26 442.23 408.14 442.96 431.01 443.31C482.3 444.13 533.59 445.26 584.88 445.95C585.33 410.72 586.71 375.49 586.84 340.26C566.56 340.35 546.28 339.57 526 339.37C445.12 338.02 364.23 336.48 283.34 335.25Z" fill="#FBFBFB"/>
<path d="M807.31 423.29C818.16 420.54 829.58 425.07 837.69 432.28C848.45 442.02 856.25 454.61 862.29 467.71C878.48 501.49 884.53 539.02 887.21 576.06C887.99 591.89 889.13 607.74 888.51 623.61C888.33 631.66 887.54 639.68 887.35 647.74C885.96 656.46 886.18 665.33 884.85 674.05C881.99 697.66 876.11 720.96 866.79 742.86C860.52 756.84 850.94 769.47 838.64 778.68C830.52 784.02 820.94 788.4 811.01 787.59C799.57 785.42 788.72 779.78 780.87 771.11C772.57 763 766 753.2 761.25 742.64C748.83 713.28 742.76 681.5 741.26 649.73C739.46 629.52 738.77 609.18 740.42 588.94C741.33 558.24 745.39 527.53 754.02 498C759.55 479.7 767.34 461.98 778.13 446.15C785.42 436.04 794.69 426.19 807.31 423.29Z" fill="#FBFBFB"/>
<path d="M809.49 325.67C816.35 324.59 823.19 326.45 830.02 326.96C836.98 327.32 843.51 329.88 850.2 331.59C859.37 333.6 867.65 338.21 876.28 341.76C884.03 346.54 891.43 351.89 899.02 356.94C904.66 361.6 909.8 366.85 915.26 371.74C921.95 377.45 926.87 384.82 932.61 391.42C938.23 397.64 942.4 404.95 947.12 411.84C950.96 417.23 953.53 423.36 956.82 429.08C961.05 436.53 964.14 444.54 967.71 452.31C970.26 457.5 971.34 463.22 973.18 468.67C975.14 475.71 977.64 482.62 979.08 489.8C980.56 497.22 982.28 504.58 983.87 511.98C986.18 526.89 988.56 541.82 989.66 556.88C990.7 570.58 992.72 584.24 992.37 598C992.35 610.32 992.61 622.63 992.4 634.95C991.29 649.2 990.3 663.47 989.37 677.74C987.93 686.47 986.42 695.21 985.08 703.96C982.69 718.6 980.82 733.47 975.46 747.4C966.82 770.34 955.7 792.44 941.51 812.46C938.3 817.78 933.69 821.98 929.65 826.64C925.61 830.94 921.97 835.66 917.28 839.29C910.46 844.8 904.34 851.24 896.78 855.76C889.09 860.5 881.95 866.29 873.44 869.52C867.12 872.17 861.13 875.75 854.39 877.25C848.78 878.55 843.3 880.37 837.68 881.64C831.8 882.55 825.84 882.71 819.93 883.32C812.36 884.21 804.8 882.77 797.25 882.39C789.17 881.96 781.61 878.87 773.8 877.1C768.51 875.95 763.79 873.25 758.86 871.14C753.69 868.74 748.27 866.73 743.63 863.36C736.35 858.31 728.39 854.19 721.83 848.19C716.82 843.86 711.61 839.76 706.75 835.26C701.34 829.33 696 823.33 690.68 817.33C686.81 812.14 683.29 806.71 679.55 801.44C669.91 785.75 662.06 769.06 654.84 752.14C649.39 737.92 646.12 722.94 644.17 707.85C642.06 693.63 639.08 679.49 638.41 665.09C637.85 652.71 635.98 640.4 635.99 628C636.2 613.96 636.25 599.92 636.48 585.89C639.43 555.13 640.98 524.01 648.78 493.96C650.82 482.94 654.67 472.4 657.68 461.63C659.42 454.64 663.03 448.35 665.76 441.73C669.71 432.65 674.63 424.04 679.35 415.36C684.87 407.25 689.74 398.65 696.26 391.26C702.13 384.48 707.21 376.95 714.13 371.15C720.91 365.25 726.86 358.31 734.59 353.59C740.87 349.55 746.71 344.8 753.29 341.26C761.39 338.03 769.17 333.84 777.69 331.79C782.47 330.51 787.23 329.11 792.04 327.91C797.82 326.94 803.68 326.46 809.49 325.67ZM807.31 423.29C794.69 426.19 785.42 436.04 778.13 446.15C767.34 461.98 759.55 479.7 754.02 498C745.39 527.53 741.33 558.24 740.42 588.94C738.77 609.18 739.46 629.52 741.26 649.73C742.76 681.5 748.83 713.28 761.25 742.64C766 753.2 772.57 763 780.87 771.11C788.72 779.78 799.57 785.42 811.01 787.59C820.94 788.4 830.52 784.02 838.64 778.68C850.94 769.47 860.52 756.84 866.79 742.86C876.11 720.96 881.99 697.66 884.85 674.05C886.18 665.33 885.96 656.46 887.35 647.74C887.54 639.68 888.33 631.66 888.51 623.61C889.13 607.74 887.99 591.89 887.21 576.06C884.53 539.02 878.48 501.49 862.29 467.71C856.25 454.61 848.45 442.02 837.69 432.28C829.58 425.07 818.16 420.54 807.31 423.29Z" fill="#010101"/>
<path d="M283.34 335.25C364.23 336.48 445.12 338.02 526 339.37C546.28 339.57 566.56 340.35 586.84 340.26C586.71 375.49 585.33 410.72 584.88 445.95C533.59 445.26 482.3 444.13 431.01 443.31C408.14 442.96 385.26 442.23 362.39 442.21C358.86 466.86 354.71 491.43 350.92 516.05C350.5 519.12 349.72 522.15 349.73 525.28C357.31 521.55 363.73 515.72 371.63 512.59C376.51 510.49 381.27 508.13 386.21 506.17C396.68 503.04 407.13 499.56 418.1 498.68C427.64 496.72 437.4 497.45 447.08 497.28C454.41 497.87 461.69 499.09 468.97 500.19C477.28 502.74 485.94 504.36 493.86 508.09C500 510.92 506.5 513.09 512.17 516.87C516.63 519.75 521.37 522.2 525.72 525.26C531.36 529.94 537.01 534.62 542.6 539.38C548.49 545.16 554.11 551.23 559.79 557.23C564.62 563.75 569.42 570.3 574.07 576.96C578.07 583.95 582.29 590.85 586 598C588.84 605.4 592.24 612.58 594.88 620.06C596.96 628.04 599.75 635.86 601.36 643.96C602.4 653.31 604.9 662.52 604.76 671.98C604.84 678.32 605.46 684.66 605.17 691C604.34 698.49 604.08 706.05 603.26 713.54C600.67 724.16 598.88 735.02 595.13 745.33C593.14 750.9 591.75 756.72 588.99 761.99C585.51 768.85 582.95 776.21 578.59 782.6C574.38 789.04 570.83 795.95 565.79 801.81C561.07 807.41 556.95 813.55 551.6 818.6C547.54 822.53 543.7 826.69 539.53 830.51C533.98 834.98 528.34 839.34 522.75 843.75C517.52 847.26 512.02 850.35 506.68 853.71C501.26 857.25 495.13 859.48 489.36 862.37C480.84 866.82 471.37 868.92 462.39 872.24C447.12 875.72 431.67 878.73 415.99 879.48C407.32 879.21 398.56 879.98 389.99 878.35C383.94 877.26 377.71 877.11 371.8 875.33C363.73 873.1 355.37 871.8 347.72 868.26C339.43 865.2 331.37 861.62 323.72 857.2C315 853.04 307.52 846.83 299.64 841.34C287.3 830.72 275.58 819.4 264.27 807.7C259.01 800.62 253.78 793.5 248.76 786.25C244.71 778.57 241 770.72 237.13 762.96C234.82 756.15 233.04 749.16 230.81 742.32C230.27 740.5 229.54 738.66 229.65 736.74C252.04 733.7 274.48 731.12 296.89 728.2C308.49 727.11 320 724.82 331.63 724.22C334.42 731.52 336.76 739.19 341.46 745.56C343.65 748.7 345.43 752.14 347.91 755.08C353.4 760.93 358.4 767.39 365.27 771.73C371.94 777.48 380.01 781.06 387.74 785.1C395.73 786.54 403.85 787.98 411.99 787C419.31 787.22 426.26 784.76 433.31 783.17C437.92 781.22 442.51 779.21 447.03 777.05C451.09 774.52 454.85 771.53 458.76 768.77C462.74 765.43 466.14 761.47 469.83 757.83C476.09 749.69 481.1 740.68 485.38 731.37C490 723.36 491.58 714.15 494.5 705.49C495.79 699.38 496.05 693.09 496.94 686.91C497.91 681.61 496.72 676.26 496.61 670.94C496.57 660.98 493.31 651.47 491.1 641.88C487.24 632.28 482.14 623.21 476.31 614.68C472.38 609.94 468.96 604.7 464 600.94C459.35 596.38 453.61 593.22 447.97 590.06C442.48 587.98 437.02 585.39 431.06 585.14C423.02 583.74 414.83 584.19 406.75 584.87C400.57 586.56 393.94 587.02 388.3 590.28C369.43 598.86 355.18 614.66 343 630.99C310.3 621.41 277.76 611.3 245.04 601.79C244.93 600.56 244.97 599.34 245.17 598.13C257.88 510.5 270.81 422.9 283.34 335.25Z" fill="#010101"/>
<path d="M1205.36 587.72L1206 588.5V628.44C1204.71 632.3 1206.02 636.48 1204.61 640.31C1204.41 634.59 1204.44 628.87 1204.59 623.16C1206.12 611.41 1205.2 599.53 1205.36 587.72Z" fill="#F9BDB7"/>
<path d="M588.72 1205.38C600.2 1205.22 611.74 1206.09 623.15 1204.59C628.86 1204.44 634.59 1204.42 640.3 1204.61C636.47 1206.01 632.29 1204.72 628.43 1206H589.53L588.72 1205.38Z" fill="#F9BDB7"/>
</g>
<defs>
<clipPath id="clip0">
<rect width="1206" height="1206" fill="white"/>
</clipPath>
</defs>
</svg>
