<svg width="44" height="24" viewBox="0 0 44 24" fill="none" xmlns="http://www.w3.org/2000/svg">
<rect width="44" height="24" rx="5" fill="#2E3539" fill-opacity="0.6"/>
<path d="M10.666 11.2646H11.6777C12.1882 11.2601 12.5915 11.1279 12.8877 10.8682C13.1885 10.6084 13.3389 10.2324 13.3389 9.74023C13.3389 9.26628 13.2135 8.89941 12.9629 8.63965C12.7168 8.37533 12.3385 8.24316 11.8281 8.24316C11.3815 8.24316 11.0146 8.37305 10.7275 8.63281C10.4404 8.88802 10.2969 9.22298 10.2969 9.6377H8.63574C8.63574 9.12728 8.77018 8.66243 9.03906 8.24316C9.3125 7.82389 9.69076 7.49805 10.1738 7.26562C10.6615 7.02865 11.2061 6.91016 11.8076 6.91016C12.8011 6.91016 13.5804 7.16081 14.1455 7.66211C14.7152 8.15885 15 8.85156 15 9.74023C15 10.1868 14.8564 10.6084 14.5693 11.0049C14.2868 11.3968 13.9199 11.693 13.4688 11.8936C14.0156 12.0804 14.4303 12.3743 14.7129 12.7754C15 13.1764 15.1436 13.6549 15.1436 14.2109C15.1436 15.1042 14.8359 15.8151 14.2207 16.3438C13.61 16.8724 12.8057 17.1367 11.8076 17.1367C10.8506 17.1367 10.0667 16.8815 9.45605 16.3711C8.84538 15.8607 8.54004 15.1816 8.54004 14.334H10.2012C10.2012 14.7715 10.347 15.127 10.6387 15.4004C10.9349 15.6738 11.3314 15.8105 11.8281 15.8105C12.3431 15.8105 12.7487 15.6738 13.0449 15.4004C13.3411 15.127 13.4893 14.7305 13.4893 14.2109C13.4893 13.6868 13.3343 13.2835 13.0244 13.001C12.7145 12.7184 12.2542 12.5771 11.6436 12.5771H10.666V11.2646ZM21.8701 6.99902V8.37305H21.665C20.7354 8.38672 19.9925 8.64193 19.4365 9.13867C18.8805 9.63542 18.5501 10.3395 18.4453 11.251C18.9785 10.6904 19.6598 10.4102 20.4893 10.4102C21.3688 10.4102 22.0615 10.7201 22.5674 11.3398C23.0778 11.9596 23.333 12.7594 23.333 13.7393C23.333 14.751 23.0345 15.5713 22.4375 16.2002C21.8451 16.8245 21.0658 17.1367 20.0996 17.1367C19.1061 17.1367 18.2995 16.7699 17.6797 16.0361C17.0645 15.3024 16.7568 14.3408 16.7568 13.1514V12.584C16.7568 10.8385 17.1807 9.47135 18.0283 8.48242C18.8805 7.49349 20.1042 6.99902 21.6992 6.99902H21.8701ZM20.0859 11.75C19.7214 11.75 19.3864 11.8525 19.0811 12.0576C18.7803 12.2627 18.5592 12.5361 18.418 12.8779V13.3838C18.418 14.1221 18.5729 14.71 18.8828 15.1475C19.1927 15.5804 19.5938 15.7969 20.0859 15.7969C20.5781 15.7969 20.9678 15.6123 21.2549 15.2432C21.542 14.874 21.6855 14.3887 21.6855 13.7871C21.6855 13.1855 21.5397 12.6956 21.248 12.3174C20.9564 11.9391 20.569 11.75 20.0859 11.75ZM31.1465 12.8096C31.1465 14.2406 30.8776 15.3206 30.3398 16.0498C29.8066 16.7744 28.9932 17.1367 27.8994 17.1367C26.8239 17.1367 26.0127 16.7835 25.4658 16.0771C24.9235 15.3662 24.6455 14.3158 24.6318 12.9258V11.2031C24.6318 9.77214 24.8984 8.69889 25.4316 7.9834C25.9694 7.2679 26.7874 6.91016 27.8857 6.91016C28.9749 6.91016 29.7861 7.25879 30.3193 7.95605C30.8571 8.65332 31.1328 9.69694 31.1465 11.0869V12.8096ZM29.4854 10.9502C29.4854 10.016 29.3577 9.33236 29.1025 8.89941C28.8473 8.46191 28.4417 8.24316 27.8857 8.24316C27.3434 8.24316 26.9447 8.45052 26.6895 8.86523C26.4342 9.27539 26.2998 9.91797 26.2861 10.793V13.0488C26.2861 13.9785 26.416 14.6712 26.6758 15.127C26.9355 15.5827 27.3434 15.8105 27.8994 15.8105C28.4326 15.8105 28.8268 15.6009 29.082 15.1816C29.3372 14.7578 29.4717 14.097 29.4854 13.1992V10.9502ZM34.5439 6.91016C35.027 6.91016 35.444 7.09017 35.7949 7.4502C36.1458 7.81022 36.3213 8.24089 36.3213 8.74219C36.3213 9.24349 36.1481 9.67188 35.8018 10.0273C35.4554 10.3783 35.0361 10.5537 34.5439 10.5537C34.0472 10.5537 33.6211 10.3783 33.2656 10.0273C32.9147 9.67188 32.7393 9.24349 32.7393 8.74219C32.7393 8.24089 32.917 7.81022 33.2725 7.4502C33.6325 7.09017 34.0563 6.91016 34.5439 6.91016ZM34.5439 9.58984C34.7855 9.58984 34.9837 9.51009 35.1387 9.35059C35.2982 9.18652 35.3779 8.98372 35.3779 8.74219C35.3779 8.50521 35.2982 8.30013 35.1387 8.12695C34.9837 7.95378 34.7855 7.86719 34.5439 7.86719C34.3024 7.86719 34.0996 7.95378 33.9355 8.12695C33.7715 8.30013 33.6895 8.50521 33.6895 8.74219C33.6895 8.97917 33.7715 9.17969 33.9355 9.34375C34.1042 9.50781 34.307 9.58984 34.5439 9.58984Z" fill="#DADADA"/>
</svg>
