<svg width="94" height="24" viewBox="0 0 94 24" fill="none" xmlns="http://www.w3.org/2000/svg">
<rect width="94" height="24" rx="5" fill="#2E3539" fill-opacity="0.6"/>
<path d="M10.666 11.2646H11.6777C12.1882 11.2601 12.5915 11.1279 12.8877 10.8682C13.1885 10.6084 13.3389 10.2324 13.3389 9.74023C13.3389 9.26628 13.2135 8.89941 12.9629 8.63965C12.7168 8.37533 12.3385 8.24316 11.8281 8.24316C11.3815 8.24316 11.0146 8.37305 10.7275 8.63281C10.4404 8.88802 10.2969 9.22298 10.2969 9.6377H8.63574C8.63574 9.12728 8.77018 8.66243 9.03906 8.24316C9.3125 7.82389 9.69076 7.49805 10.1738 7.26562C10.6615 7.02865 11.2061 6.91016 11.8076 6.91016C12.8011 6.91016 13.5804 7.16081 14.1455 7.66211C14.7152 8.15885 15 8.85156 15 9.74023C15 10.1868 14.8564 10.6084 14.5693 11.0049C14.2868 11.3968 13.9199 11.693 13.4688 11.8936C14.0156 12.0804 14.4303 12.3743 14.7129 12.7754C15 13.1764 15.1436 13.6549 15.1436 14.2109C15.1436 15.1042 14.8359 15.8151 14.2207 16.3438C13.61 16.8724 12.8057 17.1367 11.8076 17.1367C10.8506 17.1367 10.0667 16.8815 9.45605 16.3711C8.84538 15.8607 8.54004 15.1816 8.54004 14.334H10.2012C10.2012 14.7715 10.347 15.127 10.6387 15.4004C10.9349 15.6738 11.3314 15.8105 11.8281 15.8105C12.3431 15.8105 12.7487 15.6738 13.0449 15.4004C13.3411 15.127 13.4893 14.7305 13.4893 14.2109C13.4893 13.6868 13.3343 13.2835 13.0244 13.001C12.7145 12.7184 12.2542 12.5771 11.6436 12.5771H10.666V11.2646ZM21.8701 6.99902V8.37305H21.665C20.7354 8.38672 19.9925 8.64193 19.4365 9.13867C18.8805 9.63542 18.5501 10.3395 18.4453 11.251C18.9785 10.6904 19.6598 10.4102 20.4893 10.4102C21.3688 10.4102 22.0615 10.7201 22.5674 11.3398C23.0778 11.9596 23.333 12.7594 23.333 13.7393C23.333 14.751 23.0345 15.5713 22.4375 16.2002C21.8451 16.8245 21.0658 17.1367 20.0996 17.1367C19.1061 17.1367 18.2995 16.7699 17.6797 16.0361C17.0645 15.3024 16.7568 14.3408 16.7568 13.1514V12.584C16.7568 10.8385 17.1807 9.47135 18.0283 8.48242C18.8805 7.49349 20.1042 6.99902 21.6992 6.99902H21.8701ZM20.0859 11.75C19.7214 11.75 19.3864 11.8525 19.0811 12.0576C18.7803 12.2627 18.5592 12.5361 18.418 12.8779V13.3838C18.418 14.1221 18.5729 14.71 18.8828 15.1475C19.1927 15.5804 19.5938 15.7969 20.0859 15.7969C20.5781 15.7969 20.9678 15.6123 21.2549 15.2432C21.542 14.874 21.6855 14.3887 21.6855 13.7871C21.6855 13.1855 21.5397 12.6956 21.248 12.3174C20.9564 11.9391 20.569 11.75 20.0859 11.75ZM31.1465 12.8096C31.1465 14.2406 30.8776 15.3206 30.3398 16.0498C29.8066 16.7744 28.9932 17.1367 27.8994 17.1367C26.8239 17.1367 26.0127 16.7835 25.4658 16.0771C24.9235 15.3662 24.6455 14.3158 24.6318 12.9258V11.2031C24.6318 9.77214 24.8984 8.69889 25.4316 7.9834C25.9694 7.2679 26.7874 6.91016 27.8857 6.91016C28.9749 6.91016 29.7861 7.25879 30.3193 7.95605C30.8571 8.65332 31.1328 9.69694 31.1465 11.0869V12.8096ZM29.4854 10.9502C29.4854 10.016 29.3577 9.33236 29.1025 8.89941C28.8473 8.46191 28.4417 8.24316 27.8857 8.24316C27.3434 8.24316 26.9447 8.45052 26.6895 8.86523C26.4342 9.27539 26.2998 9.91797 26.2861 10.793V13.0488C26.2861 13.9785 26.416 14.6712 26.6758 15.127C26.9355 15.5827 27.3434 15.8105 27.8994 15.8105C28.4326 15.8105 28.8268 15.6009 29.082 15.1816C29.3372 14.7578 29.4717 14.097 29.4854 13.1992V10.9502ZM34.5439 6.91016C35.027 6.91016 35.444 7.09017 35.7949 7.4502C36.1458 7.81022 36.3213 8.24089 36.3213 8.74219C36.3213 9.24349 36.1481 9.67188 35.8018 10.0273C35.4554 10.3783 35.0361 10.5537 34.5439 10.5537C34.0472 10.5537 33.6211 10.3783 33.2656 10.0273C32.9147 9.67188 32.7393 9.24349 32.7393 8.74219C32.7393 8.24089 32.917 7.81022 33.2725 7.4502C33.6325 7.09017 34.0563 6.91016 34.5439 6.91016ZM34.5439 9.58984C34.7855 9.58984 34.9837 9.51009 35.1387 9.35059C35.2982 9.18652 35.3779 8.98372 35.3779 8.74219C35.3779 8.50521 35.2982 8.30013 35.1387 8.12695C34.9837 7.95378 34.7855 7.86719 34.5439 7.86719C34.3024 7.86719 34.0996 7.95378 33.9355 8.12695C33.7715 8.30013 33.6895 8.50521 33.6895 8.74219C33.6895 8.97917 33.7715 9.17969 33.9355 9.34375C34.1042 9.50781 34.307 9.58984 34.5439 9.58984ZM44.1348 14.8945L45.7002 9.60352H47.416L44.8525 17H43.4102L40.8262 9.60352H42.5488L44.1348 14.8945ZM50.2256 17H48.5645V9.60352H50.2256V17ZM48.4619 7.68262C48.4619 7.42741 48.5417 7.21549 48.7012 7.04688C48.8652 6.87826 49.0977 6.79395 49.3984 6.79395C49.6992 6.79395 49.9316 6.87826 50.0957 7.04688C50.2598 7.21549 50.3418 7.42741 50.3418 7.68262C50.3418 7.93327 50.2598 8.1429 50.0957 8.31152C49.9316 8.47559 49.6992 8.55762 49.3984 8.55762C49.0977 8.55762 48.8652 8.47559 48.7012 8.31152C48.5417 8.1429 48.4619 7.93327 48.4619 7.68262ZM56.1865 14.9902C56.1865 14.694 56.0635 14.4684 55.8174 14.3135C55.5758 14.1585 55.1725 14.0218 54.6074 13.9033C54.0423 13.7848 53.5706 13.6344 53.1924 13.4521C52.363 13.0511 51.9482 12.4701 51.9482 11.709C51.9482 11.071 52.2171 10.5378 52.7549 10.1094C53.2926 9.68099 53.9762 9.4668 54.8057 9.4668C55.6898 9.4668 56.403 9.68555 56.9453 10.123C57.4922 10.5605 57.7656 11.1279 57.7656 11.8252H56.1045C56.1045 11.5062 55.986 11.2419 55.749 11.0322C55.512 10.818 55.1976 10.7109 54.8057 10.7109C54.4411 10.7109 54.1426 10.7952 53.9102 10.9639C53.6823 11.1325 53.5684 11.3581 53.5684 11.6406C53.5684 11.8958 53.6755 12.0941 53.8896 12.2354C54.1038 12.3766 54.5368 12.5202 55.1885 12.666C55.8402 12.8073 56.3506 12.9782 56.7197 13.1787C57.0934 13.3747 57.3691 13.6117 57.5469 13.8896C57.7292 14.1676 57.8203 14.5049 57.8203 14.9014C57.8203 15.5667 57.5446 16.1068 56.9932 16.5215C56.4417 16.9316 55.7194 17.1367 54.8262 17.1367C54.2201 17.1367 53.68 17.0273 53.2061 16.8086C52.7321 16.5898 52.363 16.2891 52.0986 15.9062C51.8343 15.5234 51.7021 15.111 51.7021 14.6689H53.3154C53.3382 15.0609 53.4863 15.3639 53.7598 15.5781C54.0332 15.7878 54.3955 15.8926 54.8467 15.8926C55.2842 15.8926 55.6169 15.8105 55.8447 15.6465C56.0726 15.4779 56.1865 15.2591 56.1865 14.9902ZM60.8145 9.60352L60.8623 10.458C61.4092 9.7972 62.127 9.4668 63.0156 9.4668C64.556 9.4668 65.3398 10.3486 65.3672 12.1123V17H63.7061V12.208C63.7061 11.7386 63.6035 11.3923 63.3984 11.1689C63.1979 10.9411 62.8675 10.8271 62.4072 10.8271C61.7373 10.8271 61.2383 11.1302 60.9102 11.7363V17H59.249V9.60352H60.8145ZM68.833 17H67.1719V9.60352H68.833V17ZM67.0693 7.68262C67.0693 7.42741 67.1491 7.21549 67.3086 7.04688C67.4727 6.87826 67.7051 6.79395 68.0059 6.79395C68.3066 6.79395 68.5391 6.87826 68.7031 7.04688C68.8672 7.21549 68.9492 7.42741 68.9492 7.68262C68.9492 7.93327 68.8672 8.1429 68.7031 8.31152C68.5391 8.47559 68.3066 8.55762 68.0059 8.55762C67.7051 8.55762 67.4727 8.47559 67.3086 8.31152C67.1491 8.1429 67.0693 7.93327 67.0693 7.68262ZM72.1895 9.60352L72.2373 10.458C72.7842 9.7972 73.502 9.4668 74.3906 9.4668C75.931 9.4668 76.7148 10.3486 76.7422 12.1123V17H75.0811V12.208C75.0811 11.7386 74.9785 11.3923 74.7734 11.1689C74.5729 10.9411 74.2425 10.8271 73.7822 10.8271C73.1123 10.8271 72.6133 11.1302 72.2852 11.7363V17H70.624V9.60352H72.1895ZM78.1504 13.2471C78.1504 12.0986 78.4193 11.1826 78.957 10.499C79.4993 9.81087 80.2171 9.4668 81.1104 9.4668C81.9535 9.4668 82.6165 9.76074 83.0996 10.3486L83.1748 9.60352H84.6719V16.7744C84.6719 17.7451 84.3688 18.5107 83.7627 19.0713C83.1611 19.6318 82.3477 19.9121 81.3223 19.9121C80.7799 19.9121 80.249 19.7982 79.7295 19.5703C79.2145 19.347 78.8226 19.0531 78.5537 18.6885L79.3398 17.6904C79.8503 18.2965 80.4792 18.5996 81.2266 18.5996C81.778 18.5996 82.2132 18.4492 82.5322 18.1484C82.8512 17.8522 83.0107 17.4147 83.0107 16.8359V16.3369C82.5322 16.8701 81.8942 17.1367 81.0967 17.1367C80.2308 17.1367 79.5221 16.7926 78.9707 16.1045C78.4238 15.4163 78.1504 14.4639 78.1504 13.2471ZM79.8047 13.3906C79.8047 14.1335 79.9551 14.7191 80.2559 15.1475C80.5612 15.5713 80.9827 15.7832 81.5205 15.7832C82.1904 15.7832 82.6872 15.4961 83.0107 14.9219V11.668C82.6963 11.1074 82.2041 10.8271 81.5342 10.8271C80.9873 10.8271 80.5612 11.0436 80.2559 11.4766C79.9551 11.9095 79.8047 12.5475 79.8047 13.3906Z" fill="#DADADA"/>
</svg>
