<svg width="40" height="40" viewBox="0 0 40 40" fill="none" xmlns="http://www.w3.org/2000/svg">
<path d="M11.75 30L5 22.9688H10.4V21.25C10.4 18.2663 11.5379 15.4048 13.5632 13.295C15.5886 11.1853 18.3357 10 21.2 10C24.0643 10 26.8114 11.1853 28.8368 13.295C30.8621 15.4048 32 18.2663 32 21.25V30L29.3 29.9584V21.25C29.3 19.0122 28.4466 16.8661 26.9276 15.2838C25.4085 13.7014 23.3483 12.8125 21.2 12.8125C19.0517 12.8125 16.9915 13.7014 15.4724 15.2838C13.9534 16.8661 13.1 19.0122 13.1 21.25V22.9688H18.5L11.75 30Z" fill="#C4C4C4"/>
</svg>
