<svg width="24" height="24" viewBox="0 0 19 19" fill="none" xmlns="http://www.w3.org/2000/svg">
<path d="M7.125 3.1665V4.259C6.46792 3.99775 5.76333 3.86317 5.05875 3.86317C3.64167 3.86317 2.22458 4.4015 1.14 5.48609L3.77625 8.12234H4.655V9.00109C5.33583 9.68192 6.2225 10.0382 7.11708 10.0778V11.8748H4.75V14.2498C4.75 15.1207 5.4625 15.8332 6.33333 15.8332H14.25C15.5642 15.8332 16.625 14.7723 16.625 13.4582V3.1665H7.125ZM6.24625 8.24109V6.539H4.44125L3.61792 5.71567C4.06917 5.5415 4.56 5.4465 5.05875 5.4465C6.11958 5.4465 7.10917 5.85817 7.86125 6.60234L8.9775 7.71859L8.81917 7.87692C8.41542 8.28067 7.87708 8.51025 7.29917 8.51025C6.92708 8.51025 6.56292 8.41525 6.24625 8.24109ZM15.0417 13.4582C15.0417 13.8936 14.6854 14.2498 14.25 14.2498C13.8146 14.2498 13.4583 13.8936 13.4583 13.4582V11.8748H8.70833V9.82442C9.15958 9.64234 9.57917 9.37317 9.94333 9.009L10.1017 8.85067L12.3421 11.0832H13.4583V9.96692L8.70833 5.24067V4.74984H15.0417V13.4582Z" fill="#ECECEC"/>
</svg>
