<svg width="24" height="24" viewBox="0 0 19 19" fill="none" xmlns="http://www.w3.org/2000/svg">
<path d="M13.4583 3.1665L16.625 6.33317L13.4583 9.49984V7.12484H10.2917V5.5415H13.4583V3.1665ZM7.91667 5.5415C7.48125 5.5415 7.125 5.89775 7.125 6.33317C7.125 6.76859 7.48125 7.12484 7.91667 7.12484C8.35208 7.12484 8.70833 6.76859 8.70833 6.33317C8.70833 5.89775 8.35208 5.5415 7.91667 5.5415ZM4.75 5.5415C4.31458 5.5415 3.95833 5.89775 3.95833 6.33317C3.95833 6.76859 4.31458 7.12484 4.75 7.12484C5.18542 7.12484 5.54167 6.76859 5.54167 6.33317C5.54167 5.89775 5.18542 5.5415 4.75 5.5415ZM5.54167 13.4582H8.70833V11.8748H5.54167V9.49984L2.375 12.6665L5.54167 15.8332V13.4582ZM11.0833 13.4582C11.5188 13.4582 11.875 13.1019 11.875 12.6665C11.875 12.2311 11.5188 11.8748 11.0833 11.8748C10.6479 11.8748 10.2917 12.2311 10.2917 12.6665C10.2917 13.1019 10.6479 13.4582 11.0833 13.4582ZM14.25 13.4582C14.6854 13.4582 15.0417 13.1019 15.0417 12.6665C15.0417 12.2311 14.6854 11.8748 14.25 11.8748C13.8146 11.8748 13.4583 12.2311 13.4583 12.6665C13.4583 13.1019 13.8146 13.4582 14.25 13.4582Z" fill="#F5F5F5"/>
</svg>
