<svg width="23" height="6" viewBox="0 0 23 6" fill="none" xmlns="http://www.w3.org/2000/svg">
<path d="M17.25 3C17.25 3.72935 17.5397 4.42882 18.0555 4.94454C18.5712 5.46027 19.2707 5.75 20 5.75C20.7293 5.75 21.4288 5.46027 21.9445 4.94454C22.4603 4.42882 22.75 3.72935 22.75 3C22.75 2.27065 22.4603 1.57118 21.9445 1.05546C21.4288 0.539732 20.7293 0.25 20 0.25C19.2707 0.25 18.5712 0.539732 18.0555 1.05546C17.5397 1.57118 17.25 2.27065 17.25 3ZM9 3C9 3.72935 9.28973 4.42882 9.80546 4.94454C10.3212 5.46027 11.0207 5.75 11.75 5.75C12.4793 5.75 13.1788 5.46027 13.6945 4.94454C14.2103 4.42882 14.5 3.72935 14.5 3C14.5 2.27065 14.2103 1.57118 13.6945 1.05546C13.1788 0.539732 12.4793 0.25 11.75 0.25C11.0207 0.25 10.3212 0.539732 9.80546 1.05546C9.28973 1.57118 9 2.27065 9 3V3ZM0.75 3C0.75 3.72935 1.03973 4.42882 1.55546 4.94454C2.07118 5.46027 2.77065 5.75 3.5 5.75C4.22935 5.75 4.92882 5.46027 5.44454 4.94454C5.96027 4.42882 6.25 3.72935 6.25 3C6.25 2.27065 5.96027 1.57118 5.44454 1.05546C4.92882 0.539732 4.22935 0.25 3.5 0.25C2.77065 0.25 2.07118 0.539732 1.55546 1.05546C1.03973 1.57118 0.75 2.27065 0.75 3Z" fill="#C4C4C4"/>
</svg>
