<svg width="40" height="40" viewBox="0 0 40 40" fill="none" xmlns="http://www.w3.org/2000/svg">
<path d="M14.5 19.75C14.5 20.4793 14.2103 21.1788 13.6945 21.6945C13.1788 22.2103 12.4793 22.5 11.75 22.5C11.0207 22.5 10.3212 22.2103 9.80546 21.6945C9.28973 21.1788 9 20.4793 9 19.75C9 19.0207 9.28973 18.3212 9.80546 17.8055C10.3212 17.2897 11.0207 17 11.75 17C12.4793 17 13.1788 17.2897 13.6945 17.8055C14.2103 18.3212 14.5 19.0207 14.5 19.75ZM22.75 19.75C22.75 20.4793 22.4603 21.1788 21.9445 21.6945C21.4288 22.2103 20.7293 22.5 20 22.5C19.2707 22.5 18.5712 22.2103 18.0555 21.6945C17.5397 21.1788 17.25 20.4793 17.25 19.75C17.25 19.0207 17.5397 18.3212 18.0555 17.8055C18.5712 17.2897 19.2707 17 20 17C20.7293 17 21.4288 17.2897 21.9445 17.8055C22.4603 18.3212 22.75 19.0207 22.75 19.75ZM31 19.75C31 20.4793 30.7103 21.1788 30.1945 21.6945C29.6788 22.2103 28.9793 22.5 28.25 22.5C27.5207 22.5 26.8212 22.2103 26.3055 21.6945C25.7897 21.1788 25.5 20.4793 25.5 19.75C25.5 19.0207 25.7897 18.3212 26.3055 17.8055C26.8212 17.2897 27.5207 17 28.25 17C28.9793 17 29.6788 17.2897 30.1945 17.8055C30.7103 18.3212 31 19.0207 31 19.75Z" fill="#C4C4C4"/>
</svg>
