<svg width="40" height="40" viewBox="0 0 40 40" fill="none" xmlns="http://www.w3.org/2000/svg">
<path d="M27.5 17.5C26.47 17.5 25.6 18.12 25.21 19H22.29C21.9 18.12 21.03 17.5 20 17.5C18.97 17.5 18.1 18.12 17.71 19H14.79C14.4 18.12 13.53 17.5 12.5 17.5C11.12 17.5 10 18.62 10 20C10 21.38 11.12 22.5 12.5 22.5C13.53 22.5 14.4 21.88 14.79 21H17.71C18.1 21.88 18.97 22.5 20 22.5C21.03 22.5 21.9 21.88 22.29 21H25.21C25.6 21.88 26.47 22.5 27.5 22.5C28.88 22.5 30 21.38 30 20C30 18.62 28.88 17.5 27.5 17.5Z" fill="#C4C4C4"/>
<path d="M33.25 30.9167L31.5 32.6667L7 8.75L8.75 7L33.25 30.9167Z" fill="#C4C4C4"/>
</svg>
