<svg width="40" height="40" viewBox="0 0 40 40" fill="none" xmlns="http://www.w3.org/2000/svg">
<path d="M18.9 26.6H21.1V24.4H18.9V26.6ZM20 9C18.5555 9 17.1251 9.28452 15.7905 9.83733C14.4559 10.3901 13.2433 11.2004 12.2218 12.2218C10.1589 14.2847 9 17.0826 9 20C9 22.9174 10.1589 25.7153 12.2218 27.7782C13.2433 28.7996 14.4559 29.6099 15.7905 30.1627C17.1251 30.7155 18.5555 31 20 31C22.9174 31 25.7153 29.8411 27.7782 27.7782C29.8411 25.7153 31 22.9174 31 20C31 18.5555 30.7155 17.1251 30.1627 15.7905C29.6099 14.4559 28.7996 13.2433 27.7782 12.2218C26.7567 11.2004 25.5441 10.3901 24.2095 9.83733C22.8749 9.28452 21.4445 9 20 9ZM20 28.8C15.149 28.8 11.2 24.851 11.2 20C11.2 15.149 15.149 11.2 20 11.2C24.851 11.2 28.8 15.149 28.8 20C28.8 24.851 24.851 28.8 20 28.8ZM20 13.4C18.833 13.4 17.7139 13.8636 16.8887 14.6887C16.0636 15.5139 15.6 16.633 15.6 17.8H17.8C17.8 17.2165 18.0318 16.6569 18.4444 16.2444C18.8569 15.8318 19.4165 15.6 20 15.6C20.5835 15.6 21.1431 15.8318 21.5556 16.2444C21.9682 16.6569 22.2 17.2165 22.2 17.8C22.2 20 18.9 19.725 18.9 23.3H21.1C21.1 20.825 24.4 20.55 24.4 17.8C24.4 16.633 23.9364 15.5139 23.1113 14.6887C22.2861 13.8636 21.167 13.4 20 13.4Z" fill="#C4C4C4"/>
</svg>
