<svg width="40" height="40" viewBox="0 0 40 40" fill="none" xmlns="http://www.w3.org/2000/svg">
<path d="M18.9 14.5263V20.1742L24.081 23.2579L24.95 21.8432L20.55 19.2237V14.5263H18.9ZM20.55 9C16.667 9 13.301 11.1221 11.497 14.2721L9 11.7632V18.9474H16.15L13.125 15.9079C14.456 13.1226 17.25 11.2105 20.55 11.2105C22.738 11.2105 24.8365 12.0839 26.3836 13.6385C27.9308 15.193 28.8 17.3015 28.8 19.5C28.8 21.6985 27.9308 23.807 26.3836 25.3615C24.8365 26.9161 22.738 27.7895 20.55 27.7895C16.953 27.7895 13.917 25.4795 12.784 22.2632H10.474C11.684 26.7174 15.721 30 20.55 30C26.314 30 31 25.3026 31 19.5C31 18.1211 30.7297 16.7557 30.2045 15.4818C29.6794 14.2079 28.9096 13.0504 27.9393 12.0754C26.9689 11.1004 25.8169 10.3269 24.549 9.79926C23.2812 9.27159 21.9223 9 20.55 9Z" fill="#C4C4C4"/>
</svg>
