<svg width="40" height="40" viewBox="0 0 40 40" fill="none" xmlns="http://www.w3.org/2000/svg">
<path d="M18.9 16.7H21.1V14.5H18.9V16.7ZM20 28.8C15.149 28.8 11.2 24.851 11.2 20C11.2 15.149 15.149 11.2 20 11.2C24.851 11.2 28.8 15.149 28.8 20C28.8 24.851 24.851 28.8 20 28.8ZM20 9C18.5555 9 17.1251 9.28452 15.7905 9.83733C14.4559 10.3901 13.2433 11.2004 12.2218 12.2218C10.1589 14.2847 9 17.0826 9 20C9 22.9174 10.1589 25.7153 12.2218 27.7782C13.2433 28.7996 14.4559 29.6099 15.7905 30.1627C17.1251 30.7155 18.5555 31 20 31C22.9174 31 25.7153 29.8411 27.7782 27.7782C29.8411 25.7153 31 22.9174 31 20C31 18.5555 30.7155 17.1251 30.1627 15.7905C29.6099 14.4559 28.7996 13.2433 27.7782 12.2218C26.7567 11.2004 25.5441 10.3901 24.2095 9.83733C22.8749 9.28452 21.4445 9 20 9V9ZM18.9 25.5H21.1V18.9H18.9V25.5Z" fill="#C4C4C4"/>
<path d="M18.9 16.7H21.1V14.5H18.9V16.7ZM20 28.8C15.149 28.8 11.2 24.851 11.2 20C11.2 15.149 15.149 11.2 20 11.2C24.851 11.2 28.8 15.149 28.8 20C28.8 24.851 24.851 28.8 20 28.8ZM20 9C18.5555 9 17.1251 9.28452 15.7905 9.83733C14.4559 10.3901 13.2433 11.2004 12.2218 12.2218C10.1589 14.2847 9 17.0826 9 20C9 22.9174 10.1589 25.7153 12.2218 27.7782C13.2433 28.7996 14.4559 29.6099 15.7905 30.1627C17.1251 30.7155 18.5555 31 20 31C22.9174 31 25.7153 29.8411 27.7782 27.7782C29.8411 25.7153 31 22.9174 31 20C31 18.5555 30.7155 17.1251 30.1627 15.7905C29.6099 14.4559 28.7996 13.2433 27.7782 12.2218C26.7567 11.2004 25.5441 10.3901 24.2095 9.83733C22.8749 9.28452 21.4445 9 20 9V9ZM18.9 25.5H21.1V18.9H18.9V25.5Z" fill="#C4C4C4"/>
<path d="M33.25 30.9167L31.5 32.6667L7 8.75L8.75 7L33.25 30.9167Z" fill="#C4C4C4"/>
</svg>
