<svg width="20" height="21" viewBox="0 0 20 21" fill="none" xmlns="http://www.w3.org/2000/svg">
<path d="M7.42857 0.195312C9.39875 0.195313 11.2882 0.977963 12.6814 2.37109C14.0745 3.76422 14.8571 5.6537 14.8571 7.62388C14.8571 9.46388 14.1829 11.1553 13.0743 12.4582L13.3829 12.7667H14.2857L20 18.481L18.2857 20.1953L12.5714 14.481V13.5782L12.2629 13.2696C10.96 14.3782 9.26857 15.0525 7.42857 15.0525C5.45839 15.0525 3.56891 14.2698 2.17578 12.8767C0.782651 11.4836 0 9.59406 0 7.62388C0 5.6537 0.782651 3.76422 2.17578 2.37109C3.56891 0.977963 5.45839 0.195313 7.42857 0.195312ZM7.42857 2.48103C4.57143 2.48103 2.28571 4.76674 2.28571 7.62388C2.28571 10.481 4.57143 12.7667 7.42857 12.7667C10.2857 12.7667 12.5714 10.481 12.5714 7.62388C12.5714 4.76674 10.2857 2.48103 7.42857 2.48103Z" fill="#ECECEC"/>
</svg>
