<svg width="40" height="40" viewBox="0 0 40 40" fill="none" xmlns="http://www.w3.org/2000/svg">
<path d="M29.9167 9.5L29.73 9.535L23.5 11.95L16.5 9.5L9.92 11.7167C9.675 11.7983 9.5 12.0083 9.5 12.2767V29.9167C9.5 30.2433 9.75667 30.5 10.0833 30.5L10.27 30.465L16.5 28.05L23.5 30.5L30.08 28.2833C30.325 28.2017 30.5 27.9917 30.5 27.7233V10.0833C30.5 9.75667 30.2433 9.5 29.9167 9.5ZM17.6667 12.3817L22.3333 14.015V27.6183L17.6667 25.985V12.3817ZM11.8333 13.5367L15.3333 12.3583V26.0083L11.8333 27.3617V13.5367ZM28.1667 26.4633L24.6667 27.6417V14.0033L28.1667 12.65V26.4633Z" fill="#C4C4C4"/>
</svg>
