<svg width="23" height="23" viewBox="0 0 23 23" fill="none" xmlns="http://www.w3.org/2000/svg">
<path d="M2.14318 12.5455H0V10.4545H2.14318C2.61364 6.095 6.095 2.61364 10.4545 2.14318V0H12.5455V2.14318C16.905 2.61364 20.3864 6.095 20.8568 10.4545H23V12.5455H20.8568C20.3864 16.905 16.905 20.3864 12.5455 20.8568V23H10.4545V20.8568C6.095 20.3864 2.61364 16.905 2.14318 12.5455ZM11.5 4.18182C9.5591 4.18182 7.69769 4.95284 6.32526 6.32526C4.95284 7.69769 4.18182 9.5591 4.18182 11.5C4.18182 13.4409 4.95284 15.3023 6.32526 16.6747C7.69769 18.0472 9.5591 18.8182 11.5 18.8182C13.4409 18.8182 15.3023 18.0472 16.6747 16.6747C18.0472 15.3023 18.8182 13.4409 18.8182 11.5C18.8182 9.5591 18.0472 7.69769 16.6747 6.32526C15.3023 4.95284 13.4409 4.18182 11.5 4.18182Z" fill="#C4C4C4"/>
</svg>
