<svg width="25" height="25" viewBox="0 0 25 25" fill="none" xmlns="http://www.w3.org/2000/svg">
<path d="M12.5 0C5.58333 0 0 5.58333 0 12.5C0 19.4167 5.58333 25 12.5 25C19.4167 25 25 19.4167 25 12.5C25 5.58333 19.4167 0 12.5 0ZM19.5833 7.16667L12 19.4167C11.75 19.8333 11.25 20.1667 10.75 20.1667C10.3333 20.1667 9.91667 19.9167 9.58333 19.5833L4.91667 13.75C4.58333 13.25 4.58333 12.5833 5 12.1667C5.5 11.6667 6.25 11.6667 6.66667 12.0833L10.6667 15.6667L17.75 5.91667C18.0833 5.41667 18.8333 5.33333 19.3333 5.66667C19.8333 5.91667 19.9167 6.66667 19.5833 7.16667Z" fill="#EB732F"/>
</svg>
