<svg width="40" height="40" viewBox="0 0 40 40" fill="none" xmlns="http://www.w3.org/2000/svg">
<g clip-path="url(#clip0)">
<path d="M28.7919 21.078C28.8359 20.726 28.8689 20.374 28.8689 20C28.8689 19.626 28.8359 19.274 28.7919 18.922L31.1129 17.107C31.3219 16.942 31.3769 16.645 31.2449 16.403L29.0449 12.597C28.9459 12.421 28.7589 12.322 28.5609 12.322C28.4949 12.322 28.4289 12.333 28.3739 12.355L25.6349 13.455C25.0629 13.015 24.4469 12.652 23.7759 12.377L23.3579 9.462C23.3249 9.198 23.0939 9 22.8189 9H18.4189C18.1439 9 17.9129 9.198 17.8799 9.462L17.4619 12.377C16.7909 12.652 16.1749 13.026 15.6029 13.455L12.8639 12.355C12.7979 12.333 12.7319 12.322 12.6659 12.322C12.4789 12.322 12.2919 12.421 12.1929 12.597L9.99294 16.403C9.84994 16.645 9.91594 16.942 10.1249 17.107L12.4459 18.922C12.4019 19.274 12.3689 19.637 12.3689 20C12.3689 20.363 12.4019 20.726 12.4459 21.078L10.1249 22.893C9.91594 23.058 9.86094 23.355 9.99294 23.597L12.1929 27.403C12.2919 27.579 12.4789 27.678 12.6769 27.678C12.7429 27.678 12.8089 27.667 12.8639 27.645L15.6029 26.545C16.1749 26.985 16.7909 27.348 17.4619 27.623L17.8799 30.538C17.9129 30.802 18.1439 31 18.4189 31H22.8189C23.0939 31 23.3249 30.802 23.3579 30.538L23.7759 27.623C24.4469 27.348 25.0629 26.974 25.6349 26.545L28.3739 27.645C28.4399 27.667 28.5059 27.678 28.5719 27.678C28.7589 27.678 28.9459 27.579 29.0449 27.403L31.2449 23.597C31.3769 23.355 31.3219 23.058 31.1129 22.893L28.7919 21.078ZM26.6139 19.197C26.6579 19.538 26.6689 19.769 26.6689 20C26.6689 20.231 26.6469 20.473 26.6139 20.803L26.4599 22.046L27.4389 22.816L28.6269 23.74L27.8569 25.071L26.4599 24.51L25.3159 24.048L24.3259 24.796C23.8529 25.148 23.4019 25.412 22.9509 25.599L21.7849 26.072L21.6089 27.315L21.3889 28.8H19.8489L19.6399 27.315L19.4639 26.072L18.2979 25.599C17.8249 25.401 17.3849 25.148 16.9449 24.818L15.9439 24.048L14.7779 24.521L13.3809 25.082L12.6109 23.751L13.7989 22.827L14.7779 22.057L14.6239 20.814C14.5909 20.473 14.5689 20.22 14.5689 20C14.5689 19.78 14.5909 19.527 14.6239 19.197L14.7779 17.954L13.7989 17.184L12.6109 16.26L13.3809 14.929L14.7779 15.49L15.9219 15.952L16.9119 15.204C17.3849 14.852 17.8359 14.588 18.2869 14.401L19.4529 13.928L19.6289 12.685L19.8489 11.2H21.3779L21.5869 12.685L21.7629 13.928L22.9289 14.401C23.4019 14.599 23.8419 14.852 24.2819 15.182L25.2829 15.952L26.4489 15.479L27.8459 14.918L28.6159 16.249L27.4389 17.184L26.4599 17.954L26.6139 19.197ZM20.6189 15.6C18.1879 15.6 16.2189 17.569 16.2189 20C16.2189 22.431 18.1879 24.4 20.6189 24.4C23.0499 24.4 25.0189 22.431 25.0189 20C25.0189 17.569 23.0499 15.6 20.6189 15.6ZM20.6189 22.2C19.4089 22.2 18.4189 21.21 18.4189 20C18.4189 18.79 19.4089 17.8 20.6189 17.8C21.8289 17.8 22.8189 18.79 22.8189 20C22.8189 21.21 21.8289 22.2 20.6189 22.2Z" fill="#ECECEC"/>
</g>
<defs>
<clipPath id="clip0">
<rect width="22" height="22" fill="white" transform="translate(9 9)"/>
</clipPath>
</defs>
</svg>
