<svg width="22" height="22" viewBox="0 0 22 22" fill="none" xmlns="http://www.w3.org/2000/svg">
<g clip-path="url(#clip0)">
<mask id="path-1-outside-1" maskUnits="userSpaceOnUse" x="-1" y="-1" width="24" height="24" fill="black">
<rect fill="white" x="-1" y="-1" width="24" height="24"/>
<path d="M12.0267 22H9.97333C9.27942 22 8.69367 21.4803 8.61117 20.79L8.39208 19.0703C7.95483 18.9283 7.53317 18.7532 7.13258 18.5488L5.76308 19.613C5.20758 20.0429 4.42567 19.9934 3.9435 19.4975L2.49975 18.0538C2.0075 17.5762 1.958 16.7943 2.38792 16.2397L3.45217 14.8693C3.24683 14.4687 3.07175 14.047 2.93058 13.6098L1.20725 13.3907C0.51975 13.3063 0 12.7206 0 12.0267V9.97333C0 9.27942 0.51975 8.69367 1.21 8.61117L2.92967 8.39208C3.07175 7.95483 3.24683 7.53317 3.45125 7.13258L2.38792 5.76308C1.95708 5.20758 2.0075 4.42475 2.50433 3.94258L3.94808 2.49883C4.42567 2.00658 5.2085 1.958 5.76217 2.387L7.13167 3.45217C7.53225 3.24775 7.95392 3.07267 8.39208 2.93058L8.61117 1.20725C8.69367 0.51975 9.27942 0 9.97333 0H12.0267C12.7206 0 13.3063 0.51975 13.3888 1.21L13.6079 2.92967C14.0461 3.07175 14.4677 3.24683 14.8683 3.45125L16.2378 2.387C16.7943 1.95708 17.5752 2.00658 18.0574 2.50342L19.5012 3.94717C19.9934 4.42475 20.0429 5.20667 19.613 5.76125L18.5488 7.13167C18.7541 7.53225 18.9292 7.95392 19.0703 8.39117L20.7937 8.61025C21.4803 8.69367 22 9.27942 22 9.97333V12.0267C22 12.7206 21.4803 13.3063 20.79 13.3888L19.0703 13.6079C18.9283 14.0452 18.7532 14.4668 18.5488 14.8674L19.613 16.2369C20.0438 16.7924 19.9934 17.5743 19.4966 18.0565L18.0528 19.5003C17.5753 19.9925 16.7924 20.0429 16.2388 19.6121L14.8683 18.5478C14.4677 18.7532 14.0461 18.9282 13.6088 19.0694L13.3898 20.7928C13.3063 21.4803 12.7206 22 12.0267 22V22ZM7.08583 17.545C7.16192 17.545 7.23983 17.5642 7.3095 17.6027C7.81458 17.8851 8.36183 18.1124 8.93567 18.2774C9.11167 18.3278 9.24092 18.4782 9.26383 18.6597L9.5205 20.6763C9.548 20.9064 9.74692 21.0833 9.97333 21.0833H12.0267C12.2531 21.0833 12.452 20.9064 12.4786 20.6809L12.7362 18.6606C12.7591 18.4791 12.8883 18.3288 13.0643 18.2783C13.6382 18.1133 14.1854 17.886 14.6905 17.6037C14.8509 17.5138 15.0508 17.5294 15.1947 17.6422L16.7988 18.8888C16.9831 19.0318 17.2416 19.0199 17.3993 18.8577L18.8522 17.4047C19.0181 17.2434 19.0309 16.9849 18.8879 16.7998L17.6413 15.1956C17.5285 15.0508 17.5129 14.8518 17.6027 14.6914C17.8851 14.1863 18.1124 13.6391 18.2774 13.0653C18.3278 12.8893 18.4782 12.76 18.6597 12.7371L20.6763 12.4804C20.9064 12.452 21.0833 12.2531 21.0833 12.0267V9.97333C21.0833 9.74692 20.9064 9.548 20.6809 9.52142L18.6606 9.26383C18.4791 9.24092 18.3288 9.11167 18.2783 8.93567C18.1133 8.36183 17.886 7.81458 17.6037 7.3095C17.5138 7.14908 17.5285 6.95017 17.6422 6.80533L18.8888 5.20117C19.0328 5.016 19.0199 4.7575 18.8586 4.60167L17.4057 3.14875C17.2453 2.98192 16.9858 2.96908 16.8007 3.113L15.1965 4.35967C15.0507 4.47242 14.8518 4.488 14.6914 4.39817C14.1882 4.11583 13.6409 3.88942 13.0653 3.7235C12.8893 3.67308 12.76 3.52275 12.7371 3.34125L12.4804 1.32458C12.452 1.09358 12.2531 0.916667 12.0267 0.916667H9.97333C9.74692 0.916667 9.548 1.09358 9.52142 1.31908L9.26383 3.33942C9.24092 3.52092 9.11167 3.67125 8.93567 3.72258C8.36 3.88758 7.81275 4.11492 7.3095 4.39633C7.14908 4.48708 6.95017 4.47058 6.80442 4.35875L5.20025 3.11208C5.01508 2.96817 4.7575 2.981 4.60075 3.14233L3.14783 4.59617C2.98192 4.7575 2.96908 5.016 3.11208 5.20117L4.35875 6.80533C4.4715 6.95017 4.48708 7.14908 4.39725 7.3095C4.114 7.81458 3.88758 8.36183 3.72258 8.93567C3.67217 9.11167 3.52183 9.24092 3.34033 9.26383L1.32367 9.5205C1.09358 9.548 0.916667 9.74692 0.916667 9.97333V12.0267C0.916667 12.2531 1.09358 12.452 1.31908 12.4786L3.33942 12.7362C3.52092 12.7591 3.67125 12.8883 3.72167 13.0643C3.88667 13.6382 4.114 14.1854 4.39633 14.6905C4.48617 14.8509 4.4715 15.0498 4.35783 15.1947L3.11117 16.7988C2.96725 16.984 2.98008 17.2425 3.14142 17.3983L4.59433 18.8513C4.75475 19.0172 5.01233 19.03 5.19933 18.887L6.8035 17.6403C6.88692 17.578 6.98592 17.545 7.08583 17.545V17.545Z"/>
</mask>
<path d="M12.0267 22H9.97333C9.27942 22 8.69367 21.4803 8.61117 20.79L8.39208 19.0703C7.95483 18.9283 7.53317 18.7532 7.13258 18.5488L5.76308 19.613C5.20758 20.0429 4.42567 19.9934 3.9435 19.4975L2.49975 18.0538C2.0075 17.5762 1.958 16.7943 2.38792 16.2397L3.45217 14.8693C3.24683 14.4687 3.07175 14.047 2.93058 13.6098L1.20725 13.3907C0.51975 13.3063 0 12.7206 0 12.0267V9.97333C0 9.27942 0.51975 8.69367 1.21 8.61117L2.92967 8.39208C3.07175 7.95483 3.24683 7.53317 3.45125 7.13258L2.38792 5.76308C1.95708 5.20758 2.0075 4.42475 2.50433 3.94258L3.94808 2.49883C4.42567 2.00658 5.2085 1.958 5.76217 2.387L7.13167 3.45217C7.53225 3.24775 7.95392 3.07267 8.39208 2.93058L8.61117 1.20725C8.69367 0.51975 9.27942 0 9.97333 0H12.0267C12.7206 0 13.3063 0.51975 13.3888 1.21L13.6079 2.92967C14.0461 3.07175 14.4677 3.24683 14.8683 3.45125L16.2378 2.387C16.7943 1.95708 17.5752 2.00658 18.0574 2.50342L19.5012 3.94717C19.9934 4.42475 20.0429 5.20667 19.613 5.76125L18.5488 7.13167C18.7541 7.53225 18.9292 7.95392 19.0703 8.39117L20.7937 8.61025C21.4803 8.69367 22 9.27942 22 9.97333V12.0267C22 12.7206 21.4803 13.3063 20.79 13.3888L19.0703 13.6079C18.9283 14.0452 18.7532 14.4668 18.5488 14.8674L19.613 16.2369C20.0438 16.7924 19.9934 17.5743 19.4966 18.0565L18.0528 19.5003C17.5753 19.9925 16.7924 20.0429 16.2388 19.6121L14.8683 18.5478C14.4677 18.7532 14.0461 18.9282 13.6088 19.0694L13.3898 20.7928C13.3063 21.4803 12.7206 22 12.0267 22V22ZM7.08583 17.545C7.16192 17.545 7.23983 17.5642 7.3095 17.6027C7.81458 17.8851 8.36183 18.1124 8.93567 18.2774C9.11167 18.3278 9.24092 18.4782 9.26383 18.6597L9.5205 20.6763C9.548 20.9064 9.74692 21.0833 9.97333 21.0833H12.0267C12.2531 21.0833 12.452 20.9064 12.4786 20.6809L12.7362 18.6606C12.7591 18.4791 12.8883 18.3288 13.0643 18.2783C13.6382 18.1133 14.1854 17.886 14.6905 17.6037C14.8509 17.5138 15.0508 17.5294 15.1947 17.6422L16.7988 18.8888C16.9831 19.0318 17.2416 19.0199 17.3993 18.8577L18.8522 17.4047C19.0181 17.2434 19.0309 16.9849 18.8879 16.7998L17.6413 15.1956C17.5285 15.0508 17.5129 14.8518 17.6027 14.6914C17.8851 14.1863 18.1124 13.6391 18.2774 13.0653C18.3278 12.8893 18.4782 12.76 18.6597 12.7371L20.6763 12.4804C20.9064 12.452 21.0833 12.2531 21.0833 12.0267V9.97333C21.0833 9.74692 20.9064 9.548 20.6809 9.52142L18.6606 9.26383C18.4791 9.24092 18.3288 9.11167 18.2783 8.93567C18.1133 8.36183 17.886 7.81458 17.6037 7.3095C17.5138 7.14908 17.5285 6.95017 17.6422 6.80533L18.8888 5.20117C19.0328 5.016 19.0199 4.7575 18.8586 4.60167L17.4057 3.14875C17.2453 2.98192 16.9858 2.96908 16.8007 3.113L15.1965 4.35967C15.0507 4.47242 14.8518 4.488 14.6914 4.39817C14.1882 4.11583 13.6409 3.88942 13.0653 3.7235C12.8893 3.67308 12.76 3.52275 12.7371 3.34125L12.4804 1.32458C12.452 1.09358 12.2531 0.916667 12.0267 0.916667H9.97333C9.74692 0.916667 9.548 1.09358 9.52142 1.31908L9.26383 3.33942C9.24092 3.52092 9.11167 3.67125 8.93567 3.72258C8.36 3.88758 7.81275 4.11492 7.3095 4.39633C7.14908 4.48708 6.95017 4.47058 6.80442 4.35875L5.20025 3.11208C5.01508 2.96817 4.7575 2.981 4.60075 3.14233L3.14783 4.59617C2.98192 4.7575 2.96908 5.016 3.11208 5.20117L4.35875 6.80533C4.4715 6.95017 4.48708 7.14908 4.39725 7.3095C4.114 7.81458 3.88758 8.36183 3.72258 8.93567C3.67217 9.11167 3.52183 9.24092 3.34033 9.26383L1.32367 9.5205C1.09358 9.548 0.916667 9.74692 0.916667 9.97333V12.0267C0.916667 12.2531 1.09358 12.452 1.31908 12.4786L3.33942 12.7362C3.52092 12.7591 3.67125 12.8883 3.72167 13.0643C3.88667 13.6382 4.114 14.1854 4.39633 14.6905C4.48617 14.8509 4.4715 15.0498 4.35783 15.1947L3.11117 16.7988C2.96725 16.984 2.98008 17.2425 3.14142 17.3983L4.59433 18.8513C4.75475 19.0172 5.01233 19.03 5.19933 18.887L6.8035 17.6403C6.88692 17.578 6.98592 17.545 7.08583 17.545V17.545Z" fill="#C4C4C4"/>
<path d="M12.0267 22H9.97333C9.27942 22 8.69367 21.4803 8.61117 20.79L8.39208 19.0703C7.95483 18.9283 7.53317 18.7532 7.13258 18.5488L5.76308 19.613C5.20758 20.0429 4.42567 19.9934 3.9435 19.4975L2.49975 18.0538C2.0075 17.5762 1.958 16.7943 2.38792 16.2397L3.45217 14.8693C3.24683 14.4687 3.07175 14.047 2.93058 13.6098L1.20725 13.3907C0.51975 13.3063 0 12.7206 0 12.0267V9.97333C0 9.27942 0.51975 8.69367 1.21 8.61117L2.92967 8.39208C3.07175 7.95483 3.24683 7.53317 3.45125 7.13258L2.38792 5.76308C1.95708 5.20758 2.0075 4.42475 2.50433 3.94258L3.94808 2.49883C4.42567 2.00658 5.2085 1.958 5.76217 2.387L7.13167 3.45217C7.53225 3.24775 7.95392 3.07267 8.39208 2.93058L8.61117 1.20725C8.69367 0.51975 9.27942 0 9.97333 0H12.0267C12.7206 0 13.3063 0.51975 13.3888 1.21L13.6079 2.92967C14.0461 3.07175 14.4677 3.24683 14.8683 3.45125L16.2378 2.387C16.7943 1.95708 17.5752 2.00658 18.0574 2.50342L19.5012 3.94717C19.9934 4.42475 20.0429 5.20667 19.613 5.76125L18.5488 7.13167C18.7541 7.53225 18.9292 7.95392 19.0703 8.39117L20.7937 8.61025C21.4803 8.69367 22 9.27942 22 9.97333V12.0267C22 12.7206 21.4803 13.3063 20.79 13.3888L19.0703 13.6079C18.9283 14.0452 18.7532 14.4668 18.5488 14.8674L19.613 16.2369C20.0438 16.7924 19.9934 17.5743 19.4966 18.0565L18.0528 19.5003C17.5753 19.9925 16.7924 20.0429 16.2388 19.6121L14.8683 18.5478C14.4677 18.7532 14.0461 18.9282 13.6088 19.0694L13.3898 20.7928C13.3063 21.4803 12.7206 22 12.0267 22V22ZM7.08583 17.545C7.16192 17.545 7.23983 17.5642 7.3095 17.6027C7.81458 17.8851 8.36183 18.1124 8.93567 18.2774C9.11167 18.3278 9.24092 18.4782 9.26383 18.6597L9.5205 20.6763C9.548 20.9064 9.74692 21.0833 9.97333 21.0833H12.0267C12.2531 21.0833 12.452 20.9064 12.4786 20.6809L12.7362 18.6606C12.7591 18.4791 12.8883 18.3288 13.0643 18.2783C13.6382 18.1133 14.1854 17.886 14.6905 17.6037C14.8509 17.5138 15.0508 17.5294 15.1947 17.6422L16.7988 18.8888C16.9831 19.0318 17.2416 19.0199 17.3993 18.8577L18.8522 17.4047C19.0181 17.2434 19.0309 16.9849 18.8879 16.7998L17.6413 15.1956C17.5285 15.0508 17.5129 14.8518 17.6027 14.6914C17.8851 14.1863 18.1124 13.6391 18.2774 13.0653C18.3278 12.8893 18.4782 12.76 18.6597 12.7371L20.6763 12.4804C20.9064 12.452 21.0833 12.2531 21.0833 12.0267V9.97333C21.0833 9.74692 20.9064 9.548 20.6809 9.52142L18.6606 9.26383C18.4791 9.24092 18.3288 9.11167 18.2783 8.93567C18.1133 8.36183 17.886 7.81458 17.6037 7.3095C17.5138 7.14908 17.5285 6.95017 17.6422 6.80533L18.8888 5.20117C19.0328 5.016 19.0199 4.7575 18.8586 4.60167L17.4057 3.14875C17.2453 2.98192 16.9858 2.96908 16.8007 3.113L15.1965 4.35967C15.0507 4.47242 14.8518 4.488 14.6914 4.39817C14.1882 4.11583 13.6409 3.88942 13.0653 3.7235C12.8893 3.67308 12.76 3.52275 12.7371 3.34125L12.4804 1.32458C12.452 1.09358 12.2531 0.916667 12.0267 0.916667H9.97333C9.74692 0.916667 9.548 1.09358 9.52142 1.31908L9.26383 3.33942C9.24092 3.52092 9.11167 3.67125 8.93567 3.72258C8.36 3.88758 7.81275 4.11492 7.3095 4.39633C7.14908 4.48708 6.95017 4.47058 6.80442 4.35875L5.20025 3.11208C5.01508 2.96817 4.7575 2.981 4.60075 3.14233L3.14783 4.59617C2.98192 4.7575 2.96908 5.016 3.11208 5.20117L4.35875 6.80533C4.4715 6.95017 4.48708 7.14908 4.39725 7.3095C4.114 7.81458 3.88758 8.36183 3.72258 8.93567C3.67217 9.11167 3.52183 9.24092 3.34033 9.26383L1.32367 9.5205C1.09358 9.548 0.916667 9.74692 0.916667 9.97333V12.0267C0.916667 12.2531 1.09358 12.452 1.31908 12.4786L3.33942 12.7362C3.52092 12.7591 3.67125 12.8883 3.72167 13.0643C3.88667 13.6382 4.114 14.1854 4.39633 14.6905C4.48617 14.8509 4.4715 15.0498 4.35783 15.1947L3.11117 16.7988C2.96725 16.984 2.98008 17.2425 3.14142 17.3983L4.59433 18.8513C4.75475 19.0172 5.01233 19.03 5.19933 18.887L6.8035 17.6403C6.88692 17.578 6.98592 17.545 7.08583 17.545V17.545Z" stroke="#C4C4C4" stroke-width="0.6" mask="url(#path-1-outside-1)"/>
<path d="M6.26667 11.0001C6.26667 13.6102 8.38991 15.7334 11 15.7334C13.6101 15.7334 15.7333 13.6102 15.7333 11.0001C15.7333 8.38999 13.6101 6.26675 11 6.26675C8.38991 6.26675 6.26667 8.38999 6.26667 11.0001ZM7.48334 11.0001C7.48334 9.06075 9.06068 7.48341 11 7.48341C12.9393 7.48341 14.5167 9.06075 14.5167 11.0001C14.5167 12.9394 12.9393 14.5167 11 14.5167C9.06068 14.5167 7.48334 12.9394 7.48334 11.0001Z" fill="#C4C4C4" stroke="#C4C4C4" stroke-width="0.3"/>
</g>
<defs>
<clipPath id="clip0">
<rect width="22" height="22" fill="white"/>
</clipPath>
</defs>
</svg>
