<svg width="23" height="23" viewBox="0 0 20 20" fill="none" xmlns="http://www.w3.org/2000/svg">
<path d="M12.5 17.5H10.8333V15.8333H12.5V17.5ZM10.8333 11.6667H9.16667V15.8333H10.8333V11.6667ZM17.5 10H15.8333V13.3333H17.5V10ZM15.8333 8.33333H14.1667V10H15.8333V8.33333ZM5.83333 10H4.16667V11.6667H5.83333V10ZM4.16667 8.33333H2.5V10H4.16667V8.33333ZM10 4.16667H11.6667V2.5H10V4.16667ZM15.8333 15.8333V13.3333H12.5V15H14.1667V17.5H17.5V15.8333H15.8333ZM14.1667 10H10.8333V11.6667H14.1667V10ZM10.8333 8.33333H5.83333V10H7.5V11.6667H9.16667V10H10.8333V8.33333ZM11.6667 7.5V5.83333H10V4.16667H8.33333V7.5H11.6667ZM5.625 4.375H4.375V5.625H5.625V4.375ZM5.625 14.375H4.375V15.625H5.625V14.375ZM15.625 4.375H14.375V5.625H15.625V4.375Z" fill="#ECECEC"/>
<path d="M5.625 13.125H6.875V14.375H5.625V13.125Z" fill="#ECECEC"/>
<path d="M3.125 5.625H4.375V6.875H3.125V5.625Z" fill="#ECECEC"/>
<path d="M4.375 5.625H5.625V6.875H4.375V5.625Z" fill="#ECECEC"/>
<path d="M13.125 5.625H14.375V6.875H13.125V5.625Z" fill="#ECECEC"/>
<path d="M3.125 3.125H4.375V4.375H3.125V3.125Z" fill="#ECECEC"/>
<path d="M4.375 15.625H5.625L5.625 16.875H4.375L4.375 15.625Z" fill="#ECECEC"/>
<path d="M3.125 15.625H4.375L4.375 16.875H3.125L3.125 15.625Z" fill="#ECECEC"/>
</svg>
