<svg width="33" height="32" viewBox="0 0 33 32" fill="none" xmlns="http://www.w3.org/2000/svg">
<path d="M32.561 23.1912L31.2919 25.3158L1.68899 8.11336L2.95814 5.98868L32.561 23.1912Z" fill="#C4C4C4"/>
<path d="M6.75 27.8189L0 20.7877H5.4L5.4 19.0689C5.4 16.0852 6.53785 13.2237 8.56325 11.114C10.5886 9.00417 13.3357 7.81891 16.2 7.81891C19.0643 7.81891 21.8114 9.00417 23.8368 11.114C25.8621 13.2237 27 16.0852 27 19.0689V27.8189L24.3 27.7773V19.0689C24.3 16.8311 23.4466 14.685 21.9276 13.1027C20.4085 11.5204 18.3483 10.6314 16.2 10.6314C14.0517 10.6314 11.9915 11.5204 10.4724 13.1027C8.95339 14.685 8.1 16.8311 8.1 19.0689V20.7877H13.5L6.75 27.8189Z" fill="#C4C4C4"/>
</svg>
