<svg width="40" height="40" viewBox="0 0 40 40" fill="none" xmlns="http://www.w3.org/2000/svg">
<path d="M25.1527 23.0943H24.0686L23.6844 22.7238C25.0292 21.1595 25.8388 19.1286 25.8388 16.9194C25.8388 11.9931 21.8456 8 16.9194 8C11.9931 8 8 11.9931 8 16.9194C8 21.8456 11.9931 25.8388 16.9194 25.8388C19.1286 25.8388 21.1595 25.0292 22.7238 23.6844L23.0943 24.0686V25.1527L29.9554 32L32 29.9554L25.1527 23.0943ZM16.9194 23.0943C13.5026 23.0943 10.7444 20.3362 10.7444 16.9194C10.7444 13.5026 13.5026 10.7444 16.9194 10.7444C20.3362 10.7444 23.0943 13.5026 23.0943 16.9194C23.0943 20.3362 20.3362 23.0943 16.9194 23.0943ZM13.4889 16.2333H20.3499V17.6055H13.4889V16.2333Z" fill="#C4C4C4"/>
</svg>
